<mxfile host="app.diagrams.net" modified="2023-02-03T07:52:41.943Z" agent="5.0 (Windows NT 10.0; Win64; x64) AppleWebKit/537.36 (KHTML, like Gecko) Chrome/109.0.0.0 Safari/537.36" version="20.8.5" etag="zzAofoznYOA7Y_7NpfyK" type="github" pages="2">
  <diagram id="LfIQwA3run4e0xBMlMuk" name="第 1 页">
    <mxGraphModel dx="1434" dy="796" grid="1" gridSize="10" guides="1" tooltips="1" connect="1" arrows="1" fold="1" page="1" pageScale="1" pageWidth="827" pageHeight="1169" math="0" shadow="0">
      <root>
        <mxCell id="0" />
        <mxCell id="1" parent="0" />
        <mxCell id="i9W40uPc3UpOnRjJo2go-1" value="" style="shape=image;verticalLabelPosition=bottom;labelBackgroundColor=default;verticalAlign=top;aspect=fixed;imageAspect=0;image=data:image/png,iVBORw0KGgoAAAANSUhEUgAABDcAAAMsCAYAAABA+0kBAAAAAXNSR0IArs4c6QAAAARnQU1BAACxjwv8YQUAAAAJcEhZcwAAFxEAABcRAcom8z8AAP+lSURBVHhe7L0H2B1Vtbh/n/8NFqJgv1jAgiCKqBeughQBKQEFLioWEBAi0kKkBAUEKdIChF5CDRECAQIEQguRFmroLRRpgShFRAWvXhWvv/0/a75ZJ/usb82cOec7c77vnHnf53kf+KbsvWfOnj2zVqb8GwAAAMAwEBARERE7KAAAAEDX8S5KEBEREdsVAAAAoOskFyIAAAAAQ0GvKeTiAgAAAKDbkNwAAACAIaPXFHJxAQAAANBtSG4AAADAkNFrCrm4AAAAAOg2JDcAAABgyOg1hVxcAAAAAHQbkhsAAAAwZPSaQi4uAAAAALoNyQ0AAAAYMnpNIRcXAAAAAN2G5AYAAAAMGb2mkIsLAAAAgG5DcgMAAACGjF5TyMUFAAAAQLchuQEAAABDRq8p5OICAAAAoNuQ3AAAAIAho9cUcnEBAAAA0G1KT2787W9/C5tsskm4++670ykAACOXhQsXhmuvvTbMmTMn/PWvf02nNvLPf/4z7LfffuG8885LpwCAXlPIxQUAAABAtyk9uSGBwjrrrBPe8pa3dDQQkKTJmDFjkjKzApDbbrstqfeggw5Kp7SPBDM33nhjUuf06dPTqd3hnHPOCSussELH9t9zzz0XllpqqTB27NjMfdcKsm8mTJgQJk6cmFueBIPbbLNNmD9/fjoFYOQhY8syyyyTO25In990002T8bNTxxFAr6PXFDUBAAAAuk7pyQ0hDgQ6kWgQJHEh5W2++eZNkxtF7xrRf7EVZ82alQTs22+/fXj3u9+tF2yJK6+88pCCGUku7L777oXLkOTG6NGjw6uvvppOGeDpp59O/681pLxW9kszNBjM2y/aB2Q7SG7ASEb7c5EkphxLnRzXAHqZ6DwJAAAA0HWSC5FuIMHtXnvt1bFAQMqyAf8TTzzREFy3mtzQoEb3iyplzJgxIzz00EPpkgNIfXLruiQZrDrPQ5IbcjfLSiutFGbOnJlOXZQAsEkC2Q67rZrcafavxi+99FJDG6VdUockheL2WrPa7qFtyQsGi/xreK+R9Xv1Gv3023RiW7zkhhxH3nEiSjLUm75gwYJ07cFI39FEqrdulrpOXtkAw0V03gQAAADoOsmFyFCQi/S5c+e6F+JWCaz32WefJEngzVelvLxgUYMPCdBjJOERJzNaTW4IUre0T+vPumtC0GRNlrZ9MbLfTjrppGS5/fffP53qb5tNbkhyRO4mKRLA6bK2bc3Ma7tF9lGzAL/ob6EJA69NWbbS1k5SZnKjnb7bLp1ObnSz7ZaykhuyTV7fyzOvDe0el+Jw7VuAZkT9FAAAAKDrJBciQ0EDAS2rEza7ePceq9BA0yYFhhoI5CU3soJ6ry1ZyKMwdn0NfPQdG7Id2gb5f5knd2wUQcqS92u0sg8kaVM0YaDb2iyYlDKLJgEkwaT/Qq3GiSA7z95R0+u00n86QSeTG91uu6XdbZE7MzTpKklYKUOOP/n7zjvvrPdb2T6Z5iHrFb2jQo/xVt/fM5yJI4BmROdxAAAAgK6TXIh0GnsHRRayXFbiIAsNXmzwpMGCBDV6B8js2bOTdsijHzpNbCUIKTu5kYUEW0qc3JCyJaAviiY37D7Is0hyQ4NBecmqlK+BoBrffaO/jSQm4mVU+T2avYdD9oH01VaDwV6k2wFsJ5Mbwx18t7st2r884+NfXoor02z5eszLo2ZF3ilDcgP6kei4AQAAAOg6yYVIp4kTDVlkJSmaIYG3tNmulxeceBYNKrqd3JBA3wb/kqSRNtjHeYokafS38PZBns3a3qzceJ/pb5Zns2BUf98qJDdkf5XxqEsWnUxudLvtlk5si5bh9TU5trU/x/NbTTqQ3IB+JBrTAQAAALpOciHSaTS4z0oKCO0Eq3ECIw6+tT4bVLUSCEgZckdEnDwQ5XEIm1iQpIL83WpyQwIavcshiyKJgNhm+0/rbCUYkjYUSW5klSv7XX97DeKyyssLJGPa6S+9SLtB71DoVHJjONpuKTu5Ieh8Pfazjvc82t1XrYxpAN0mOjcBAAAAdJ3kQqQMNBjNCjIkgM5Lflg0GJDbvuVLI3EgofNsXa0EAlqG7pNmSv2tJjdk+vjx45P1t9lmG/dft7PKtEh7iyQtdLlOP5aSV78mN1544YUkCMz7nctIbsgjM/L4QPx7Sj+Qfe49MqC/vZQt70CR3yhe137VRtHfOev3krLGjBlTL0dce+213bIU2fdeeZIQi9u0wgorDEqSFQnsveMuXq+V7bd4bW933w7ntnh9Un7r+BjRFw/L/+vdXXfccUfDMnnHcLxfWoHkBoxk9DirCQAAANB1kguRMtDAzwts9cK+6L906vJS1osvvjgoceAFOcJQAwENcryyhXYfS9FAVQItW24ZyY04uCtqJ5Ibup15AaoXSHoUTW7o9sq+lc/3aqAp7waRpJj0B1uGtmHLLbdM1pUkiAaucpeOJqTsduQlN7S9tixZPms7tO22HukTsk78zhJ9wWq8bBzYZ5GXEGh1+2Oy2t5u2cO5LVpG/BvpNFm3iFljhqL7q1l/tpDcgJFMdAwAAAAAdJ3kQqQsNMCzgbIEJUUv0CWA1Jf4SSBgEwcSJNg7OZShBgIaVIpeMNRuckOQdk+aNCn9axFlJDeG686NvOBOkXKKBHnal/KW0wA0a//p75IVEGf9zoLXZ7OSG1qetw/jvmHbKL+9bVteX5I2xXVrve0mBFrd/hiv7UK7ZQ/ntmgZOt5477WR6VOnTm16nGZRtN9bSG7ASEaOu1QAAACArpNciJSJBBJSh17E60V9s+A5CxvsxZ9wtGZ9LUWNv+hh0XbqPhJtEDuU5IYiy3plZm2Tql8paRbk5CUhspDfrFnbtVxv3+oLUOOgU+408PZV0SCvSHJD9l2zwE/riwNfDWa99im6Xrxf9Hf2+kWrAWhWMF8kyFeKLJuXECiy/V7ZefW2Una8b4drWwQt49BDD00Sp95y8htLf5S7abLqyUPbQHID+onofAkAAADQdZILkTLRQEEuyOWZdAkGh3JxbhMHGvS2Y147JHCSAElfKDpv3rwkGInX6URyQ9ofL6dBUxGL7EcJosq6c0P2h9cu0QadurzdX0WDvCLJDf3N8oJN77fRPpq3zV4iIyu5UaQdFvnd7T5TpDz5rfNeRCsMNSHQ6vYreW1vt+zh2hbh0UcfrfdtebzFHjvyeIvWEU/P0oPkBvQj0TkAAAAAoOskFyJlYxMQeQFLMzQwyQtelHYDgXi9OHDTgET/Hmpyw1suq0yLtKXonRsaqLViszbk1S/7zwt2tS1x2TptqMmNZgGr4i1XJJAWbNLCK6toO2KaBeRapv428jLRiRMnDip/qAmBVrdfaNb2dsvu9rbIPpY7jlZZZZX6fpa+Zvd9q2btl6L93tLumAbQDaK+DwAAANB1kguRbiBBu9TlvUSzFTTYaJY4ENoJBDTo0ODI/qu0zNd3ZQw1ueEFOJ1ObpRFXv1ZyQ1BkxS6b7x94NHPyY2i/VQewTrrrLPqX2CRdeK7ObqdEBCatb3dsru9Ldq/ZHy68MILkzK8vpZVftF6laL93lK0rwAMB3IMpQIAAAB0neRCpGz0Ql7rayXwsxRNHAitBgIaoMTts8mNmKEmN7xgUcvs1Ds3FPkNdtxxx/q/+Es9sm9aDa6UdpMbggTkGpR3KrkhePvT4v02+rvn/V6tJDKKtENppT/HyHo77bRTw34uEmC3mxDI2/68tre7b7u9LYK+g0fL8Ppa1m9bpH/GkNyAfkTP8TUBAAAAuk5yIVImcqu3XMTLv4jOnz8/CaqlTrlAl2fZW6VIQKW0EghIQKOfCo2XL5LcsIkI/eRnXhuzghvdP0Vstm1Slu53G/TJftSv0Nh3Oej7RfLe8TCU5EZMJ5Mbsr3N9onWFwe/um+8oFXx1ssKkou0QxlKsGrX1e3I6nc6Pysh0Or2F2l7u2V3e1titAzb17QPyudl5ZhSsvpBHtoGOcbisaOZ+pLkdvoLQNnouakmAAAAQNdJLkTKQC74x48fn5RvL/rlwl4SCTLPBgrNKCu5IUjgYD/PKoFqXnJD96FnXhuz/gVYyiwSJMk+zLtzwwZwWQGbtMPuI9nHMl22ISvBkVe/7PfhSG40C2y172QFxHnbm7WfvKBWt8n7/eP++8YbbzQNir0vzyi2f2dtn6L9tRPbn7XtlqHu225si0XLsH1N7pbScUuUMmT8kjto5O9mfThG+4iW1Yp5bQcYTqJ+CgAAANB1kguRTiJByeTJk5MLd7kIt8kCJV5O2lA0yaFBTxnJDY+85IYESV5w16yNeYF6J5IbWn9cTlbAJssuWLAg+X9ZZrnllqt/3lK2L6udWn/RT8FmkbcdMUWSG4IGjXLHSty2WbNmuXfmCLpv5MsYsq70Rb0bJw5ovX2XFeBr8B2XpXf0aFna1rxt0rbZ7dFjx/Yx3U/x8lKvJBrlN9H/egkBb/tlXX3HR9zOIm0X2t23Qre2xaJlZC0jv7tNdEgfKNLflaL7z9KJMQ2gLPR4qAkAAADQdZILkU6wcOHCJNiQC3YpUx+HaIaup22RC/dx48aFOXPmpEs00ixxENOJQKDd5MYWW2wRxo4dm05ZhAZOWQmMoSY3ZH/K/skK+vKCKQ249G4P3deyD+16uqz+btasfWbJ2g5L0eSGIC/elEdu4vbJNsjvoYmcGN03st22P4prr72225fzkhuCDYBtWVn9x2KPLTHriylC1h0GUq/sR/vbxIF20e0v2vZ2963SjW2xFDlWvLJF6WPN9okQt7MVSG7ASCY6FgAAAAC6TnIhMhTkIj8OPvRfWVslDhbygqaRlNxoB/0X/azn/Yea3JC7JrzpGrDJ73PKKaeEa6+9tsEJEyYkwZbdX7LeGWeckf61iLykRNF9Jr+lBMnDHazFATh0ll7ct1nJDf1aTTzeaTJDxq/4KzZZiSdFkxut7hdJ9kjyt1mCBmA40OOiJgAAAEDXSS5EhopcqK+++uqZz7i3ggS83r+uK72e3BAkaMoqL+9fxCXokgBK9rX8bq22S14Uusoqq8QXoHVlP8m/ahfdV3n/8iyBntx5422D9BFpv26D6N3h0k1IbpRHL+1b6ZvyRSFNXmjf1hfsxsdK1l1A8Z0m9CeoGnqM1AQAAADoOsmFCGRTRnIjj2a3+5900klJYkD+ZTgvCdQN5D0GraLBrmyDvg9huCG5UR69tG8lGSrjoST54rvPJKEqd5VJfy1yV5osL3d4dGvMABgp6DVFTQAAAICuQ3IDKg/JjfJg3wJUB72mkIsLAAAAgG5DcgMqDwF4ebBvAaqDXlPIxQUAAABAtyG5AQAAAENGrynk4gIAAACg25DcAAAAgCGj1xRycQEAAADQbUhuAAAAwJDRawq5uAAAAADoNiQ3AAAAYMjoNYVcXAAAAAB0m1KSG/JJRfnU53nnnZdOaUReMjhmzJjkc6ZZnzy1PPfcc2GppZYKY8eObVjnpZdeSv8vm2afLJWyx40bF+bPn59OGYx8olU+EZm3TCtIeSussEK4++670ymdQbY1z6F8Plb2U9anMOU33WSTTQp92lWW3XLLLZsuK5/htb93u0g/8faHNa+uG2+8McyYMSOzD2i/7vRvCgDQC+g1hVxcAAAAAHSbjiQ3/vnPf4ZDDz00vPrqq8nfktwYPXp0w99xYkC/oDB9+vTk7yJociMOHLUc3Y488+qS9skyWckYqfvd7353wzYNFQncV1555bYCd1nXfn1CptltzvItb3lL5v6QfZAVnM+ePTtZ39tPUr/snyLJH1lW2pCXBNB9vvnmmzfdR3mJC0nmtNJP8r7qoduY1QfkOBg/fnzTcgAA+pFoLAUAAADoOsmFSCeQOxEkEBXi5IYGlnGwJ/ObBbcWKWe55ZZrWEeCyU033TQ3kCySSJG2ZyUatA7ZtrzlPBYuXBh23HFH924HCZS9sjSolzsWstBERit3Neh2yHpZ+0v21TrrrJObpNAER7w/tc1FklX6e0jbvUSEIvta2nHHHXcMWk5UtDzty1bZx2+88Uay7XH7bAKuSF+SdYr8/s2SIAAA/Ug09gIAAAB0neRCpBNo8kECSA0cX3zxxSRgtIF6VmCfh5bfqeSG/Gu/1O+VEQfPcaAaJzqKtD0v6M/aB1nttWiSIasMeUREkypFEhuK1h8H57Kv4sTDfvvt11BOnNgSpL54HypxOzy1Tinfm6/mJca8/ar1lpHcKPq4i5jXZ7zliwoAMBKIxmkAAACArpNciAwVG2xJ4C2Bo7xTIZ4uwV2RIFLRIFl84oknkuSGBOw6rUhZXrJAp+n2e8ryEszaQFrWlbsbiiRnvLqVoSY3BGmfJE/s9ktSRdoo2yHvtpD/l+3IeuzGokkZaZ/e9WD3TzPtfpO7WKQcTSjodsZJEWmf3OkSb5Nso5RXZH8IeckNKV/7ju2j0r+a9SWb3CjSj2LjbbVIu711mlnkOAIA6AbR2AQAAADQdZILkaGggbCWlacEYrK8vDsjDjRj7aMJXjmiBM/yyEI7yY2YrCSDBL+yXZMmTUqnLEICdU0Y5L0UtezkhiB3DnhIQK93QEg7i5anSCCf99hL3l0pHvIyTnnJbJzwsMkjDfBtvfqIit5lkUdeciPuP1navhQn2KRPSNmaEFFkmTlz5qR/LSLu683I6g9Z6DaR3ACAkUI0lgIAAAB0neRCpJNogCraIFUCsryEhZgV4EnQn/VYileO1QvCswJE3Yaf/vSnmf8yL499TJ48uZ7Y8RIB3UhuxNjHRwRNQtjHRuxyrSKJiaIJB0Xq1USBeu211zb8fdJJJyXlxu/akLsq4jt28tqel9yI96ltf7O+YI2TMpoIs49fSV8vmrDI6g9ZZLUXAGC4iMZIAAAAgK6TXIh0CgkYpTx5tECCv1VWWSWstNJK9ZdT6vw4yCwapOUlN+y6ElTG9Wah/7I+d+7cJKEgCQspT9pYNGiUuzgmTJjgBvndTG7oevqbNtNLTOh7SATZtzaJoMkFUQP3eJqYl3jQ33+o5iUBOp3ciJF1surWbdP1tW/F/TUPkhsA0OtE4zQAAABA10kuRDqB/Ou1lCXBlgaO8kJRCYIl0SGfirV3EAhFg7RWkxt57zdQJKCU5eKEgpQpjxjIf22AbANP2U551ML7Goqg5XqP4MgdChLM2veSyF0KeckN+wJLbZPui3i9rP1jA3tBl9U+Icb7UO8Aied7ekkTxdYbb0czdTuzkhe6nN2vOt/uG9uWrH0VI+vYuuOEkCTJ9P9tH9S2ZEFyAwB6nehcAAAAANB1kguRoSBBlr7bQW/Lt4Fj/HUNCd4leaBBXNE7FeLkhry/Qd6FEQd4GtyKGljG08T4roK4Xq8NUobuH1XqkTolcJb2e0mCmKIJAU9vf+j2xsvpftV5cSJFX5K5//77N+wHfZlmVrsFG5wXuROh2f6I57e6b3R/eEkAmeatI8p63r7RfTCUF4p6v0eW8WMsHiQ3AKDXicY8AAAAqBovLDkqiOmfw0FyITIUJOCz7xuwCYwYGwAXvX1fExByp4QEinHQqtvRzLheCSb17zi5IYGutFvmx4GjBPvytwblsmyzYF7ap8G0Ve8wKBrMWmxwO5R94VFGcmPevHlh3LhxyTa3+rtrckOSEnkvcfWSBFqGtx+srSQ3LPIbtPsuE5IbANDrRGMpAAAAVI1+SG5YNPjPCtRsUFskqJP3WowfPz5pqyRRNID07rgQNBGRh3dnhipBfV5yY+mll04C+GbBfB7NtjvrKyhKVnIj3hdZAXCRdnvJjSJ3WhTdH+0mN5pRNEnQzm+nyY377ruvnqSJkbol8Vbk6yiWou1WSG4AwEgjOhcAAABA1eiH5IYEWfaOBAnw4q9diBq02aDMBtExcgfImDFjkjausMIKg4JhDXyLPIqR9y/qXgAtwabuH7WV5IaW6X1FRcgLZnUf5QW7dj/q3yP5sZSYXk1uaF+Qfeo95pSXbJDfKKsfktwAgF4nOl8CAABA1eiH5EbeHRCxcRAmgZwEli+88EJu4CrL6b+ES/BoXyiqAfIxxxzj1hmbFzhmJTfiNrd650azoDwvmC0SuGYlN7xt9xwJyY123rnRDG+/yr6Jkztxgse+0NUmH2RdWVa+/CPtkK/wyPZJPbaNRcz6zfP6g0eRPgIA0E2isQ4AAACqRj8kN2IkQLPBrQS89mWKGvjL+zOKBsNeckPru+yyy3LLkeWy7g4R4kSEBsKyTi8mN+L6ssopkoTwkhvD8VhKq3j7VaZ5bfW07Zd9JdO32WabMHnyZPc309/a7mept+j+yOsPHkX6CABAN4nGUgAAAKga/ZTc8AI8DcC8xIIGnEWDMy+5oQF4s2Bd6spKbkgiQ4LWOHCXZWWduG0kN8p5LEU+oxvfOZFnkcA/3q/yVZ2sz/QWbavsQ72bQ9bxfjPZV3a67vusfmfRdts7SbIs8nUXAIBuoufQmgAAAFA1+im5IcGZlCV3acjXLCQglGlZAaQEhLJ8VoBvsckNvZNAgvlmgaq0Iw4ypax11lknqV+UO0ikLPm8rLZFtydWkxsa5OfVOxKTGxLs77jjjsm2N9vv3UhutPJYilgkkLe/W9Y6rbRV8ZIbMk3qkcdVJJGi82S6vWMpD6+/FbHIPgEA6AbR2AQAAABVo5+SG4L8a7J+1UT1gi8NCLfccsskwC3yr9s2uSHBtwanzQJVm9wQpK36L/JeIkLWidsu9cnf8uWWffbZJ8yfPz+33m4lN+TFloLWF68jy8jvoZ/p1YTC2muvnRt0yzsmNPEgj2PI3QRFkxGtJDeKPpaStz9k3ty5c5Pt1PbZRINHsz7jIet4v5nt9/Ly26L9WsnrDx5F+ggAQDfRMbAmAAAAVI1+S24ocXAsSoCsQZvMk2ka+GmiQ/7OC+zi5Iauo4Fds0DVS27EtJLciMmrV8uMv14SP1IgwbAE4TNmzAjXXntt3bPOOiu5u0L2X1bgKomB+M4TUfaxJFyGgiRutFxJgOhdHvK3vti1U2hyo8hjKXmPYGiQL+2LPxOseOWJWS8UVT2ykhuKtEW+FqS/iSQ5iu6zdpIb8jiV3G0EADAS0LGvJgAAAFSNfktuSHCs/4ItgeYbb7yRBJESeMv/a+BnExma8JBg3wboUuaECRPC9ttvnwSw8q/09rEKTXbk2WpyQx/LkPol6SABtM6XoFICf/lMbVZAqmXadsgjMFa5g0XKi81Kbsi2yry43ni/S0AtjwXNmTOnIViXBIFNoEj79a4OQQJs71EKCaT322+/esJKEh+HHnpovTyr7B/5vfSuEo+id4LEZiV7sijSLzyzHifJSm5ookG/qCL7NL6bQ+8kAQDoZ6JxFAAAAKpGPyQ3bOArgZwNDOM7DSTw85IBereHXV/Kl8SCBO36r9QyLf4Xegk68+7ckPbFd49YJDkggb6X3JAkhcyL19egWRITV111VTLNI6u+Zug2ewkZmSfJHm9bX3rppYYgO09NrMT/8i/bevPNN6d/DUbqlvd2SNAu6zZLTmQ9kiN06rGUspG6JRk0a9ashqSaTJf9EO8D7+6ZOPGUl2ADAOh1dCysCQAAAFWjX+7ckKB4k002yfzXaQkEt9hii6a36Esg2G5CAHqLVpMbkrTp5GMxraB3tMgdK3HyQqbrXRnN+q0khYpsKwBAr6LXFHJxAQAAABWjX5IbAAAAUG30mkIuLgAAAKBikNwAAACAfkCvKeTiAgAAACoGyQ0AAADoB/SaQi4uAAAAoGKQ3AAAAIB+QK8p5OICAAAAKgbJDQAAAOgH9JpCLi4AAACgYpDcAAAAgH5Arynk4gIAAAAqRr8mN2677baw+uqrZ366Uz4dO2bMmDBx4sTCn37VT4eOHTu2YZ2XXnop/b9snn766fT/WkO2Qz4BOlyfIG0HabPdR5DPXnvtNegzr83QPix9Yyj7Wj5zu+mmmyb1v/rqq+nURvRTynJMjbTPyconbmfMmJG573Q/8RlcgP5Hrynk4gIAAAAqRr8kNyT4OvTQQ+vBmQTYo0ePbvg7Dh4l4FlmmWXC9OnTk7+LoMmNOEjScnQ78mxWl7Rx/fXXbwhUvTo1GF155ZWbBrWSVGnmggUL0qUHI0H3Siut1FLQfdJJJyXb2+p6zZDt3m+//cKkSZPSKf2D7Ociv2eMrKOJL+93bQUpa/PNN0//8mmnjfKbeW1r1bw+es455zQc6xZpw/jx45M+edBBB6VTAaAfic65AAAAUDX66c6NOECLkxuagIgDG5kvgWEr/5or5Sy33HJuoiEvaCqaSFm4cGGyXBxA2uSG1KdB7R133JFMy0LWffe73x1f7LnqfpKy586d2xBISuDYakAryL+mS93SzlYSSHnovpY2e3eyyH7eZJNNwsyZM9Mp3cULymPz9mGR5EKM/C72d4zNC/Y9ykpuFO2DzczrQ3IsF2lXsyQIAPQ+0bgBAAAAVaOfkhuafJBASJMbL774YhIQy2MSMe0E7WUnNwQNBjXQjJMbWlerSRlBAtO4jfZvQcuPg9y8/eQF8LGPPvposr8kCePNF7P+Rd5rixAnOOz+lN9cpu+///4t/a6dIG6XZ7PfrJXkxuzZs5Myvf6k/SevP3oUTW4UbaMS99928I45i5fckEfFvP7mmddXvOWLCgDdJxp3AQAAoGr0S3LDBhYSAEpy46GHHmqYLoGMBqJFAkBZVtd94oknkkBL7gzQaUXKaiW5IWhiRh7p0OBQEgRSTzuJDaGV5EbczqzkhiYShmpesJz1L+3aznhf6LSR+C/zRe4YKJo4kLLy9luRujxaSW5o37/22mvDrFmzwhlnnJEuMZgiyYk82klu6PFm+1qWzfqgt04zW00uAUBniI5DAAAAqBr9kNzQf63WsvKUoEMTBlnvKojvJpCAzitHlOBakw7tJje8+mPl8Q5pqyRUJLkyZ84cdzkxCy8BM9TkhuzDpZdeekiJhGYBtf6u3r6VfRq/JDJv2eFGtlP2ofebqTZxIMbII0vrrLNO0u/kXSY2aSdK/5B+ZssR895ZIdjfopUEQd5vGCcnpH/ZduUpfS5ePyYuSxKZsn91nyiyjBwvlvj4b0ZW/8/CO9YAoHtEYxMAAABUjX65cyMm/tdW+9UOCT4kkNP5nlnBjBdoaTDjlWO1yY1W1m2m12YN/iTolXrkcQ2dJvsg/luCX23PSEluCLJMkTsRii5XJpKAkIRLvP90n8p2tnIXQLwtmriRZNoxxxxTOJEXm9Wn4/6gSRHtC1OnTm1Ipsky0oYtt9wy7LjjjomrrLJKbiAfHzOtbL8o7clKbmSVFd/NI0kP2Vf2kTTZjqIJi6z+n4X+3iQ3AIaHaDwAAACAqtFvyQ19XEICLwl0JPiKv9qh870AtFlAkpfcsOtKADWUr4VoYCaf3pT/yhdCigZYggbEun+bKQHcG2+8UTi5IftRA8lW3m+gChpQ51Hkjowiy3QL2aY4MSF9psgjSc32hSRO4seUbLCf14fzfkOvL2QliWwbixw3WcmJohRZ3z6WEqPbqG3M2n9ZkNwA6C2isQwAAACqRj8lN/RFixJYSFAjQZq8UFSCMgnE5VOxEgTbILKs5EazwN1DypPPnUp7JaFhkxTbbLNNywkTL8CW9tk267YUSW4IkqTQsrV9RZU69DGbZkhbswJubXMrAWiZ2PYUDaaL9hctL37viyh9X/qM9/JW+TRvs/1TpH67TFbfjxmu5IYk3PRv+QKQ/r/dBtk/eZDcAOgtovMMAAAAVI1+SG5IQCEJASlHb0HX5IYGxDJfAw4NqjVg8YJ/jzjQkndhSPIhDmbigFKDqHiamPd1kMmTJyeJjPiOjzg4lnbLYw+ynbJM0U+eShn2ERJpX1ZyI57eanCnFN2nRdCyvHZI+2R/dKKeTqEJKdmPdv/JHRgTJkwYFKwXSS4IWrYeN0Vt9ht69ccJAq9v6LS8fe8lJ2Q9e1zExu301rfY5Ia2y9sPVr37KAuSGwC9RXR8AwAAQNXoh+SGBDcS8MXP1tsERoxNfMQJhDw0yJZHRSQokqCulUBKjOuV4PGss86qJyykTPuSQ69tEiCPHz8+WWeFFVZomuTwAtes5Ib8K3d8Z8hISG4I8pvJ9sZt1kC/SFKg28h+k99TkxyK7hfv92hnO/RFo+38RjFZfUT6q/QHbbe3LRMnTgxbbLGFe/zIMjY5oQmpLON2eOtbbHLDIv262QtVsyC5AdBbRGMJAAAAVI1+SG5YNOjNCkpswqBIABMnFCSJosGSBng2iPeSBx6ynATBEiBmtXXcuHHuoyhy94gkWvICP31cIV5GA7CsYFrmH3jggcl7S4okD6SN0o54G7L2y1DQoDhOKmU9rjLcaPvsvhc0URPvm1aTG5IY07uVRK+v6WNaRb4KYuvX30/L1WMqbrMuM2XKlOS/Xvu95ETe8WaPG299iyY37rvvvuRYseVKfV7isAgkNwB6Cx0TawIAAEDV6IfkhgQU8W3t8o4BCWbs+wc0QLEBSF5gGT8KIndJ2LsoNMCLPysr60j58ddIxFb/9Vjb2c6LSWVdDX5toCXz5BEYeQeJBI72axKCJl3WX3/9pskDCS5tEO/tF2s7aLvkRbG2zpGE/nZZ+1/mxUFzXh9UZJ/JnT7xJ2Hlrh1N+ujvGP/28o6Wou81ieu3v6n3G8dJQmmDl2jqVnJDtlWUYy4+zrQf5iUbZH9lHZskNwB6Cx0LagIAAEDV6IfkhgREWk6eccChwdgLL7yQBD9ZdxjIchLUSZDuBVoa4MknOr06Y22Q1OwrI5okkaDVm2+1AZrcbXLGGWekfw1GA7+h3l3hBYBatrcf1HbqzUsajCS032y//fZuEkYDct0HzZIbeheGGL9UVsqROyrksRCZJ59plb9b3T+2fvnbJl/sbxwnN/TODlund8zkJQyknrgMb31B+oHsE0lyybZKokcSK1K27qdWzGpPXls9SG4ADC/RcQ0AAABVox+SGzESjNh/Qfb+1VmDb3mcouijDVmBmqx/2WWX5ZYjy9ngtd1ALMusgCoriSLJE9kHQ7m7QoM5u226f4eaOImRuiT4ld9S33vSzqMGZRMH+rp/bIAs06dOnVqfZpMLHvHvIevLHUryu8s+0Hrkb7l7wTsO8ojrt4kX/S1t+2Q5rSNrO7OOGVnuoYceGtTfiiY3tI2S6JG7kLwEhLbbHhet7BttK8kNgN5AxoVUAAAAqBr9lNzwghkNNrzAUZMLRQMRL9DSoDAO9DykrmbBq0WTMvKv/9LOdhIFuk90P7eid8eBRQN5L6jtZHJDX5wpbdIy9feTO1uKBp+CrFdW8KnbHe+PrLsaYookNxS9Y0HuVpDfJ05s6G/mHQt5xPU/+uijYZ999qn3Ze2HXoIh7vOyX+Xv+BEq75jR3y3LeD946wuyzXqnkrTDS0DINtnpeeOBh7RVyvASMZ56t1VZ/QsA8onGEgAAAKga/ZTc0KBJAjF5uaUEPxpweUkHCX5keS8w8rCBlgatEmx3OrmhQZi07Y033kj+v0iyoRU0AB5KAkL24SabbBJ22mmnQUFpp5IbEszLfva2X16qKvNa+TSu9pNOB6CagPH6geynvP4RJxc8ZDs1yaX9W/qs9hPZ/nnz5tX7oyB9UpYv8htk1a+/o3eM2GNL2mKXyUpOFKXI+l5yQ7dd+4XOk+mtHEfaV1qV5AbA8BAdhwAAAFA1+im5Ici/nOpXTVQv0NDgR99RUCTxYAOtOGCV8jqV3JAgUcqW9mlgKnXrnQudehRDA9d2ExDxNsdBdvzp0KEkN+Iv1OQloKRuXa5okkPfYdGpIDQvASNIIiyvXc2SG7I/5cW28RdpNLkm2yy/gbfPpdwifSarfum3Wdsk85olBqVNw5HcEOxYIC8ELnqsK0W2MUaPA5IbAMODHu81AQAAoGr0W3JD0WBTy5dn8zVA0cBWgxxNdMjfRQM1XUeDmE4lN/Rf/+OyFalf58UvlfSQIMu7bT62yDs3VLtfZHtl/8aBtNQp7z+Q6RJISjsl8JZPyuYpAXtMnNSQwHrSpEnpnHzk7gbdP7Jes30kv4m3n9tB6pY7WNoN4pslN2Liz8DGj+TEdxLFaKIsb3949dvjxCLrjOTkhiL9Ut9PIkrfLJogbCe5IcdA0T4LAJ1Fj/OaAAAAUDX6LbkRB8YS+MkjHRKkSWAn/69Bjk1kaCCndx7ESJkTJkyof/li7ty5SRAdBz2a7MgzK0iUYDX+xGfev7RL8KSBrSjtleSAvBMgRgPaTqkJgDhQzAvGZZ/NmjUrSV7IHQfyAlAxTjipcTAeB6Heb9GMOMEiZRS5Y8G2oVtIn5M7h6RfSXvz9qdslyRQ9LPEsm/snSDSB/PuspD1subb5IYubwN7fTmtvJdDEmN5bRYk4WI/n9wMWUf6ivQdOSay2qxkJTe0L+gXVWQ8iO/m8PYhAPQ2cmynAgAAQNXoh+SGBvwa0ErQYoMhCZg0eZD1AkoJNqUMu76UL7eay7/46r/IyrT406sSYOXduSHti+8eEeJAXpQgrujLMeMkjphXd6eR/VS0ne0g+6rov6xnIUH4nDlz0r+ykd9RXp5Z1rbkoXdayO9u+0aM9j/5neO7DuSuBkm6SRKgSIJE+kyzOzfiuryEgSY9RO84s2TdTZKHtkH2y9prr+0mIGQZSQhKAi1ONMp0OS50LBC9O1bi46dZggYAegc97msCAABA1eiXOzck0JPHArL+JVaCni222KJp0CxBT7cCXX3MRIKvdv8FWbZL/kW/1TscoLeQ3zlOpil650kriTGLlC3JBE0QyDGw++67u2VJsuKUU04ZdKfQcCCJFk2AxP1fputdGc32hxw7rdxVAgAjG72mqAkAAABVo1+SGwAAAFBt9JpCLi4AAACgYpDcAAAAgH5Arynk4gIAAAAqBskNAAAA6Af0mkIuLgAAAKBikNwAAACAfkCvKeTiAgAAACoGyQ0AAADoB/SaQi4uAAAAoGL0a3JDPs26+uqrZ34dRb5UMmbMmDBx4sTCX5iQL0UstdRSg75KIZ8dbcbTTz+d/p+PtGfLLbds+hUK+RJEpz7DKu2WdjUzry752sSMGTMyv9ai+5kvUgAAQNnoNYVcXAAAAEDF6JfkhnzO8tBDDw2vvvpq8rckN0aPHt3wd/zJSAm6l1lmmTB9+vTk7yJociMO1LUc3Y488+rSz1rmJQGk/ne/+91h8803b5rcyEtcyCdFW2n3QQcdlJY6GGl3vJ8t8ruMHz++aTkAAABDJTp3AQAAQNXopzs39tprryTwF+LkhgbycXAt85slEyxSznLLLdewjgTvm266aW7g3iyRovPljgwvEaHI9sk23XHHHYOWE5VmiYuVV145vPHGG0m74zbZhFCRbZN1pLxmyZZmSRAAAIChEp3rAAAAoGr0U3JDkw8SsGug/uKLLyYBuiQOYiTYLhKUx5SR3ND1dT9YNSGw3377ufPVvESNt61abxnJjaKPu4h5+99bvqgAAFA9ovMiAAAAVI1+SW7Y4Hb27NlJoC7vsIinSzBdJGhXZFld94knnkiSGzNnzqxPK1JWVnJj4cKFybqaUNDl9O4TQd4ZsuOOOyaPo2gdklCQfeYlSzzykhtSvm6L3Weyva0mN3Qb9HdtZrytFmm3t04zi/yuAADQf0TnAgAAAKga/ZDc0HdRaFl5SuCr786IA/tY+yiIV44od0vIIyLtJjfkZZzy0tP4jgtJFsR3YWiAb18iqo+oFHnMIy+5YbfJ025bnPCRhIiUrQkRRZaZM2dO+tci4n3fDK/deRRJNAEAQP8SnbsAAACgavTLnRsx8b/426SABMB5CQsxK6CWJEXWYyleOdasx1I0UaBee+21DX+fdNJJSSIjfteG3FUR30ESJ2QsecmNdh5LifdvbJyUkaSHJJzs40Cy74smLEhuAABAK0TnJAAAAKga/Zbc0Ec25FEOCbZXWWWVsNJKK9W/kuI90lE0KM5Lbth1JYiP681C2zNU85IAnU5uxMg6WXXrtun63tdm8iC5AQAArRCdFwEAAKBq9FNyQ+4WkLIkuNVAXV4oKokGSXTIp2L1U6oxZSU38t4nodiEgt6JUUQN+rOSF7qc3Pkh8+NHR7TdZSQ35IWi+vfcuXPr/2/3ibYlC5IbAADQCnpNURMAAACqRj8kNySo1a+J6GMQNlCX+Rr0yiMd8j4IDZqz3olhiZMb8r6MSZMmNQTUmkwQNZCPp4n28ZG4na28O0TU9npJAJnmrSPKetruTr9QVMv16rXGj7F4kNwAAIBWiM4xAAAAUDX6IbkhAbZ9v4NNYMTYxEfRxyU0CSIvAZXAPE4S6HY0M65XmDdvXhg3blzSzlbbockNSUpMnDgxMwngJQm0DK+N1laSGxbZP3nvA8mD5AYAALRCdO4CAACAqtEPyQ2L3gGRFRjbJEKRIFo+2zp+/PikrZJE0YA9664PuXOj1SC73eRGM4omCWzSpwia3LjvvvvqSZoYqVsSQUW+jmIhuQEAAK2g1xQ1AQAAoGr0Q3JDglp9tEKUd0xIQB1/XUTUINkGwXnvx5A7QMaMGZO0cYUVVhiUfNBEQ/x4hz7Osf/++zfU3+wOhl5NbuhvKNsbb6O2My/ZkHdnB8kNAABoBT0f1QQAAICq0Q/JDUlOaDl5xkGvBM4SyL/wwgu5iYL4zgMJ1u0LRTUhccwxx7h1xjYL1PWOE29dz6EkN2xCSLTv3FBt8kHWlWXlSzTSDvkqjCREpB7bxiJm7ReSGwAA0ArRuQUAAACqRj8kN2I0aRHffSB3F9iXV+pdBfL+jKJ3K3jJDa3vsssuyy1Hlmv29ZSid260ipckkGm675vp7U+Zvs0224TJkye7CYisuza83ycLr915kNwAAKg20bkLAAAAqkY/JTe8gFoDXi+xoAF+0WDYS27oIy3NHumQuoomN2bOnNlw50SeRQL/OEkgX3mR8j2KPpYi+1Tv5pB1vASE7Bc7Pe+38NB22ztJsizydRcAAOhf9JqiJgAAAFSNfkpuaLJC7tKQr4dIAC7TsgJ2fZyl6N0BNrmhj5HI4yGdSm608liKWCSQ1/3SbJ2iyY0YL7kh06QeeVxFEik6T6bbO2jysO0uKskNAIBqEp0LyuPcxf9tqQtGjzr3gtGLBUTsrtMWHzV92uKLfSE9HIcMxzPi8Nnp41nop+SGIP96r181Ub1gVwPwLbfcMkkoFLmbwCY3JDmiyYBmiYGiyY2ij6XkPYIh8+bOnZvsB02W2ESDR7Nt8JB1vOSQ/R3kZaxF97Mi+6xo4knI2ycAAND/6DmnZnlMGz1qpneRhojdctSD6eE4ZDieEYfbzh3PQr8lNxR54WV8F4S8H0KDZJkn0zTQ1kSH/J0XSMfJDV1HA+lOJjeKPJaS9wiGBvlyl0T82VrFK0/MeqGo6pGV3FCkLfL1Gv0dJMlR9LOw7SQ35B0gkyZNSqcAAECV0HNNzfLwL84QsZumh+OQ8cpGxO6aHo4dod+SGwsXLqzfMSCB/RtvvJEE7ZLckP/XQNsmMjThIXc4zJ8/P506gJQ5YcKEsP322ycJA7krYp111mkIvDXZkWeR5EYZj6XEFGmnZ9bjJFnJDU006BdV5LeI7+bQO0kAAAA6RXTeKg/vwgwRu2t6OA4Zr2xE7K7p4dgR+iG5IYH0fvvt1/AIhg3EJXEgCQmZL4G2dzeA3u1h19c7IeSuA70rQKbFd0Q0u3ND2hffPeLRqcdSykbqPuuss8KsWbMakjwyPX4URpRt9pJFmuRolvABAAAoip57apaHvSibefEPELFk7XGXHo5DxpZ7Ra0uRCxXe9ylh2NH6Jc7N+SRkU022STzbgAJvLfYYoumj0RI4J2XgCiTVpMbcmdE0Uc8Oo08MiJ3c6y99toNyQuZXuT9HoJ8uaXItgIAABRBrynk4qI07EXZcZdsjYgla4+79HAcMrbcE2p1IWK52uMuPRw7Qr8kNwAAAKDa6DWFXFyUhr0o+/GlWyJiydrjLj0ch4wtd89Lt0LEkrXHXXo4dgSSGwAAANAP6DWFXFyUhr0o2+yy7yJiydrjLj0ch4wt9xu1uhCxXO1xlx6OHYHkBgAAAPQDek0hFxelYS/KPnf5FohYsva4Sw/HIWPLXblWFyKWqz3u0sOxI5DcAAAAgH5Arynk4qI07EXZEjO/gYgla4+79HAcMrbc99TqQsRytcddejh2BJIbAAAA0A/oNYVcXJSGvSgbfdWWiFiy9rhLD8chY8t9+6zvImLJ2uMuPRw7AskNAAAA6Af0mkIuLkrDXpR99NqdELFk7XGXHo5Dxpb7kWt/hIgla4+79HDsCFVIbshnU8ePHz9sn01tB/m07ZgxY4a1zZ3ab1LO008/3batMBL2GwAADA96TSEXF6VhL8pW/tVPEbFk7XGXHo5Dxpb7+TkTELFk7XGXHo4doQrJjdtuuy2pY//99w9//etf06nt89JLL4XJkyeH1VdfPUyfPj2dGtzAPLYVFi5cmATp0u6VVlopzJ8/P53TPTq1384555yknHaN93EzRsJ+AwCA4SE6d5SHvSjb4JbDEbFk7XGXHo5Dxpb71Zt/gYgla4+79HDsCP2e3HjuuefCu9/97rDJJpu4CQerRQJ8SWKIq6yyStJW8S1veUvYcsstw8SJE5PAXxMBWcryd999d1pqcW688cawzjrrJGWMHTu2I8mZIgx1v8XIvll55ZXdtsu80aNHh1dffTWdsghpw1JLLdVT+w0AAIaP6LxbHvaibKvbT0bEkrXHXXo4Dhlb7rdvOwERS9Yed+nh2BH6Obkhjygss8wySflF3HzzzdM1FyGPVEyYMCHsuOOO4YQTTkgCZu9OgrKCdEHacNJJJ2UmCIqi+6PZnRCd2G8xw5HcEDq13wAAoDeIzk3lYS/Kxs87DxFL1h536eE4ZGy5O991LiKWrD3u0sOxI/RrckMeT5BEhATOeY8mSAC86aabFgqAddmykhtSvndXRDMXLFiQlpCPPB6S1UaljP1WdnKj7P0GAAC9gV5TyMVFadiLsoPvuxIRS9Yed+nhOGRsufvfexkilqw97tLDsSP0Y3Jj9uzZySMV+s4FeURh9913T+cuQu5QkEC+6L/sl53c2GuvvZJ90aqtJGYOOuigdMpgytpvZSc3ytxvAADQO0RjfHnYi7KTH74FEUvWHnfp4ThkbLnHPXQDIpasPe7Sw7Ej9FNyI37PQhy4StAu0+LAXgJnCeSbBbjxXQFPPPFEkiCQL3HYf/3XIP2hhx6qz1OlXUWCdLmzotWAu+g6eUmEMvZbjCY3vH0jdYzk/QYAAL2DnLNSy8NelE1/7EFELFl73KWH45Cx5f5y/j2IWLL2uEsPx47QT8kNSUTst99+YdKkSemURUgwKy/1vOOOO5L3MEidRV40KetpGz01YSABvDdfLfJC0bKCdL1rI+vdGGXst5hm+ybP4dxvAADQW0Tnj/KwF2Vzfv0cIpasPe7Sw3HI2HKvfvLXiFiy9rhLD8eO0E/JjTw0wJe6JGCeOXNmOqc4GqSX9VhKWUF60fo9OrXfsto4kvcbAAD0FnpNUbM87EXZA8/9ARFL1h536eE4ZGy5dz3zMiKWrD3u0sOxI/R7cuOll15K7kqQRymkHnmfhBdIF0Hf7eAFxSM5SJd2N/uiiaWT+43kBgAAdAO9pqhZHvai7LFn/9jzXn/Lg2Htr44Jt937lDu/iI889WqYM/chd16e1910X7h//ovuPOuhE08Oy3/qM+Gk089357fqD364a9jsG98NV86+sz7tlrueqG+HbNOBhx4bfrLfofX57SjlbLjxZklddltl3jrrbRS+uOoabe//Bx5/OXz0Y8uGvX56UOF92Wva4y49HIeMLfexZ/9UKX+0y55J37ty9l1tzbeef/F1YbHF3hKOnHS6O7/TSn2ttC/2upvuH5L3z3/JLTfPR576fXK8f3mNddpav1+0x116OHaEfktuSFA+d+7cMH78+HpgLm6zzTbJeyXk7gN5Z0ar2M+j6ks3lU4G6d77J7Js9qlTqVv2Q7PPv5a134RuJTc6ud8AAKD30HNXzfKwF2VP/Pp3Pe9DjywMX/rS6mH55T8d7rjrcXeZZm63/c7xD9CSxx53hltmrLTxgx/6cFhv/Y3d+a06//EXw7pf3XBQeYcdcXwtOFssHHX0KfW/W6lT9sNnVvxcePCh5wdNH7fb3g3TxKx2tGJWnXneevsjLS0/3NrjrtZvOoIt9/Fa8NnPPvrEy2GHHX8cHnh4YfL3dtvvUut7X6vPl7/Hjf9Jfdl1vzqmYX4zp02/Orz97YuH2+c92TCttqubqvW24pyb7g9fWnWNJKGy194/r29XM4u2Kc922qv7tJ11+0l73NX2Z8fol+SGBMlaliqBuT5GIQGwBuhesKtmfR5U1peEhgT6UoY8qiHlaeDdqSDdbkMR84J0Dfyz5pe93wRNbpT5QlG7DUUkuQEA0F9EY3x52IuyJ2vBaT/48IPPhQ9+8MPhM59ZKTz0wDPuMnkeftixYf31Nho0/bFHXwjrrrtB2G3cXoPmaZ3HTjpt0Dzr9tvtmARNd9aCcm++KHXd+Kt57jzrDXPuCksssWRD3drWeDsumDazab2qbo+3H6T93j7I2z9FlPbVumVbtlvncGiPu1r7O4It98nHX+prH3t0YdrfJiR/b7/dTml/fal2DB+X9PWrZ92c/P3wgwvS43Nyff1mXjDtinQMebZh2sAx9GjDsqq2KasemX/jr+5254ky/4D9Dwurf3mthnrV2+Y+OGj6DXPmhQ8u9aHMNuXZrL2qLHfmGdPq+1Onybo777R7mDP7zkF67e9H7XGXHo4doV+SG/JuiAkTJoQZM2YMCrT1qx9F9D6Vqndt7L///klSQ+6C0HdRaICsyY2R9NUPbXfeXRtl7jfFS6AUNU4gZdHp/QYAAL1JdP4oD3tR9tQjz/eMTzz4TLh59u3uPPGm624L3//etuHhe54YNK/ZukcccnRY/6sbDpou63117fXD+F32GDTv0Xt/HT70wQ+F448+edC8WCm7tusL2awsVcpc8dOfbdhW2f4ll1iyoYy89lu99dXtt92hoYw7brwn+W+RffCrq29xp2t9u/xoN3d+P2mPu9pv3RFsuU/Vgs9+d/ovL0uSDdfMvKHWL39UO27HJNPe/773h0svnDVouXm3Ptiwfp6yTnJc1fp1PC2vnCceei58dZ31a8fAKe78I35xzKDjvFXH77JnQ5k3zb4jSW60sm1qs/aqj973dO3Y/nDDcrqu10ZRfou4jH7VHne1be8Y/ZLcyEL/VT8v+BbkvRRZd15IGTLvxRdfrCc3BEkM6KMpzQL4IkF6O+/GkATE7rvv7gbp2m5vm5rRif2m5CUSNCk0lDteOr3fAACgN4nOu+VhL8qeqQW/veKRBx0Z76SWffvb3x7uuemezLI3WHeDQdN/fd+vw1fX/mr48U4/HjTvsbsfCx+qBRgnTDxh0DxV2yzL3FIL8rfbartBy8h0CfK9Ojy1Xru81LXip1cMj971aKHpVlnO7iNdZ+w2Y8OuO+wajjjwiHDFhVck9dv9m6U8JnPZ+ZfVyxR1m2WfS9neelkW3U8jSXvc1bajI9hyn37w2b72hlk3NTh2mx8mfSiedss1c5NlZd74Wl+xZdz5q7vqy4hP3vdUeOSu+cn/T59ycXKsyN86XaZJcuPum+6trxMry3117fXC8RNPdOfHZdp5t153ezjtuNMHTW/mzbXj54NLfTBpk2xPvP15ynY3a686/+7Hw8eW+Vjt2L28Pk3X9fZrlbTHXXo4doR+TW5I4kFeiCllS4Auf2c9OqGJiayvoOg8vVsja7mhBOladrNkQlH0ro1Wy+vUfouR5ENZyY1O7zcAAOhd5JyUWh72ouy5e5/oGY/6+WHhsyt8Jjx224Pu/KEoZW+4znqDpj89b35Yb611w+4/Gjdo3hN3PFQL8j8YTjz82EHzZL0ffHfr5AfVdede+ataQL9EQ1kXnHbuoGnNvOSsaQ3litoWr5y8bVB1mXj/Snvf/973Jdv3w+9vF8aN3XlQOdKWxd/+9nDfnDvq05op+1raL/tb6sra99Yi2zFStcedHIudwJb77H2/7lsvPvvCpN80U/rjZVMvSY4rb7644gorhvm3P5SU+8Pvb+8uI26wzvrhllk35pal/njH3Qa1WZR2x/XFSt3S3tmXXD1oXp7Spg/+xwfDndfdFtb7ylfd9nhKXbrOiUcc55atPn7nI+Fjy3w0XP7LGfVpT939eLJu1rZWRXvc1fZtx+i35IYEu/Kv8vJSTH1XhEyTANu7e0KCa1nWC44lQSDv2NDAXAPpMpIbRR4haYW89nh0cr/F6D7LurNipO03AADoXfSaQi4uSsNelC2465Ge8aj9Dwmf/dSnw+M33+POH4pSdm33tOVJvzjaLfOXJ5wefjZ+QsO0Wy+7Liz5ziXCNzbeNPzg21sldzUcd+DhDcvk+eTce8OHakGN1Lv7D3epT5f2S+By/3VzG5ZXtd6stmq5cZkzTv9lfX/vsOW2yTxbj0zfsBbsaBlfWXX1QdtsvfOKOWHnbcbWf0cpU8vI85nbHwzrrbl2Qxt7RXvc1X6/jmDLXTBvfiV85o6Ha31hneQ4SI6hg44cNG/DtddrWOeo/Q8dNM0644zzan3+M+HxW+6rT7v18uvDB/9jqXD/7NsalpN6zzjqxPq0LOMyb7n02vr0J2+9P0lInnToMQ3Lx9599c0NbVG9NhVV909evaK072NLfzRcMWV6fZquu/sOuzYsWzXtcTdwNHaGfkpuLFy4MElGSHnyUsz4ayYaZMeBtAbzRf/Vv8zkRqvJiDyaJRQsZe432XZZNiv5MJL2GwAA9DZ6TVGzPOxF2Qu3P9AzHrPfQeGzy68Qnrzhzobpz9aC6nG1YPmA3fZsmK7zttvie2HfXX48aL1YKXvMWusOmi7rr7/GV8IeY3caNO+pm+aFD9UCjJMPPnLQvDylrtpPkei1OU9ZV4KqlT716Xqbbp9xVZK4kL/vmHH1oHVE2Y7jf35osq78186/9LQpybwrzzyvPu1H39u6vk/k/6V82eaPf2SZZDm7bzqxP4ro/RYjXXvc1bajI9hyn7/joUq4w/e2CYu/7e3hvzfcOCz70Y8n/f87m2wenrhxXjh4z32SeQ9cc/OgdfYYu3PDNOuMyecmCT0pR6fdduk14YMfWKqhPFnOq8NTyzzvuNMG9eUiem322lTUZ269v3bcrh1OPmRiw/R7Zt0Qbrn4qro3XjgzfHzpZcKZRx7fME3W3e0HOzQsa7390msbyu437XFX+506Rj/euTFnzpz0r0biOzHkk6dSbyuPM5SV3Gg1GdEMaUuRd3zElLXfmr33YyTtNwAA6G30mqJmediLst/ccnfPOOmnB4SVlv9UeGr2XHeeBBsPXTG7Yfozc24LH64F3GPWXNtdT5X1ZRk7fcGNd4YNVl8r7LndDoPmadmnHnjYoHlWKeeIvfapBWHvTJII++04Lkw75sTa9qwQVvjEsuHsw45214u9/OQzkw4yfpvt623SNsh+2Xqzb8SdaJBSz5e/sHLy/1JGvD9+9J2tGvaf3TaZb/eBtEe25arJU9x1ZJsvnHRy7n4Xs/a9Ne+3GOna4672G3QEW+7Cuff2tc/dNC+M23q7pN/NOn1qrV9+P4xZa50wb8bVtb69Sq2PfzLcMPXi5O9dtvpB8v+63vq1vnPKgYcPKjP2slPOShKov77+toZpcmzMPufCcOuFlyeef8xJg6aJd148q6E8Xd+WecdFV4b3v+e9yTbI3yfsf0jYatNv1P9upqz/oQ/8R3jwyjn1afddfl1DW2Ljdnn7QqfVulRHlH0Tt63ftMddbZs7Rr8lN/KQYFget5D65LOurQT/gpfc0C+iyN0MEqTnfS1FPq8qf1vaSUbk0c4LNvNod7/pXRt5bcnb9mbJjU7vNwAA6G30mqJmediLst/eeEfPOGnv/cJKy30qPH3tjYPmPXvdzeHDtYv9vbYd2zD98hMnh8VGLRauPvWshulWKXujNb4yaPrzc24NG3x5jUHlilrnqQccMmierHfLuReGI/f4Sfjy5/8z+WE/ucxHw4n7/nxQ+y+YeFz43PKfSpZZrbbsYT/eK8w585fh9vMuri9z5wWXJokR2f4nrpqTtOlbG2yUlB1vX1Z7dd89OvPaZB35/5vOmdawTrz9D1wyKxwzYd/w8GXXJH/vuMX3BpUp02Sd3bbaJqy18heTsj/+4aXrbRnqvrfm/RYjXXvcJQdjB7Dl/uamu/rWuy+6IknOSZ869YBfJNN+9O0tw5g1v5L8/zOz54YfbL5FeKp2XMr/DxybA8vJ3x//yNLhqtPOqZfnefmJpyfHxs1TLwr//dUNkuVlWm1XFzJJEF5+nVumtEunSbv3/MEPG5bx1s3yzgsuS5IbuvyCX91eOzbWdNskxmXrsrpvWlHXXb92HMbbUzXtcVfbxx2j35MbEphLckHvOJBgeOLEiW19JcMmNyS41vYX1QbjRRIAw8FQ95ve7dFq8kHqlU/T7rjjjrnrj9T9BgAAw0d0vi0Pe1H20vW39IzH7fXTsNInlw+/nnlN2GC11cOErbcbNH/xt70tPHrJFfVpO33rO2Gj1ddsWM5T1vWWW3jtjW5d4oKr5iQB1OT9DqxP0+VruzpRArEt1tsw3DD5nHDnuRfkeuvZ54Wx//3NuCM01Hv5pBPDzWdObWjTfdMuCVMOOmxQ/d6+kX337KzZDdPFeb+cHpZ8xzsbtsMq+zEu84pjT07ad9JPf1avT8r5wLvfE645aXLufrNK2fE2N7NImSNNe9zVtqMj2HJf/NVtfetd518S/mvFz4bTfnZw8vfM409N+sNe22w/aFlxxy2+GzZaY63k/2VZGRseufSqQcvFapni9zb6enjm6l8l01Zabvnk/+Pl7LQs7bLHTti3cHnzps1o+FuVffGh93+gvj0vzL6ldrytUd83sbbsvGWbqet6+/zqk88IB+40btD0ftQed3Isdop+SW7MmzcvCYjF7bffPqy++upJ8Kvlyx0HcufEUNCXV7byKEsecjeEtDHrSyLdoKz9JkmKyZMnh0mTJqVTiiN3nkjd0hbZR5aRsN8AAGDkoeeumuVhL8pevuaGnvG43fcOKy27XHju8mvClUefEBYbNSpce/wp9fnPz7w2fLh2wT9hq22Tv++eMi0JtuNlstzpG1vEP0BLTt5n/4ayHqoFHhcddlTSTmmDJA689bKU9ksZFxxyRFJGXLb4m1nXhw1X/XJ9O2N1H9g2xfsunq7z7L60yv7R+rSOjb68RsM+1m2V5aRMCSbnX3jZoLI8tcwtN9zIbaMo231PrQ5v3kjXHne137kj2HJfvu6mvvU3teD8nqkX1v/e6ZvfDit9stanr7iuPv/Oc86vz79y0okDffCiy8Nxe/6k1l/XrM+z3n/eReGH6WNdn/7YJ8Itp0+pz5N143pEKdtOyzJeVv6/lfFA22/LvPvcC5Lkhs6TbZcxYfK+Bwxa1rY1b1mrbLu04+S990v+1nUnfP8HDcvpdBlHdNl+1h53tX3UMfoluaF3VUhZEhSvvfba4dBDD00eExmpyJ0Rm2yyybC+DJP9BgAA/YJeU9QsD3tR9rtZ1/WMx/94z7Dxal+u/73z5t8Mn1v2k+H5GVc0LCMBwePnX5T8v52fpZQVl62+OPPqsOGXVg17b/n9QfMWXnplEpCf8ZN9B81T7z3r3PCh970/aU883W6LqHXllSc2a9MnPvThMHvSCQ3Ts/aFltVsP8n+kfp0eQlipI64XPn/Wher/33f2VPdsqzS5tVX+lx8AGTqbXMvaI+72rZ0BFvuK1fP6Vt33vxbg/qDVY79xy6YkSz/wuVXJ8fnuG99J/nv6T/92aAyf3vldWHbjb+erPvpj308HDXux2GlWv9dcNlV9WWk3o1XW71hveN3nzBouSxl2Xj9u86a2jBfvPLo4wqXJ95zznnJuKLbKtux4ZdWc7fRlp23bKy0W47zeDldd++ttmlYVuqQfdiszH7RHne1be8Y/ZLcAAAAgGqj1xRycVEa9qLs95fP6hl32Wzz8LVVV6v//duLLw0fqV3g/+S7W9anPXTmlDDjoF/U552510/q87J8ecbMMOaLX2oop8i8InXcP/ms8OH3vS88OfX8hukn1oKoeFtEratZm/PadPXhE5MAr0h9orcPPWXf77nFd5L/1rrRoDZqm76z9rrhA+96d7j+qEkN87OU/fOud7wjbLXe+slvt+4XVh60rrbRa3+vaI+7gaNx6NhyX73imkq4y39/I2y86pfrf7902axa/1s1/OR7WzUsd8Juuyf9VY6JJ867sGGe+uDZU8Mv9zsg+f+rjjw6fG7ZZcMLF1+e/K3l7vnt7yb/lbKyjNeLtW31tPU2874zptTGlffXt0nbecaEfQYtm7VN3rKi7I8dvr5peIskMI85vmGet5+lLXIMN9vGftIed7Xfv2OQ3AAAAIB+QK8p5OKiNOxF2R9mXN4T/u6iGWGj//pi+GktyIinX3Po4clF+K+OPKph+km7jAuf+8Qnwm+nTW+Y7vnShRfXguf3hbP22GvQvKx6xbz11AdOnRzeNfod8Y/b1LzyxLw27brJZu52y/SvfWnVhmli1v6zyvpa330nnzpovpSz+FvfFn59ztTMNsTKNvxo468l2/v9r65XnybbJeXccdyJybRHTj8z2cfS9iK/5UjVHne17e4IttzXLruy771/8plJAm3OxEn1aVcfduRA/zv3vEHLSuD9tS+t1jA9Synnc59YNvzmwkuSv7Wua484Koyp9c2z9tx70DqiXU995ZLLk/V++p3vhcfOnhruPfV010t+fnCy/txjT3Dni3G50i5Jmur2aj21LuEa7xtdNmtbThw3Pqz9uc+H2084edC8eHvk74fPOCdJPHrb3s/a4662jzsGyQ0AAADoB/SaQi4uSsNelP1x+sU94cvnTUuC3LPH794w/dVpF4aNVl4l7POtLZoum+WDJ55cC2DeFW447PBB87zy1SL1SNkffu97w1NnnNUw/eSddg5frwUJ8TStq1m7s9okdb1r9Gh3/V2/vsmg+nT64m9966D2WWU5bx+Iuh90vv07y0dPOS0cv8OPGqbJtu3535snCRdZX7ZH2v3i1PMalus17XGXHo5Dxpb7h4sv7Wt/d+HFYY/NB166K33kwK22DvOOOzHpbz/d4juDlt1olf8Kn1lmmaQffX/drzbM97zmkMPC5z7+ifDb8y5I/t51k02Tv5+fen5S1lm77zloHdGup740bXr4xAc/GK479PBkfWl3OyYJyMMn1st94OTTauPK+8Kvz5rSUF8Rdb9kbUueuu5Pa/v6ip8flOxXb7v7XXvc1X6jjkFyAwAAAPoBvaaQi4vSsBdlr59/QU84++cHJkH4M6dNdufHnrLDjuHzH/tYePmcc9351nEbfy1z+ddqQfVG/7ly2Pcb3xw075UpU8NH3vvecM643QbNUx8+7oQkuWHbLW38ei1IiKdpXXnliV6bdJotU5VtzKova51YWd/bB4+dcFJY89OfHlSG/F617hZO33mXhulFlP0q7ZL1P7P00mHexKPc5XpJe9wlB2MHsOX+6cKLKuM9k44LO47ZKOknEvwftOVW4aVzf5nM+31tn4/72teT6Tccelh46MSTkkB863XWHVRO7HUHHRw+//GPJ+XoOueM/3FSniQU5f+brWeny7j19OlnNky3Zq2fpbRNxpVm5Xo225Y8dV3Z56Lsz6Jt7iftcSfHYqcguQEAAAD9gF5TyMVFadiLsj9PnTri/eM554SNv/CFsMnKKyd/P3TUUZnOO+ywJOFw5o47uvN/d+aZDWU/eswxSQAzZZddGqarUvdO668f9tt880HzXj3rrKSurHVFKf8j73lPeO7kkxumn/rDH9a3R9XtzCtP1OW0TY8fd1xYa4UVkiDK1qPuttFGg+prRVk/3gfShuN/8INk322z1lqD9qs4c8KEpEP/ZNNN3fmxUt5V++wT1ltppWSdFT/ykTBl552T7dK/J22zTfIbeuuPdO1xJ8diJ7DlvnHe+ZXwD+dODcdvt33S/763xhr1/9/3G98Ij59wQtj4P/8zSWzcdPDB9XVmH/DzZBlJZM47cmJDefEyMv/eWj+TY1v+/5Wzz0nqkzKn7Doudz1ZVqfpOpusskrDsp7e+nk+cuxx4cPveW949tTT3Pl5NtsWT1nnqn33SxKZtW4XVlx66XDB7nu4y1ZBe9wNHI2dgeQGAAAA9AN6TSEXF6VhL8r+5+yzR7ynbbddEqjcsv/+Yf7EieFdiy8e76yW3G+zzerl/n7y5LD0e96TJAUWHH98Q515nrD11mH7r3wlbF0LqqTMc3fc0V1ObKe9eeWJfzrzzLDx5z+fbMvMPfdMyve24eaf/Sxp51qf+lShcvMcv+GG9X0n2y91ym9y+He+M2jZWGmf1L38UkuF6ePGJdOu3nvvpF3iqssuW98/Ut7PN9883POLXzSU8cTRR4ed11tv0H6UMpvVP1K0x12t/R3Blvvnc8/tW5OE2rbbhvU++9nk95eE14Xjxw+aLwkM6Us3//znDeuL19eOCW/+o7U+tv066yTJtM9/9KPhviOOCOM32qi+jCYUpd4sZb3fnXFGvcxTx47NbIdV2mXXz1PamyRNTzrJnW99tTZmyPbINm695ppJeyV5GC+j+yB21U9+smEbv7f66uGO2vEZr1dF7XFX2zcdg+QGAAAA9AN6TSEXF6VhL8r+esbkEe2zR08Mu6y7bth2jdXd+UNRyt57443C1B1+6M7P8lc/GbgjQYLrI7f4lruM+tjhh4aPvPvd4YVJx7jzY9+YfGr4xsorh7O3386dr8pyX/vc58LPNvl68vf1e+8V7jvowEHL/eGUk5LkTZF25qn1bfqFzyd/S7kbf24lt05P2Qdx/dqu1Zb9RNhpnbXDVXv8OPz+5BMb1slS2nLtnnuEH2+wflj30ysUXm+4tcfdwNE4dGy5fznrzL52/pFHhDWXXz5M33VXd/4Ve+xe6xefDq+eeoo7X3zyqInh3kMObpj22mmn1o+VGeN3a5gnvn7G6eFrn/98+Nmmmw6aJ541dmzY8surNdR7zYS9MttpPe0HPwij3/rW8Pxxx7rzrb/a56dJ4uSWn+3nzveUOmpdJkkoHvHtbw+ar9soy0jZsty3v/SlcNxWW4a7Djxw0PJV1h53ycHYIUhuAAAAQD+g1xRycVEa9qLsb6eeiIgla4+79HAcMrbcv55+GiKWrD3u0sOxI5DcAAAAgH5Arynk4qI07EXZ3088FhFL1h536eE4ZGy5fzvlBEQsWXvcpYdjRyC5AQAAAP2AXlPIxUVp2IuyN487ChFL1h536eE4ZGy5/zhxEiKWrD3u0sOxI5DcAAAAgH5Arynk4qI07EWZF4ghYme1x116OA4ZW65XNyJ2VnvcpYdjRyC5AQAAAP2AXlPIxUVp2Isy78INETurPe7Sw3HI2HK9uhGxs9rjLj0cOwLJDQAAAOgH9JpCLi5Kw16UeRduiNhZ7XGXHo5Dxpbr1Y2IndUed+nh2BFIbgAAAEA/oNcUcnFRGvaizLtwQ8TOao+79HAcMrZcr25E7Kz2uEsPx45AcgMAAAD6Ab2mkIuL0rAXZd6FGyJ2VnvcpYfjkLHlenUjYme1x116OHYEkhsAAADQD+g1hVxclIa9KHvzpGMRsWTtcZcejkPGlusFYojYWe1xlx6OHYHkBgAAAPQDek0hFxelYS/K3jztJEQsWXvcpYfjkLHlvnnycYhYsva4Sw/HjkByAwAAAPoBvaaQi4vSsBdlb555KiKWrD3u0sNxyNhyvcQKInZWe9ylh2NHILkBAAAA/YBeU8jFRWnYi7I3p5yJiCVrj7v0cBwyttw3zzoNEUvWHnfp4dgRSG4AAABAP6DXFHJxURr2ouyf552DiCVrj7v0cBwytlwvsYKIndUed+nh2BFIbgAAAEA/oNcUcnFRGvai7J8XnoeIJWuPu/RwHDK23H+ePwURS9Yed+nh2BFIbgAAAEA/oNcUcnFRGvai7J+XXIiIJWuPu/RwHDK2XC+xgoid1R536eHYEUhuAAAAQD+g1xRycVEa9qIMEbtvejgOGVuul1hBxM5qj7v0cOwIJDcAAACgH9BrCrm4KA17UYaI3Tc9HIeMVzYidtf0cOwIJDcAAACgH9BrCrm4KI0LRo960Ls4Q8Su+XJ6OA4Zp2xE7LLp4dgRSG4AAABAP6DXFHJxURrnj/73daaNHrXAu0BDxJJdfLE/TXv7qJ3Tw3HIkKxEHHY7lqwUSG4AAABAP6DXFHJxAQDQFJKViMNoh5OVwkhJbiAiIiJ2SIDWGAEXxABQAI5VyGME9A+9EEFERETshACtQcAE0BtwrEIe9A8AAAAAqDRcEAP0BhyrkAf9AwAAAAAqDRfEAL0BxyrkQf8AAAAAgErDBTFAb8CxCnnQPwAAAACg0nBBDNAbcKxCHvQPAAAAAKg0XBAD9AYcq5AH/QMAAAAAKg0XxAC9Accq5EH/AAAAAIBKwwUxQG/AsQp50D8AAAAAoNJwQQzQG3CsQh70DwAAAACoNFwQA/QGHKuQB/0DAAAAACoNF8QAvQHHKuRB/wAAAACASsMFMUBvwLEKedA/AAAAAKDScEEM0BtwrEIe9A8AAAAAqDRcEAP0BhyrkAf9AwAAAAAqDRfEAL0BxyrkQf8AAAAAgErDBTFAb8CxCnnQPwAAAACg0nBBDNAbcKxCHvQPAAAAAKg0XBAD9AYcq5AH/QMAAAAAKg0XxAC9Accq5EH/AAAAAIBKwwUxQG/AsQp50D8AAAAAoNJwQQzQG3CsQh70DwAAAACoNFwQA/QGHKuQB/0DAAAAACoNF8QAvQHHKuRB/wAAAACASsMFMUBvwLEKedA/AAAAAKDScEEM0BtwrEIe9A8AAAAAqDRcEAP0BhyrkAf9AwAAAAAqDRfEAL0BxyrkQf8AAAAAgErDBTFAb8CxCnnQPwAAAACg0nBBDNAbcKxCHvQPAAAAAKg0XBAD9AYcq5AH/QMAAAAAKg0XxAC9Accq5EH/AAAAAIBKwwUxQG/AsQp50D8AAAAAoNJwQQzQG3CsQh70DwAAAACoNFwQA/QGHKuQB/0DAAAAACoNF8QAvQHHKuRB/wAAAACASsMFMUBvwLEKedA/AAAAAKDScEEM0BtwrEIe9A8AAAAAqDRcEAP0BhyrkAf9AwAAAAAqDRfEAL0BxyrkQf8AAAAAgErDBTFAb8CxCnnQPwAAAACg0nBBDNAbcKxCHvQPAAAAAKg0XBAD9AYcq5AH/QMAAAAAKg0XxAC9Accq5EH/AAAAAIBKwwUxQG/AsQp50D8AAAAAoNJwQQzQG3CsQh70DwAAAACoNFwQA/QGHKuQB/0DAAAAACoNF8QAvQHHKuRB/wAAAADI4dzF/22pC0aPOveC0YsF7E/1gtibh4gjR45VzJP+gYiIOLKdtvio6dMWX+wLaagN3Wba6FEzvR8G+0cuiBF7Q45VzJP+gYiI2AuOejANtaHb+D8I9pNcECP2ho8sMSrRm4d42ztHJXrzEBERceSYhtrQbbwfA/tLkhuIiIiIiIjdMQ21odvYH+Lqi3+AfaYmN7x5iIiIiIiI2L42pk5Dbeg29oc49ZJtsM/U5IY3DxEREREREdvXxtRpqA3dxv4Q+87YCvvMu770oURvHiIiIiIiIravjanTUBu6jf0htrr0e4iIiIiIiIhYQBtTp6E2dBv7Q6x5+bcRERERERERsYA2pk5Dbeg29odYZua3EBEREREREbGANqZOQ23oNvaH+P+u+AYiIiIiIiIiFtDG1GmoDd3G/hDvuWZbRERERERERCygjanTUBu6jf0hPjl7HCIiIiIiIiIW0MbUaagN3cb+EF+6YT9ERERERERELKCNqdNQG7qN/SE2vuVIRERERERERCygjanTUBu6jf0hvn/HqYiIiIiIiIhYQBtTp6E2dBv7Q4yfdz4iIiIiIiIiFtDG1GmoDd3G/hAH33clIiIiIiIiIhbQxtRpqA3dxv4QJz10EyIiIiIiIiIW0MbUaagN3cb+ENMeuw8RERERERERC2hj6jTUhm5jf4hrn3wKEREREREREQtoY+o01IZuY3+Iec+8goiIiIiIiIgFtDF1GmpDt7E/xPznXkdERERERETEAtqYOg21odvYH+Lxp36PiIhYOScdf2Y44aQp4YGHF7rzDzvixPDNLbbKnN9NZ//qHledP/eO+Q3Lq48+8XL41c0PuPM8H3z0t2HNtdYNE48+1Z2PiIiIv2+Ip8U01IZuY3+IJ2sXPoiIiFVz++12Cuuvt5E7Tzz7rOlhiSWWDJ/5zErhoQefc5fphjf86u6kHbVTeINvf/vi4c475ofH5v8mrLvuhoPmq7qcV7b18MOOC4sttli45OJr3fmIiIj4ckM8LdbOtzAc2B/i17WLIkRExKq5/Q9+FNZfb0z978cfXtAwX7zlhrvDmmusHWZMv2rQvCxvv/n+MOfa21rypuvvcssSH7n/mfDRj368oQ0Xnnd5krS467aHknZ/dZ0NwnHHnNqwni63oiRn7ntq0Dyr1POhD3447Lbrnu581dtPiIiIVdLG1GmoDd3G/hBPP/QcIiJi5Ry7zQ/DButuWP/7yIOParjjIc8VP/3Z8Mi8xxrKU6Vcb50888qbf/cT4WPLfCxcNm1mfdr0cy9Jkht333xfePL+p8NX114vHD/xxIb1dLm8slUtw2ubVev1ykFERKyCNqaunR9hOLA/xDP3P4WIiFgJf33PE+HROx5O/n/s1tuHDdZZP/n/W666ub7MbdfODdddck39b1HW23SjTcLkY09rmO4Zl1vEIw88Inf5x+56dCC5cd6l9WkXnTM9vP3tbw/33DAvadtXv/LVcMIRxzesJ0rZK66wYn2bs5Q2J4+jTLmoYV+oUocsI3XafYOIiFg1bUydhtrQbewP8dw9jyMiIlbCow44rOEuBPWzK3wmPHbrA+Hpux4N6621bli8FsRff9Gs+nqXnDktCf5nnntxQ3meP9xqu7Dh2uu58zylTXnLP3H7g+FjS380nH7MyeHmy2YnTj3pzKSN911/e73NJx42Kfn/Q/c9KGz5je+ELTb9RrJteWXL8rtst2OynKwvbbHbnrVPEBERq6qNqWvnURgO7A+x4K5HEBERK+cOW24bNvzKVwdNf+b2B8N6a64dPvupT4fHb76n/vfuP9xl0LKeWeVmedT+h+Qu/+Tce8OH/uOD9USMKsmG+6+bW2/fSb84OlleypP5q6z0hbDPrnsk22DLFHU9Wfa4Aw+vT9912x2SRM4V51wY7rxiTlht5S+GTy27XLj+gpkN6yMiIlZVG1PXzqUwHNgf4oXb7kdERKycP/ru1mHMWus0THvyV3ck/33qxrvCtONOS/7/0lPPCYu/7e3hgatuSP5+9pZ76st7euXmecy+B+YuL235+EeWCVeeeV59Wtwmac/6a3wlnHzwEQ3rFfGuy64NZx5x7KDp0qbaJUPiZ5dfob5fEBER8f6GeFpMAm3oPvaH+M0tdyMiIlbOH31nqzBmzbXrf985fWZY8p3vrAf1eZ564GENZcXacps56acH5C7/zJzbwsc/snS4avKU+rTLTz4zSW48dMXssODGO8MGq6+V2ab7L7smPDV7rjvP8+5LZoUvf2Hl+rbKXRz77TiupTIQERH7WRtT186XMBzYH+K3N96BiIhYOXfc4nthozW+4s4biq2WO2nv/XKXv/OCS8OH3v+B8PBl19SnXX7i5LD4296WTHt+zq1hgy+vUU9GeJ56wCENZXrecu6F4cuf/89k+W9tsFG46ZxpSdlH7vGTetJHpp/9iyPD09fe6JaBiIhYBW1MXTtHwnBgf4iXrp+LiIhYOXf61nfCpz/+ibDOf30pTNh6u4Z5C676VfjwB/4jfG/M18Kzs65vmNdMKXej1ddy53ket9c+ucvP++VFSXLjhsnnhDvPvTDxwsOPSZIbj15yZVh47U1hg9VWDz/9wQ+T5WSarivbsfwyH2uYFnvr2eeHsf/9zbDkOwaSF1/+3BfCzWdODVefODns/8Odkv+X5aQOqfNzy30qWU5cbNRi4b8+89mw/WbfqC+HiIhYBW1MLXE2DAP2h3j5mhsQEREr5W1nnBtWX+nztQB9VNjiqxuEW047u2H+cbvvnSQP5l94WcP0Iu70jS3CRl9ew53nKXXlLX/3lGn15EOstu83s64PG6765XDyhH2S/07Yatv6ulcefcKgsnV5LUf2wZYbbhTuqdUTryfTrz3+lIZ1xYfOvyQcNW738LlPLp+sP3mf/Qctg4iI2M/amLp2PoThwP4Qv5s1GxERsRJedPDh4V3veEcSuMt/N15t9fDizGvChl9arR7sF/Vzy34yPD/jykF17Lz5N5Ny7fQsj//xnrnL33vW1PCh970/PH7+xfVpsyYemyQ3ZJq2/4yf7NcwXZaTtsh0XU9deOmsMP5b3wmX/OKIQfNEaVNcjij1zDtjSmK8LCIiYtW0MXXtugCGA/tDvDrzakRExEp43+nnhB032Sy8cNFlYZfNNg8br7raoGVO2G338LlPLJsso9NkvQ+8691h9tHHNSzrmVVullJf3vJXHXH0oPbINEk+PPHLC8JLl14ZxnzxS+GMCT+t/7+UJ23+8PvelywTlxcrddcuDVpS6/XKQ0RErII2pq6dH2E4sD/Ea5degYiIWDl33fS/w9e+tGrDtPtPOyNJYsyZeEzD9BN33S1JMPzmgosbpntqufeeMrmQR4790aB2xHp1X33YkWHxt74t/HrKeeGViy8LY/7ri+GsPSck82Qb3jX6HeHztXV++p3v1dfJ8oHTzmz4W8vz1m1lPyAiIvarNqZOQ23oNvaH+ONFMxARESvnrl/fJHz9i1+q//3qBReF7dbfILk7YY3PfCacP+EnyfQHTzo1vGv06HD2j/eoL5unlCtltGLcDqttp3jtwYeGxd/61vDUmeck7d5olf9qaN/JO+2SlDt53PiG9YooZcu63vZKuZ//+CfCi7+cNmgeIiJiVbQxde28CcOB/SH+dMF0RETEyjnua18PX/+v/3LnXfmzA8KOY8bUkw+f/9jHw0vnTnWXteaV63nyjjtlLv/K1PPCR977vnDObuMbpl934MFJcuPpyWeE3583LWy08sr1ZR464cTwgXe9K5w9bnySlNl67XUKt13LytreVrcNERGxH7UxdRJoQ/exP8Qb552PiIhYOXfbaOOwySqruPPuPeqosN5KK4UVl146nDd+fNhpgw2TJMf31lgjzDtyoruO+Idzp4aN//M/M8v1PGOnncMh3/lueOXscwbNm33Az5MkxrOnnpY5Xeucsuu48MixxyUJDfl/We7xE04Ia3760+Eto0aFbb6ytluHquXIsjcdfHDm/H2/8Y1B8xAREaukjakHIm3oOvaH+POUKYiIiJXwj2efHa7bd99w8Y9/HD7y3veGTVZeOZn++KRJYfyYMWG9z342SWJIgH/mDjuE351+en1dWWan9ddP5m+z1loN88pQ2rrxF75Qb6N4/Lbbhu3XXjustcIKSXLjuRNPrC+3x8YbJ+2XdttyZL2sNsv8mXvtlSRFZLtv/vnPBy0jyjKy7VN22smdj4iIWBVtTC1xNgwD9of4y1lnIiIiVsbxG2yQBPFbfnm18OqppyTTXjvt1LD+iism0+468MBB68ReM2GvMGP8bu68TvvAob8I1+09of73aT/4QdL2VZddNpw1dmwyTdq+9HveE3626ab15Yoo2yHbXLs0SJRtv/eQgxuWkfp0vviFZZap7zNERMSqamPq2jkShgP7Q/z19NMQERGxYr5x2inha59bKWy56qrhvgN/7i7zh5NPDD/eYP1w6Dc2z1wGERGxatqYOg21odvYH+Jvp56IiIiIiIiIiAW0MXUaakO3sT/EP06chIiIiIiIiIgFtDF1GmpDt7E/xJvHHYWIiIiIiIiIBbQxdRpqQ7exP4T3YyEiIiIiIiLiYG1MnYba0G3sD+H9WIiIiIiIiIg4WBtTp6E2dBv7Q3g/FiIiIiIiIiIO1sbUaagN3cb+EN6PhYiIiIiIiIiDtTF1GmpDt7E/hPdjISIiIiIiIuJgbUydhtrQbewP8eYJxyAiIiIiIiJiAW1MnYba0G3sD/HmqScgIiIiIiIiYgFtTJ2G2tBt7A/x5uknIyIiIiIiImIBbUydhtrQbewP8ebZkxERERERERGxgDamTkNt6Db2h3hz6lmIiIiIiIiIWEAbU6ehNnQb+0P88/xzEREREREREbGANqZOQ23oNvaH+Of08xERERERERGxgDamTkNt6Db2h/jnJRciIiIiIiIiYgFtTJ2G2tBt7A+BiIiI2K/e9c5R4ZElRoUr3uHPR0REHKppqA3dxvsxEBEREftRSWy8sOSocDXJDURELMk01IZuc8HoUQ96PwgiIiJiv0lyAxFxQBkLRW8eDsmX01Abus35o/99nWmjRy1wfhTEnpdBGxERY0luICIOyHVyCS6+2J+mvX3UzmmoDQDQOXTQTv8EAICK88ISo26W88KCJf99nXQSAEAl4ToZAKCHYNAGAIAYkhsAAANwnQwA0EMwaAMAQAzJDQCAAbhOBgDoIRi0AQAghuQGAMAAXCcDAPQQDNoAABDzwhL//uBAcmOxL6STAAAqCdfJAAA9BIM2AADEvLDEqAUDyY23fiydBABQSbhOBgDoIRi0AQAghuQGAMAAXCcDAPQQDNoAABBDcgMAYACukwEAeggGbQAAiCG5AQAwANfJAAA9BIM2AADEkNwAABiA62QAgB6CQRsAAGJIbgAADMB1MgBAD8GgDQAAMSQ3AAAG4DoZAKCHYNAGAIAYkhsAAANwnQwA0EMwaAMAQAznBQCAARgPAQB6CAZtAACI4bwAADAA4yEAQA/BoA0AADGcFwAABmA8BADoIRi0AQAghvMCAMAAjIcAAD0EgzYAAMRwXgAAGIDxEACgh2DQBgCAGM4LAAADMB4CAPQQDNoAABDDeQEAYADGQwCAHoJBGwAAYjgvAAAMwHgIANBDMGgDAICyYMl/e1dyXlhi1J/SSQAAlYXrZACAHoJBGwAAlAVLvvVjaXJjQToJAKCycJ0MANBDMGgDAIBCcgMAYBFcJwMA9BAM2gAAoJDcAABYBNfJAAA9BIM2AAAoJDcAABbBdTIAQA/BoA0AAArJDQCARXCdDADQQzBoAwCAQnIDAGARXCcDAPQQDNoAAKCQ3AAAWATXyQAAPQSDNgAAKAve8ZYVSG4AAAzAdTIAQA/BoA0AAMqCJf99nTS5cXM6CQCgsnCdDADQQzBoAwCAQnIDAGARXCcDAPQQDNoAAKCQ3AAAWATXyQAAPQSDNgAAKCQ3AAAWwXUyAEAPwaANAAAKyQ0AgEVwnQwA0EMwaAMAgEJyAwBgEVwnAwD0EAzaAACgkNwAAFgE18kAAD0EgzYAACgkNwAAFsF1MgBAD8GgDQAAyoIl/r/vpeeF6ekkAIDKwnUyAEAPwaANAADKgiUX207OCQuXGHVuOgkAoLJwnQwA0EMwaAMAgEJyAwBgEVwnAwD0EAzaAACgkNwAAFgE18kAAD0EgzYAACgkNwAAFsF1MgBAD8GgDQAACskNAIBFcJ0MANBDMGgDAIBCcgMAYBFcJwMA9BAM2gAAoJDcAABYBNfJAAA9BIM2AAAoC5YYtXOS3Fjy3yenkwCgRM5d/N+WumD0qHMvGL1YwJGnXid783D4nbb4qOnTFl/sC+nhBABVh+QGAAAoLyz57wcPnBf+/eB0EgCUyLTRo2Z6QRuODElu9IKjHkwPJwCoOiQ3AABAIbkB0F38YA0RWzE9nACg6pDcAAAAheQGQHfxAjVEbM30cAKAqkNyAwAAFJIbAN3FBmm73rYhIjbRHjfp4QQAVYfkBgAAKCQ3ALqLDdK8QA4RG7XHTXo4AUDVIbkBAAAKyQ2A7mKDNC+QQ8RG7XGTHk4AUHVIbgAAgEJyA6C72CDNC+QQsVF73KSHEwBUHZIbAACgkNwA6C42SPMCOURs1B436eEEAFWH5AYAACgLl/z3yXJOWLDEqJ3TSQBQIjZI8wI5RGzUHjfp4QQAVYfkBgAAKAuXGHVuktxYcrHt0kkAUCI2SPMCOURs1B436eEEAFWH5AYAACgkNwC6iw3SvEAOERu1x016OAFA1SG5AQAACskNgO5igzQvkEPERu1xkx5OAFB1SG4AAIBCcgOgu9ggzQvkELFRe9ykhxMAVB2SGwAAoJDcAOguNkjzAjlEbNQeN+nhBABVh+QGAAAoJDcAuosN0rxADhEbtcdNejgBQNUhuQEAAArJDYDuYoM0L5BDxEbtcZMeTgBQdUhuAACA8sISo2YmyY0l/r/vpZMAoERskOYFcojYqD1u0sMJAKoOyQ0AAFBeWGLUzUlyY8l/XyedBAAlYoM0L5BDxEbtcZMeTgBQdUhuAACAQnIDoLvYIM0L5BCxUXvcpIcTAFQdkhsAAKCQ3ADoLjZI8wI5RGzUHjfp4QQAVYfkBgAAKCQ3ALqLDdK8QA4RG7XHTXo4AUDVIbkBAAAKyQ2A7mKDNC+QQ8RG7XGTHk4AUHVIbgAAgEJyA6C72CDNC+QQsVF73KSHEwBUHZIbAACgkNwA6C42SPMCOURs1B436eEEAFWH5AYAACgkNwC6iw3SvEAOERu1x016OAFA1SG5AQAAygtLjFowkNx468fSSQBQIjZI8wI5RGzUHjfp4QQAVYfkBgAAKCQ3ALqLDdK8QA4RG7XHTXo4AUDVIbkBAAAKyQ2A7mKDNC+QQ8RG7XGTHk4AUHVIbgAAgEJyA6C72CDNC+QQsVF73KSHEwBUHZIbAACgkNwA6C42SPMCOURs1B436eEEAFWH5AYAACgkNwC6iw3SvEAOERu1x016OAFA1SG5AQAACskNgO5igzQvkEPERu1xkx5OAFB1SG4AAIBCcgOgu9ggzQvkELFRe9ykhxMAVB2SGwAji3MX/7elLhg96lx74kbshje/c7Fw2ztHhYudeYhlOm3xUdOnLb7YF9KhsDLY/eAFcojYqD1u0sMJAKoOyQ2AkcW00aNm2pM2ImI1HPVgOhRWBrsPvEAOERu1x016OAFA1SG5ATCysCdsRMQqmQ6FlcFuvxfIIWKj9rhJDycAqDokNwBGFvaEjYhYJdOhsDLY7fcCOURs1B436eEEAFWH5AbAyMKesF/4n6cQEftWO+alQ2FlsNvvBXKI2Kg9btLDCQCqDskNgJGFPWF7wQAiYr9ox7x0KKwMdvu9QA4RG7XHTXo4AUDVIbkBMLKwJ2wvGEBE7BftmJcOhZXBbr8XyCFio/a4SQ8nAKg6JDcARhb2hO0FA4iI/aId89KhsDLY7fcCOURs1B436eEEAFWH5AbAyMKesL1gABGxX7RjXjoUVga7/V4gh4iN2uMmPZwAoOqQ3AAYWdgTthcMICL2i3bMS4fCymC33wvkELFRe9ykhxMAVB2SGwAjC3vC9oIBRMR+0Y556VBYGez2e4EcIjZqj5v0cAKAqkNyA2BkYU/YXjCAiNgv2jEvHQorg91+L5BDxEbtcZMeTgBQdUhuAIws7AnbCwYQEftFO+alQ2FlsNvvBXKI2Kg9btLDCQCqDskNgJGFPWF7wQAiYr9ox7x0KKwMdvu9QA4RG7XHTXo4AUDVIbkBMLKwJ2wvGMD+9tI508Oyy38inHzu8e78oh5/5tFhhRWXD2dOP82dn+cdj908aNqzf3oiPPm7hxumHXPaEWG1Nb8ULr/hoobp7fqj8dsnbf7VPde487H/tGNeOhRWBrv9XiCHiI3a4yY9nACg6pDcABhZ2BO2Fwxgb7r7vruFK2+5dND0uQ//quFvSW4svvjbwwML5tWn3fXE3JYDfkkUfPYLKw5KSDTzqd8/Gj609IfkvDDIOOGiy43ZZP2G9YeitLmT5eHI1455tX5WKez2e4EcIjZqj5v0cOpPzl3835a6YPSoc+1GI+JgNbnhzUPERqctPmr6tMUX+0J6uikFW6cXDGDvKXc9jJuwU1jsLYsld1To9Nvn3xSWfNeSYY/9xten2eSGrLv+xl9tekfDvU/fUU9kaOIh6+6PeFmrrPvxZT/WkIjRNsTlyV0btS7rKtvpJXKaSXKjetoxr9Z/KoXdfi+QQ8RG7XGTHk79ybTRo2baDUZE39veOSrRm4eInqMeTE83pWDr84IB7F01IWCTGXEywCY3ZB17J4c1726LLLMSH0WSG15SRhzq3RwkN6qnHfNqfbNS2O33AjlEbNQeN+nh1J/YjUVEROyk6emmFGxdXjCAve15M88JBxy+b8O0+BGSOLkh/1/rFpmJCNW7syLLZss2S27o/0t7p199XsNyRRIxeXeNkNyonnbMGxgJq4Pdfi+QQ8RG7XGTHk79id1YRETETpqebkrB1uUFA9h/xu/UsMkNmwjx1ISDPPIi7/DI86b7Z7ed3JDy5b/aPklGtJKIaecOk9h2H3fBkasd82q/c6Ww2+8FcojYqD1u0sOpP7Eb6w2kiIiIRbXnlfR0Uwq2Lq892FtK0P+dbbbIvFvB3skQJzeylrFq8qHWhQqbl9zISkDonRv6NRWtV77uIo+pNLvrQsvOqjvvzg15FOZDH/lg7l0h2HvaMa/WzyqF3X4vkBtp3v27G8Ir/7swHP/I3m3Nt57x+MHhX//v/8KVC6a489v1/KeODbe+fHXY+65vuvOl3r/93187Uu8ed24WXv/Ha+HxP97rzi/i1S+cl+yHyY8d6M63yv69/jcXhwdfu92dH/vj278Wnn3jsWRbvf1x5IO7dmxfdEN73KSHU39iN9YbSBEREYtqzyvp6aYUbF1ee7C3lMdQJPCXF4LawLyVpERe4kDLybtrQm1lWUm0NPviiiwj21fkrgqSG2i1Y16tr1cKu/1eIDfcSmB876s31YPi+169OTzzxqP1+fL3na/Mri+74M9PNsxvpiQZ3vzXP8IB92zdMK0IWq+ntEvK9ZIs2s5mZRRVkhv/8+br4bLnznDnF1G2+bW/vVzfz1N/fVRS3sXPnBLm//GexN/+5dnwj3/9PWm3JEIkiSTTmyVEJHkh62VtqyY3iiZWhlt73KSHU39iN9YbSBEREYtqzyvp6aYUbF1ee7D31Bdw2gRA0USDBP325Z2xWk4nHkuJzUtuSJ2HHPPzJPHyzS03T8qU7dv3F3tnJkNIbqDVjnkDI2F1sNvvBXLDrSYCNDCOkxtyt0GcQGgnyLdBvU6zCY9YbVNWPbbNVm23JA5aCepPe+zn4ZE/3DUoYZK13doOu32edj9ImZLMePr1R5I6pWwpq5XEkarbq/tTypbj75JnT03+luTGX/75Rub+Hmna4yY9nPoTu7F2EEVERGxFe15JTzelYOvy2oO9qbxXY72N1m0Izjud3Kh1ocJm1XnFzTPCf397k3Dm9NPc5IbUpXejSDIj/rSt/L9OlySHJFN0nkhyA612zKv1zUpht98L5EaCmmyQoF6TGzLNJgaaJSU8bVCv04aS3MhLsuhdDDpP6ir6OEjWss2SG0XuDvH2g9XeNVNErw32Tg2SGyMYu7HeQIqIiFhUe15JTzelYOvy2oP9Y9E7LoomN4rcjdFsWUkivP8/3p/cYRInN6Qdc+6+Okle1Lpq5ntEJImjiRabqNDkRtb2anLDmydfZiG50X/aMS8ZCCuE3X4vkBtuJz28R4MaYMfTJj44LllW5nmB/CH3/bC+jCgBtwbxcVCv09tJbmiCIQupY/97vp8sY9uo77to9s6JrCRAu8mNeL/ofpD9KftA5sX7WPT2vRrv31hvX+q0k+f/LFlXHoGR7dK/1bxEy3Bqj5v0cOpP7MZ6AykiImJR7XklPd2Ugq3Law/2thLgH3nSocn/t3LHRV5yQ5MG3npZ5iU3NIkgyY14HWnDJbMvqD+OkqW8EHX2nbMGJT/aaWesfdEq9r52zKv9zpXCbr8XyA2nEgQXQQLlMx4/pP4+CI/4rgQJ0rOQ4F3vrmhGVtLAu8PhsAd2Ci/99flkuhe0ywtIpc4//v3V+uMa1k4mN3Sex4I/P5E5Lwvvrg9tl52Xt/9j7D4cKdrjJj2c+hO7sd5AioiIWFR7XklPN6Vg6/Lag73tMacdUQ/Si95x0ezOjSybfWXF0yY3vHdu5L2LI28ej6Wg1Y556VBYGez2e4HcSDEOxu1dDjrPBsNyR0SzAFnvWIiDby+JIMtJvVmJB1UCevlyyS0vXVn77x+SdsqdCZK4kLbc8NtLk22wSIJG3qnx0Gt3JH97SZBO37kR6+0Hq5e0yVP2vxCX67U1a7tGqva4SQ+n/sRurDeQIiIiFtWeV9LTTSnYurz2YO+qyQxNVJSZ3JBEwmprreomC6Re/ZyrleQGdlM75qVDYWWw2+8FciNFCawlAfDU6w8nSQNJFsinTyVoloSBffRB12kW2LeS3PDqsGp5Jz26T1KGJCzy7tiIlWSEPI5x1hOHusv2UnJDyhPkaypxufbloiLJjRGM3VhvIEVERCyqPa+kp5tSsHV57cHeVQL/+NGKTiQ3JOiX92DIfEkefHzZjyXvw5B5Ul+tWw1aN757JJ4u5iU3pL3y/yQ3sFPaMW9gJKwOdvu9QG64lQD97t/dUH+RpgbY+piHPMYhLxqVv+WTsfolEQ3sbcBv9YJ6TWTE74CQx0bsNNG+y0PrbCdgl3UkaZPVZi3TtkG2WZIbcpeInd6J5Ia8f0Om677XJIzOs+/b0O2QZeNyNQljEyQkN0YwdmO9gRRxOJULtDXXXd298GtVudD82uYbJS9n88qTuuTFcPHb7LP0/hVPL2TjaXJRvNqaXwqX33BRw/R2lYvZFVZcPvzqnmvc+YjDrT2vpKebUrB1ee3B3lQTGXGiQafVfvqmZiU3ZAzVZIKXPJAxW9aPp+lyXhLCS2489tID4fATDml6R4dIcgNb0Y55tb5aKez2e4HccKoJDElsaMAf3z0gwbJ8pjQOnHU5+VseD2n2FRINviURIJ89leVlWlHiuxAkAaKBfBywSwJA2xcjy+5793fDhU+fUFt3UtMgX9r16t9eHORrf3slLdGnleSG7IdbX7462ffyiIwkKQTZ57rv9XETJU5WaIJH90uc3JB58vlbTUCpJDdGMHZjvYEUcTiVN8nLrcLyqTx5G723TFHlYk//xS5rvr713puv6gVn7RAapHdBnHXx2Y55F7OII0F7XqkdF6Vh6/Lag72pBP32bglNbmQF+6qMk944L2XG5xIveSB1HHv6UfX5hx57UJJ40POHHX9tcqPWLROXXf4T9UT6UJMbfC0FVTvmJQNhhbDb7wVyw6kEvRK8a8JCkw5ZwXqc+JBl7eMPnlqmoI+5xAF5vJydFqtBvYckZ6Y8eWRDskXLk+SG3l3RbpBvEzvtqAkLaevNL16RtEU+1xq/YyTev3nTYu1+876qkrfdkhiy04Zbe9ykh1N/YjfWG0gRh1u9oB1qgsPeWiwXjutttG44c/ppyd9F/6VL1pNbmeO2eBfd+i+Anu1uC8kNHOna80qtv5eGrctrD/aeGtTbBMVQkhteclvrySpP19H5mryIy5BlJCm+0n9+Npknd9bpOUWNkx6ezZIb3jpFzHqUBntXO+bVfudKYbffC+SGU0kYxMGwBNJxoBw/HiFKIK0JjWYvE9U7EwR9tEXnybqtJjesNmC3d5LY5IYkJpolN7LqbpbckG2TR1nsdEkcXP+bi+t3Z8Tbp8mN+M6XoSY35P9bRR9H8soeLu1xkx5O/YndWG8gReyG3r88xd50/+zkojbrX6lU7wJR1Iti76JUkwydTG54F9KiXqy2m6AguYEjXXteSU83pWDr8tqDvaeMc15gPpTkhiSbbRJBx2N554Z8ijU+l8idD3LXoG3H7vvuVv87Tj7I44dZjws2u3MjKwmh5TfbXk97fsP+0I55AyNhdbDb7wVyw6kEzs2I787QIF/Wywr2JSHy6B/mJetKUkOCe5u08AJ2L+GRp5fcyHospUhyQ+ZJEsK7a6VZckO2x2u7TJfkgTyGEj9SI/M0uSF3bkgCSabH+0WTSt6+ii2SFMrb7pGoPW7Sw6k/sRvrDaSIZdvsX7Va0V7QxnXYC0idphe1ehuvvci1F6TNkhv6/3IxK2XGy9m7RzzzPkdIcgNHuva8UjsuS8PW5bUHe08JzMfu+oNB0/OSG/II449+PDZstf13cx8/tMojH7J8rTsNUhIWzZIDUm+zdyB5iRX1vJnnJPWUkdzYdsfv836mPtOOebV+Wins9nuB3EjRBtH6GIgN9vXxirxHUuSuDX3cwgbfWq68xFT+m0de0B4H7HKHhNw9MZQ7NzTZ4N3F0Cy5kXUXS3xnjN0PUp/e0SHI+vob2DswSG70MXZjvYEUsdtK0qHZYxsS5GddLFr1AtEuL2XUDoOm2mRCXnJDLpTlv5rAiP8FUpM4eReq2lbbhqJ24t0kiEPRnldq/bI0bF1ee7B/1HHWS1zIPHlhtCQK9v3F3oXODYi9ph3z0qGwMtjt9wK5kaAX2EvQ7CUwNCjPC7hjvaBe6pLPsWrSwa4j5gXtksiQz9PGXP3CL0dcciM2az/E9Xl3aXDnBskNxK6rAX7Wv7w1m2/Vd1/EyQ0tI040tPJYSlYCQu/c0K+p6MW4vFxO/nWw2V0XXrti8+7cKNp+xDK155XacVEati6vPYiI/aId89KhsDLY7fcCueFW7i6QuygEfYRCkgcSzNu7NvSuC3ncRBIc8oLQeL6nDb4lWLdJB7uOaNezj53Ii1Al+SJJEm++YOshuUFyY8RhN9YbSBGHw7zHN4rc2aHq3RJyq3Kc3PDKbyc5IOU3u4NElpHERpE2k9zAXteeVwbONuVg6/Lag4jYL9oxLx0KK4Pdfi+QG0lKUkNfAqqJDg2aJbEhgba+gFIC5iIJjjj41nUkSaCJkqLJDVG+iKKPediAXRIQWXduyDaR3CC5MSKxG+sNpIjDoQb5XiBf9JEUCfb1bok4CZFVdqeTG3LXxiHH/DxJrnxzy82TOzgkwZF3yzTJDex17Xll4GxTDrYurz2IiP2iHfPSobAy2O33ArmRoiQb9MseT/7pwfr/y90b8g4NSUTYL2tIYC3LSHAtiZG4vHgZnS8JAg3E20luxBZNbsTrF01uSNvkhZ6qtl3ucLnw6RMGKcmTdpIbsu+KQHKjj7Eb6w2kiMOl3F1h73bQhEVW8K/q4yDx+y40CSHzzrnk9EEvWiuaHLji5hnhv7+9SfK5Py+5IeXLS+L0bg15D4fO05fXaZJDXliq80SSG9jr2vNKeropBVuX1x5ExH7RjnnpUFgZ7PZ7gdxwqgmN3/7l2SSIlsdN9EWg8XwJwm1iQ5Xg2psvAfX8P94TXvrr80nwLQmCB35/a30ZTW7k0U5yQx5TkYSDvJND1z/tsZ8nbbnrd3Nykxs22SDbJI+/WJ9+/ZGkPFW2MSsBIYmhm168vL4f4uRG1p0isc3u3JC7Rkhu9DB2Y72BFHG41ARFnDwoeteG1SYh9J0YsXnJAfmCif6/LKef2IvLlUTFnLuvTpIXtcMr+byg1055u75slyxjExWa3JAkSPzFFlWTG948/doLyQ0cTu15JTnZlISty2sPImK/aMe8dCisDHb7vUBuuJXA95X/XdiQ1IiVT5i++NcFucGzBPD2zg19lOP1f/whXPj0iQ3zRE1ueJ9eFWc9f25yB0lWvZJUkXbb5IYkCyTgj+uN23LlgikN5XRCSUBkJRiy9kPR5Ibsh/jxIGvR5EaRukaK9rhJD6f+xG6sN5AiDqeSPKh11SSgl7sh5P+b3bXhGSchtMxWjO8giZMgtix5yeklsy+oP46SpdxRIp+ctckPTW546xQx6z0liN3Snldq/bI0bF1eexAR+0U75qVDYWWw2+8FcojYqD1u0sOpP7Eb6w2kiMOtfu1EbOeuDTFObnjzxaKPddjkhlduXn1583gsBXtde15JTjYlYevy2oOI2C/aMS8dCiuD3X4vkEPERu1xkx5O/YndWG8gRRxuJeBfba1Vk7sn2rlrQyS5gdgd7XklPd2Ugq3Law8iYr9ox7x0KKwMdvu9QA4RG7XHTXo49Sd2Y72BFHE4lfduSEAviY2V/vOzg17QWdRuJTekvfL/JDewqtrzSnq6KQVbl9ceRMR+0Y556VBYGez2e4EcIjZqj5v0cOpP7MZ6AynicCkv3tQ7NuR9F5I4GDdhJzkok0+r2q+d5Fl2cuOxlx4Ih59wSGbSI5bkBvaz9rwycLYpB1uX1x5ExH7RjnnpUFgZ7PZ7gRwiNmqPm/Rw6k/sxnoDKWK3lSSGJArkqyOSBLBJDPkqiCY9sr5IYi0zuVE7lBKXXf4TyV0lUsdQkxt8LQV7VXteSU42JWHr8tqDiNgv2jEvHQorg91+L5BDxEbtcZMeTv2J3VhvIEXslnFSQxIXBxy+r7ucGC9b68phtTW/FM6cflpm8qLTyQ35FKw8JiN1r7Di8knd8TJx0sOzWXLDW6eIfC0Fh1t7Xqn1y9KwdXntQUTsF+2Ylw6FlcFuvxfIIWKj9rhJD6f+xG6sN5Ailq0+flLrkomtPHJikxxZ7+OQL650IrkRJx8koZLVzmZ3bmQlIZo9lpKnJl30k7WIw6E9r9SOldKwdXntQUTsF+2Ylw6FlcFuvxfIIWKj9rhJD6f+xG6sN5AidkNJPrT6Ho1YSXLIoxnePLFocqNIckCSMc3amVffeTPPSRIjZSQ3tt3x+23vQ8ROaM8r6emmFGxdXnsQEftFO+alQ2FlsNvvBXKI2Kg9btLDqT+xG+sNpIiIiEW155X0dFMKti6vPYiI/aId89KhsDLY7fcCOURs1B436eHUn9iN9QZSRETEotrzSnq6KQVbl9ceRMR+0Y556VBYGez2e4EcIjZqj5v0cOpP7MZ6AykiImJR7XklPd2Ugq3Law8iYr9ox7x0KKwMdvu9QA4RG7XHTXo49Sd2Y72BFBERsaj2vJKebkrB1uW1BxGxX7RjXjoUVga7/V4gh4iN2uMmPZz6E7ux3kCKiIhYVHteSU83pWDr8tqDiNgv2jEvHQorg91+L5BDxEbtcZMeTv2J3VhvIEVERCyqPa+kp5tSsHV57UFE7BftmJcOhZXBbr8XyCFio/a4SQ+n/sRurDeQIiIiFtWeV9LTTSnYurz2ICL2i3bMS4fCymC33wvkELFRe9ykh1N/YjfWG0gRERGLas8r6emmFGxdXnsQEftFO+alQ2FlsNvvBXKI2Kg9btLDqT+xG+sNpIiIiEW155X0dFMKti6vPYiI/aId89KhsDLY7fcCOURs1B436eHUn9iN9QZSRETEotrzSnq6KQVbl9ceRMR+0Y556VBYGez2e4EcIjZqj5v0cOpP7MZ6AykiImJR7XklPd2Ugq3Law8iYr9ox7x0KKwMdvu9QA4RG7XHTXo49Sd2Y72BFBERsaj2vJKebkrB1uW1BxGxX7RjXjoUVga7/V4gh4iN2uMmPZz6E7ux3kBa1KefvSPcMPbbDeUhtuOc728WHr9rltvPEHFka4/n9HRTCrYurz2IiP2iHfPSobAy2O33AjlEbNQeN+nh1J/YjfUG0qLO3mJMQ1mIQ/GKVVdy+xkijmztsZyebkrB1uW1BxGxX7RjXjoUVga7/V4gh4iN2uMmPZz6E7ux3kBaVFsW4lD1+llZcucR9qPDcReUbUN6uikFW5fXHkTEftGOeelQWBns9nuBHCI2ao+b9HDqT+zGegNpUW1ZiEPV62dlyZ1H2K92+y4oW396uikFW5fXHkTEftGOeelQWBns9nuBHCI2ao+b9HDqT+zGegNpUW1Z4cIdEVvS9iGvn5WlrRuxn/T6fFnautPTTSnYurz2ICL2i3bMS4fCymC33wvkELFRe9ykh1N/YjfWG0iLasvyglfEPG0f8vpZWdq6EftJr8+Xpa07Pd2Ugq3La08ReSwNEUeKeY8T2mXTobAy2O33AjlEbNQeN+nh1J/YjfUG0qLasrzgFTFP24e8flaWtm5vcEDsFW1/9vp8Wdq609NNKdi6vPYUkcfSEHEkmfU4oV0uHQorg91+7/yHiI3a4yY9nPoTu7HeQFpUW5YXvCLmafuQ18/K0tbtDQ6IvaLtz16fL0tbd3q6KQVbl9eeItpyEBGH2yJjVToUVga7/d75DxEbtcdNejj1J3ZjvYG0qLYsL3hFzNP2Ia+flaWt2xscEHtF25+9Pl+Wtu70dFMKti6vPUW05SAiDrdFxqp0KKwMdvu98x8iNmqPm/Rw6k/sxnoDaVFtWV7wipin7UNePytLW7c3OCD2irY/e32+LG3d6emmFGxdXnuKaMuZdfEPEBG7qh2HioxV6VBYGez2e+c/RGzUHjfp4dSf2I31BtKi2rK84BUxT9uHvH5WlrZub3BA7BVtf/b6fFnautPTTSnYurz2FNGWc9Il2yAidlU7DhUZq9KhsDLY7ffOf4jYqD1u0sOpP7Eb6w2kRbVlecErYp62D3n9rCxt3d7ggNgr2v7s9fmytHWnp5tSsHV57SmiLWfCpVshInZVOw4VGavSobAy2O33zn+I2Kg9btLDqT+xG+sNpEW1ZXnBK2Ketg95/awsbd3e4IDYK9r+7PX5srR1p6ebUrB1ee0poi1ni8u+i4jYVe04VGSsSofCymC33zv/IWKj9rhJD6f+xG6sN5AW1ZblBa+Iedo+5PWzsrR1e4MDYq9o+7PX58vS1p2ebkrB1uW1p4i2nC9evgUiYle141CRsSodCiuD3X7v/IeIjdrjJj2c+hO7sd5AWlRblhe8IuZp+5DXz8rS1u0NDoi9ou3PXp8vS1t3eropBVuX154i2nI+MPObiIhd1Y5DRcaqdCisDHb7vfMfIjZqj5v0cOpP7MZ6A2lRbVle8IqYp+1DXj8rS1u3Nzgg9oq2P3t9vixt3enpphRsXV57imjLecusbyMidlU7DhUZq9KhsDLY7ffOf4jYqD1u0sOpP7Eb6w2kRbVlecErYp62D3n9rCxt3d7ggNgr2v7s9fmytHWnp5tSsHV57SmiLeeD1/wQEbGr2nGoyFiVDoWVwW6/d/5DxEbtcZMeTv2J3VhvIC2qLcsLXhHztH3I62dlaev2BgfEXtH2Z6/Pl6WtOz3dlIKty2tPEW05K16/JyJiV7XjUJGxKh0KK4Pdfu/8h4iN2uMmPZz6E7ux3kBaVFuWF7wi5mn7kNfPytLW7Q0OiL2i7c9eny9LW3d6uikFW5fXniLacr5y00GIiF3VjkNFxqp0KKwMdvu98x8iNmqPm/Rw6k/sxnoDaVFtWV7wipin7UNePytLW7c3OCD2irY/e32+LG3d6emmFGxdXnuKaMv5xq3HISJ2VTsOFRmr0qGwMtjt985/iNioPW7Sw6k/sRvrDaRFtWV5wStinrYPef2sLG3d3uCA2Cva/uz1+bK0daenm1KwdXntKaIt54d3no2I2FXtOFRkrEqHwspgt987/yFio/a4SQ+n/sRurDeQFtWW5QWviHnaPuT1s7K0dXuDA2KvaPuz1+fL0tadnm5KwdbltaeItpyf3nMJImJXteNQkbEqHQorg91+7/yHiI3a4yY9nPoTu7HeQFpUW5YXvCLmafuQ18/K0tbtDQ6IvaLtz16fL0tbd3q6KQVbl9eeItpyjnpgNiJiV7XjUJGxKh0KK4Pdfu/8h4iN2uMmPZz6E7ux3kBaVFuWF7wi5mn7kNfPytLW7Q0OiL2i7c9eny9LW3d6uikFW5fXniLacs5+9E5ExK5qx6EiY1U6FFYGu/3e+Q8RG7XHTXo49Sd2Y72BtKi2LC94HfFed1gI//ePEP7fv0KYe4q/jPr8PcWWG4qPzAoJz97uz+8zbR/y+llZ2rq9wQGxV7T92evzZWnrTk83pWDr8tpTRFvOzCceQ0TsqnYcKjJWpUNhZbDb753/ELFRe9ykh1N/YjfWG0iLasvygtcRryY3hP/5fQiX7uEvJ5Lc6Li2D3n9rCxt3d7ggM29+oXzki575yuz3fnNHOr6OKDtz16fL0tbd3q6KQVbl9eeItpybn36N4iIXdWOQ0XGqnQorAx2+73zHyI2ao+b9HDqT+zGegNpUW1ZXvA64o2TG0JeUoHkRse1fcjrZ2Vp6/YGB2wuyY2Roe3PXp8vS1t3eropBVuX154i2nLmL3gDEbGr2nGoyFiVDoWVwW6/d/5DxEbtcZMeTv2J3VhvIC2qLcsLXke8mtz439ebP55CcqPj2j7k9bOytHV7gwNir2j7s9fny9LWnZ5uSsHW5bWniLacx575AyJiV7XjUJGxKh0KK4PdfkRs3fRw6k/sxnoDaVFtWV7wOuLV5MarTy9KLGQ9npKX3Lj2kBD+9JuB9ZU3Xg7hhkmDlxUv2jWEBXctumvkr38cKDcvuXHnlBBef3FgviAJmYdmDl6uh7R9yOtnZWnr9gJGxF7R9mevz5elrTs93ZSCrctrTxFtOU88+Upb/uqGe8ISSywZFltssXDxJde5y6jbbb9zoeWaee7US8OECQe487rpSGlHpz3s8OOlD4dxu+3tzkfslHYcKjJWDYyE1cFuPyK2bno49Sd2Y72BtKi2LC94HfHGyQ1JOLy2YCBx4CUXspIbmpDIwpYV12P58+8G/mvXyatD2h4v20PaPuT1s7K0dXsB43B536s3Jz/tZc+dEc5/6tjwj3/9Pfn7X//v/8KtL18d9r7rm4OWf/Nf/wgH37d9WPDnJ5Nl5e/jH9m7vsxhD+wUfvuXZ5N5yiv/u7BhGbHZYyJnPH5wMv+ZNx5N/s5aXtr92t9eSeYJ0vbH/3jvoLbn1Ve0zT++/WvJdksdZz1xaLj7dzekS4fwx7+/Gi559tSG5dWpvz4qvPTX59MlQ3j9H38IVy6YMmi5Ivt3uLX92evzZWnrTk83pWDr8tpTRFvOrx/7bVveeP2dSXKj1rSw4mdWCg/d/7S7nLj9D3ZMkhszLrranV/EC8+/PKlr/fU2cud3y5HSjjI84tBJybbttute7nzETmnHoSJjVa1vVooLRo960O4DxJHsC0uOSvTmDZMvp4dTf2I32BtIi2rL8oLXEW+c3Ij/9pIYXnJDlxdemr/ojg+9M0Ow62iiQu7W0Ds75M6POOERJze0Dln+5hMXTY/XeeCSRdN7SNuHvH5WlrZuL2AcLjW5Mf+PtT7n8NrfXm5IEmjw/dTrD6dLNC6jCYQs4sTCkQ/umiRTbB1qnHiRv73kRF59ttys5EYrbdbkRhaS9Jj82IGFy9fEjdps/44EbX/2+nxZ2rrT000p2Lq89hTRlvP0wwva8uZrbw1LpskNcfzOu7vLiWO32SFJblx2wRXu/CJOnzojqWeDr27ozu+WI6UdiL2sHYeKjFW1465SnD/639eZNnrUArsfWnEEBpvYx46o/rb4Yn+a9vZRO6eHU39iN9obSItqy/KC1xGvTW6IWY+neMkNmSZ4d3qIWpaWf8n4EP7+Zz95knXnSN7jMFpesy+9jFBtH/L6WVnaur2AcbjUBIIggbYG0XKngd7FEQf3urwXxGuyQojvnJCEgN7hEK8X3wVhy9rjzs3C/7z5ehLoH3DP1sk0m5zQZWT9+I4JuQtDExCaGPHWF9tts07Xuy/iOuOEhZYvd3WcPP9n9elZbczbvyNF25+9Pl+Wtu70dFMKti6vPUW05TzzwNNtectVNyfJjWU/9onkv0ny4rzL3GXHbj02d34RL5oyfSCpsO4G7vxuOVLagdjL2nGoyFiVDITQEhpspn8ClAr9rcvYQdIbSItqy/KC1xGvl9wommTQ5bISD6ImH/7vzRCu2HdRfVnJCE2GaL15j7DEaPm2vBGu7UNePytLW7cXMA6XGkx7dwfoYyHxPF3e3nEQz7N3RqiaXIjX9RIOotYdT89KbsQJkDy9ulptc5zcyGpzvH1SflaiQttfdP+OFG1/9vp8Wdq609NNKdi6vPYU0Zbz3D2Pt+XcK+aEJd+5RNhw7fXCUQcclgT8n13hM+GxWx8YtOwPt9ouSW7MPPfihulP3/VoOHTfg2rrrZisL8py3/jaZg3lyPo6X5V6df7Uk84cVMa3N/um25Ysi5SR1w6Zt/jb3x7uuuaWsN5a6ybz5O/rL5pVX/+C084Nq63ypfq6khg69uCJ9fmxRfeNqO068bBJye+idcjyP9v9J/XyDtp7/+Q3k3mf+uTyg34P/R13/9G4+jqyLVLOpWdfEHbZbsdkvq5/+jEnN6yv69jlpB5bNlZbOw4VGatq/QdahGATugn9rcvYQdIbSItqy/KC1xGvl9yIp8eJC5vcsImLeH3VLnPraUmQNKg+VedrckPXbwbJjZa1dXsB43CpwXR894CqgXycPMhKBuTdhaF6yQjv0ZSssmxywt5F8eSfHsx854WYtX4rbY7rtPvMbku8bB5F9u9I0vZnr8+Xpa07Pd2Ugq3La08RbTkL7nqkLW+97LqB5MZXvhqeuf3BsN6aaw8Erz/cZdCyO2y5bRIgX3HOhfVp8Tqekhi4/7q59fXtfKlX5h21/yGD5qmf/dSnw+M331OvM8uiZeS1Q+ZJm/97w6/V58Xr5tWhZait7BtR27Xl5lsMWlY87sDD3bbb30TbqL9hs3bY9Z+ce29YbeUvust9e5PNk//3+gdWTzsOFRmrav0HWoRgE7oJ/a3L2EHSG0iLasvygtcRb1ZyQ7SPpwxncqNHkxfNtH3I62dlaev2AsbhMu/OAi/4z0qGFLmLwlvGq8NLeIjenRfxYyUx8jLQ+DEQb/122pyXELHt1nWb4SU3vGTTSNH2Z6/Pl6WtOz3dlIKty2tPEQeVc/sDbXn7jKuS5MaYtdZt+FsC2SvPPK9h2R99b+tB04/Z76Ak2P3s8iuEX50/oz79rsuvCx/6j6WSeScffGR9+qWnTUmmaX3iUzfNS5aVss888tj6dClj/TW+MqgMz1bL8NohyjbKdG/7dd+ssOwnw+ypF9WnZ9XR6r7RusXxP/hhePKGOxvKEePti+vdY+xO9XJ0eZ327Nx768vJ+sf//NBB68f7QdeX7dR2x8vGZWO1HTQOFRirav0HWoRgE7oJ/a3L2EHSG0iLasvygtcRb15ywz6e0s5jKfYxFPu3Xd4+lqLJjbw6eljbh7x+Vpa2bi9gHC6HO7kh2kdQvCRG3nRp5/W/uTjEX0xR4mWHK7mRV76V5Ea+tu70dFMKti6vPUW05fzmlrvb8s7pM2sB+zvDmDXXrk+b9NMDkgB2peU/FZ6aPbc+/Uff2SoJjq+aPCX5e8GNd4YNVl+rYVqslrPndjvUp11+8pnJtLi+Z+bcFj5cC/YXf9vbw0NXzK5Pb8VWy/DaIco2etN1Xta2av26z9rZN1l1a9ky79QDD2uY522HLVvbYusT7fpal9fuuB22HKymdhwqMlbV+g+0CMEmdBP6W5exg6Q3kBbVluUFryPevORGPF+SC395bXCSQRIegiYjrPaFonkJEZtM0elah9fGZsmSEa7tQ14/K0tbtxcwDpd5wbQXnGctnxf0q1l3ZGg9Mn3fu7+bWU5WciNW2iEvQ9XPusZtt+u30+Z2kht55VtJbuRr605PN6Vg6/LaU0Rbzm9vvKMt77zg0iS5sdEaX6lPe37OrWGDL6+RBLF7bTu2Pn3HLb4XFhu1WLj61LPq02IfuGRWuOz4U8ORe/wkrP3FVZP1bRmXnzg5mZZVn5T/rQ02Cmf/4sj6/CK2WobXDlG20bZZjMvPc/G3vS08fNk1DeuKRfZNVt3PXndz+PAH/sMt2/v9Ju29X0M5cdtPPeCQ+nKirr/Scp8KT197o1tebFYbsZracajIWFXrP9AiBJvQTehvXcYOkt5AWlRblhe8jnibJTdETVAINimh6wtZn4IV4k+1anlS1n3TFy2vSQwhTm7ooyqClKl1yKdgX39xYHpWcmWEa/uQ18/K0tbtBYzDpQbT3gss814o6gXfOi8r+aDJBa8uWVeSAFcsONtNgIhFkhuql5jx1m+1za0kN2Ra3v7NW57khq+tOz3dlIKty2tPEW05L11/S1vO++X0sOQ7asHs6mu60yVRcM1Jk5NpO33rOw1/qyf99GfJsrXNc52w9Xb1Za849uRkWlZ9dt0vf+7z4YbJ5zQsm2UrZWS1Q7ZRpk/e78CG6QuumpMkGOJyPSUB8eglV9TXa2XfNKvbli16v99xe/20oeyF194YNlhtdfe30/VX+uTy4dlZszP3i2rLxmprx6EiY1Wt/0CLEGxCN6G/dRk7SHoDaVFtWV7wOuItktyI76jw7riIkx8eNvEQlxcjZb/8+MD/23Xy6ujRuzZE24e8flaWtm4vYBwuNZgW5NOnGmTHn4KNA+284FuDdSHrs6qCt64mUhQv2WCTE1qfJDDi92tIfTf89tJk2Thx4CU3Wm1zq8mNeLvi/Sufgn3pr88n071kC8kNX1t3eropBVuX154i2nJevuaGtrx7yrSB4PjLawyad9zueyeB7ErLLheeu/yasNM3tqgFyKPCtcefMmgZ8ZMfWTp8Y+2vhv233yHccMoZ9XkTttq2vvyVR5+QTPPq+82s68NR43YPn6sF2lqmGpeRZ9Eystoh2yjTJ++zf8P052deGz78/g8kCYb5F17WMC/LVvdNO3V7v58tW/bJhqt+edBvJ+r6+hvn/T6i126srnYcKjJW1foPtAjBJnQT+luXsYOkN5AW1ZblBa8j3iLJDVGX85IbotxF8affJAFQnTdeDuGGSYOXFSXB8djsRXd9/PWPA+VqEsO7E+POKYvu1BCkLU/P7dnEhmj7kNfPytLW7QWMw6UG06/+Lfq9IyTg95bPCr41gZBF1h0SeqeFkPUYR96dFx62HG/9eHoW8fKtJjfEvPLtsiQ38rV1p6ebUrB1ee0poi3nd7Nmt+W9Z00N73rHO8LGq60+aN6LM68JG35ptSSY3XvLrcPOm38zCZBnTzoxmb/w0llJ0B1Piz3+x3vW19VpsyYem0zz6ouVui87bGJYd+VVkuUlsH/8/IvdZbPMKyOrHbKNMv2Mn+zXML3Ztlrb2TfN6vb2gff72bL1d/Taout/btlPhudnXJnbH0Sv3Vhd7ThUZKyq9R9oEYJN6Cb0ty5jB0lvIC2qLcsLXhHztH3I62dlaev2AsbhMg6mz3/q2PpdDK//4w/hygVTcpe381S5K0HfeaHI10uOf2Rvd3lVy7YBv5qVnJB225eJymdhbX1Z64tF29xOckOUO2H0Tg1B1r/15asHLUdyI19bd3q6KQVbl9eeItpyfn/5VW15/+Szk2D2a6uuljv/LbXA+PO1AFj+e/1RxzbM+9wnlg0Lp1/asN7LM64IY774pSQQ/sl3t6xPv/rwo5JpWfVZf3vxZeEj73t/Etg/OXWau0wzvTKy2rHLZgOfOj1zr580TI/neW23+6KdfZNVd94+8H6/E8f9uKFsrS/+7VTbTq3LW1bn2XZjdbXjUJGxqtZ/oEUINqGb0N+6jB0kvYG0qLYsL3hFzNP2Ia+flaWt2wsYh8teCKZxZGn7s9fny9LWnZ5uSsHW5bWniLac12bMbMv7Tz09vGt0LTj+0qrufPHEXXZLAlpRgt45Rx6dTH/xwkvqwe5p43evL//w6WeFNVb8bH2duGyt73Of+ET4zbSLGqYt/ta3hbnHHF9f9pWLLg1Hjt0hKSNe3rPVMrx2iLtuslmy7Fl7TKhPU68+9Ij6Nu31zS3q68Xb+9NvfzeZ1s6+yapby5Jt+/U5v2yY5/1++ntpW2QfjPmvLzb8dqq3H3T9zyzz0XD7cScm06TdUoa2W8vGamvHoSJjVa3/QIsQbEI3ob91GTtIegNpUW1ZXvCKmKftQ14/K0tbtxcwDpckN7BVbX/2+nxZ2rrT000p2Lq89hTRlvPH6Ze05YMnnlILbkeHr9cCV2+++Oq06WGj9NEOCZBvOOyI+rxdv75JMj3PuGytz87LK8fWmWUrZTRrx9njd68vG3vyTrvU17F+/uMfDy9OPb++bKv7Jqvul8+7IHzkfe8Li7/1reGpM85umOf9ftrGfb717eRv/f28/ajrx22Pf+8stWystnYcKjJW1foPtAjBJnQT+luXsYOkN5AW1ZblBa+Iedo+pANCN31kiVFJ3V7AOFyS3MBWHXQsOWN2Wdq609NNKdi6vPYU0Zbz+rQL2/Lh408cCI5X+S93vqrLSYB84yGH1qe/9svzw3Hbj21IFCz/oQ+Fg7+7Zbhr4lHJdAnKnznt9Po6p++8S335z3/s4+HlKecm0y/76b7hC7UgW8sRv7fmWmHexKPr6zazlTK8dozb+GvJ3+eMGz9oeXXWz/YPa376M/XyZZ/I9up2qK3um6y6Xzn3l+Ej7x1IbsT7UfR+v1N+tGNSzr7f/Fbyt7Rjo5VXHvTbibp+/DvoOntt9t/1dsu6W6+9Tjhq2x+4bcRqasehImNVrf9Ai+j1XvonQKnQ37qMHSS9gbSotiwveEXM0/YhHRC6KckN7AcHHUvOmF2Wtu70dFMKti6vPUW05bwx9ZeIpbvbRhsliY6bDjzInY/V0o5DRcaqdCiEFtDrvfRPgFKhv3UZO0h6A2lRbVle8IqYp+1DXj8rS1u3FzAi9oq2P3t9vixt3enpphRsXV57imjL+Z9zzkEcsr8//fSw9HvekyQwpu+2W8O8mXvuGd61+OLJHSQLTjihYR5WUzsOFRmr0qEQWoBgE7oJ/a3L2EHSG0iLasvyglfEPG0f8vpZWdq6vYARsVe0/dnr82Vp605PN6Vg6/LaU0Rbzl/OPAOxI47fYH05Blwl6TH1Rzu462H1tONQkbGq1o+gRQg2oZvQ37qMHSS9gbSotiwveEXM0/Yhr5+Vpa3bCxgRe0Xbn70+X5a27vR0Uwq2Lq89RbTl/O9pJyN2xD+fcmI4acvvhv9cZukkoaGutdwnw/0//5m7DlZTOw4VGatkHITWINiEbkJ/6zJ2kPQG0qLasrzgFTFP24e8flaWtm4vYETsFW1/9vp8Wdq609NNKdi6vPYU0Zbz95OPR0TsqnYcKjJWpUMhtADBJnQT+luXsYOkN5AW1ZblBa+Iedo+5PWzsrR1ewEjYq9o+7PX58vS1p2ebkrB1uW1p4i2nH8cfzQiYle141CRsSodCqEFCDahm9DfuowdJL2BtKi2LC94RczT9iGvn5WlrdsLGBF7RdufvT5flrbu9HRTCrYurz1FtOW8edxRiIhd1Y5DRcaqdCiEFiDYhG5Cf+sydpD0BtKi2rK84LXvfWRW8snO8Ozt/vxmDnX9Htf2Ia+flaWt2wsYEXtF25+9Pl+Wtu70dFMKti6vPUW05XiBByJimdpxqMhYlQ6F0AIEm9BN6G9dxg6S3kBaVFuWF7z2vSQ3hqTtQ14/K0tbtxcw9qM/vv1r4frfXBxe+9srA30v5ZX/XRguefZUdx0c+dr+7PX5srR1p6ebUrB1ee0poi3HCzwQEcvUjkNFxqp0KIQWINiEbkJ/6zJ2kPQG0qLasrzgFTFP24e8flaWtm4vYOw3j3xw1/CPf/09TWf4vPa3l8Ped33TXR9HrrY/e32+LG3d6emmFGxdXnuKaMvxAg9ExDK141CRsSodCqEFCDahm9DfuowdJL2BtKi2LC94RczT9iGvn5WlrdsLGPtJuWNjwZ+fTBIYT/7pwXD8I3s3zJ/666PCS399Ppn/zBuPNszDka/tz16fL0tbd3q6KQVbl9eeItpyvMADEbFM7ThUZKxKh0JoAYJN6Cb0ty5jB0lvIC2qLcsLXtvy+XuSACs8cEkI834Zwv/9Y+Dv//evEJ6eG8Klewxe/v/eDOGqA0J4bcHAsvL3DZMWLXPtISH86TcD85Q3Xm5cRmz2mMitpw3Mf/Xpgb+zlpd2/+W1gXmCtP2l+YPbnldf0TZftOvAdksdt50ewoK70oVr/PWPIdw3vXF59c4pIbz+Yrpgjf99PYSHZg5ersj+bVPbh7x+Vpa2bi9g7Cf1ro28OzP2uHOz8D9vvh7+9f/+L0x+7EB3GRyZ2v7s9fmytHWnp5tSsHV57SmiLefN449GROyqdhwqMlalQyG0AMEmdBP6W5exg6Q3kBbVluUFr22pyY2XHh34r+V/ft+YJNDg+3e/TheoES+jCYQs4sTCdYfVyvrH4DrUOPEif3vJibz6bLlZyY1W2qzJjSwk6TH3lOLla+JGbbZ/h6DtQ14/K0tbtxcw9pNnPH5w8tM1uyvjvldvTpa77LkzBs2L7+4QXv/HH8KVC6YMWk7KePNf/wgH37d9/W4R+fuh1+5I/v/OV2YPWkfMauNQ67V3qfSjtj97fb4sbd3p6aYUbF1ee4poy3nz5OMQEbuqHYeKjFXpUAgtQLAJ3YT+1mXsIOkNpEW1ZXnBa1tqAkGQQFuDaLnTQO/iiIN7Xd4L4jVZIcR3TkhCYEF6h0O8XnwXhC3rkvEh/P3PA4H+FfsOTLPJCV1G1o/vmJC7MDQBoYkRb32x3TbrdL37Iq4zTlho+XJXx80nLpqe1ca8/TtEbR/y+llZ2rq9gLGf1Ds35K6Mdl4cevUL5w30AwebjNAkw1OvP5wuUetaf3s5nPToPrl3j3iJlU7UW4V3iNj+7PX5srR1p6ebUrB1ee0poi3nzcknISJ2VTsOFRmr0qEQWoBgE7oJ/a3L2EHSG0iLasvygte21GDauztAHwuJ5+ny9o6DeJ69M0LV5EK8rpdwELXueHpWciNOgOTp1dVqm+PkRlab4+2T8rMSFdr+ovt3iNo+5PWzsrR1ewFjvxknCiTJ8cgf7grnPzWpafCviZE//v3VcPL8n9WnH/bATvU7JOKEhCYp7OMt+t4P77EXfSRGkhMH3LN1Mq1T9VZB25+9Pl+Wtu70dFMKti6vPUW05bx51mmIiF3VjkNFxqp0KIQWINiEbkJ/6zJ2kPQG0qLasrzgtS01mI7vHlA1kI+TB1nJgLy7MFQvGeE9mpJVlk1O2LsoXnki+50XYtb6rbQ5rtPuM7st8bJ5FNm/HdD2Ia+flaWt2wsY+9Hznzo2SRhYJCHgvWhUlKRBVsJAkxLxHRKaZPAegdEEi300RR9Jiad3st5+1/Znr8+Xpa07Pd2Ugq3La08RbTlvnnsmImJXteNQkbEqHQqhBQg2oZvQ37qMHSS9gbSotiwveG3LvDsLvOA/KxlS5C4KbxmvDi/hIXp3XsSPlcTIy0Djx0C89dtpc15CxLZb122Gl9zwkk1D1PYhr5+Vpa3bCxj72UPu+2G4buEF4bd/eXbg942IEwzxV1byiO+40CSD924N78Wm3h0dna6337X92evzZWnrTk83pWDr8tpTRFvOP8+fgtjUv594TPjLgfu48xBb1Y5DRcaqdCiEFiDYhG5Cf+sydpD0BtKi2rK84LUthzu5IdpHULwkRt50aedjsxu/mKLEyw5XciOvfCvJjUooyY7rf3Nx/a4OfdxD75Bohpdk8F5K6iUyvIRHp+vtd21/9vp8Wdq609NNKdi6vPYU0Zbzz+nnI+b6v8ccHn67zHvDwve9Pfl/bxnEVrTjUJGxKh0KoQUINqGb0N+6jB0kvYG0qLYsL3hty7xg2gvOs5bPC/rVrDsytB6Zfvne2eVkJTdipR3yMlT9rGvcdrt+O21uJ7mRV76V5EbP673PIkv7xZJW1lWbJRnsIyjeoypl1NvP2v7s9fmytHWnp5tSsHV57SmiLeefl1yImOn/HLhv+M0Hl0guWH+3xsrhH1PPDn/+2YTw97NOc5dHLKIdh4qMVelQCC1AsAndhP7WZewg6Q2kRbVlecFrW2ow7b3AMu+Fol7wrfOykg+aXPDqknUlCfDQZX4CRCyS3FC9xIy3fqttbiW5IdPy9m/e8iQ3etb4EY9mgb+9i0KTDFnvvvBslmTQMqWOfe/+7qA7OeJlOllvP2v7s9fny9LWnZ5uSsHW5bWniLYcxCx/9c7FwoL0YvXe2v9Pr02b9Y6Bac/UlP/31kNs1SJjVToUQgsQbEI3ob91GTtIegNpUW1ZXvDalhpMCwvuWhRkx5+CjQPtvOBbg3Uh67OqgreuJlIUL9lgkxNanyQw4vdrSH1PzBlYNk4ceMmNVtvcanIj3i4pT6fLp2Bff3FgupdsIbnR0+rdEc3uhNAEQfxSTm+a6j1SUiTJIMtI4uKKBWcPWj9eRuhkvf2q7c9eny9LW3d6uikFW5fXniLachA9b3vnwEWqeGft/3X6xTUfXmJguiQ5bnzn4HURW7XIWJUOhdACBJvQTehvXcYOkt5AWlRblhe8tqUG03/+3cB/LRLwe8tnBd+aQMgi6w4JvdNCyHqMI+/OCw9bjrd+PD2LePlWkxtiXvl2WZIbfWF894YkFa5cMKUhmSCfV33otTvq8+O7JfQxEuHu391QX0/WeemvzyfT40dKiiQZ4jIF7yWgZdTbr9r+7PX5srR1p6ebUrB1ee0p4hWrrtRQDqJV7tLQi1S5e8NbJk5+6F0d3nKIzZzx8Q+5Y5VdLh0KoQX0GE3/BCgV+luXsYOkN5AW1ZblBa9tGQfT83656C6G/309hIdm5i9v56lyV4K+80KRr5fcMMlfXtWybcCvZiUnpN32ZaLyWVhbX9b6YtE2t5PcEOVOGL1TQ5D1n547eDmSG32jPOqhSYEsJLHhJQf0zg8Pe9dFkSSDPnYi5D160ul6+1Xbn70+X5a27vR0Uwq2Lq89RXzk+mnh0hU+2lAWomjvyrimyWMn171zVHg2vZh9vLbepTymgi168QffG+adcqg7Vtll06EQWoBgE7oJ/a3L2EHSG0iLasvygte2LDGYxpGl7UNePytLW7cXMPajcgfH1F8fNegTsK//4w/h8T/eGyY+OM5dT5T14uSIJCVuffnqhgSDWDTJoMt5j6TEdrreftT2Z6/Pl6WtOz3dlIKty2sPYts+e0d4YfXPJhemLyz9nvDCvFn+ctYHr29cb840fznEFrVjXjoUQgsQbEI3ob91GTtIegNpUW1ZXvDaliQ3KqPtQ14/K0tbtxcwIvaKtj97fb4sbd3p6aYUbF1eexDbUhIUK350IEGxynLhhSdu8ZfL8vePhoXbbjawvnjI7v5yiC1ox7x0KIQWINiEbkJ/6zJ2kPQG0qLasrzgtS1JblRG24e8flaWtm4vYETsFW1/9vp8Wdq609NNKdi6vPYgtuzcGQN3XMhF6bqrhBdevM9froDPH39APcGx8DtjhlQWoh3z0qEQWoBgE7oJ/a3L2EHSG0iLasvygte2JLlRGW0f8vpZWdq6vYARsVe0/dnr82Vp605PN6Vg6/Lag9iKz087IbzwH6MXJSN+/6i7XEvKYynLfXAgySF3gchdId5yiE20Y146FEILEGxCN6G/dRk7SHoDaVFtWV7wipin7UNePytLW7cXMCL2irY/e32+LG3d6emmFGxdXnsQi9pwl8WEse4ybSvv75C7QKT8/xg9kETxlkPM0Y556VAILUCwCd2E/tZl7CDpDaRFtWV5wStinrYPef2sLG3dXsCI2Cva/uz1+bK0daenm1KwdXntQSxiksxIL0KTJIezzJCV93Ds9v16PR1PoGDfa8e8dCiEFtDjL/0ToFTob13GDpLeQFpUW5YXvCLmafuQ18/K0tbtBYyIvaLtz16fL0tbd3q6KQVbl9cexFwl4SCPn8gFaJfuqHh+ytH1R19e2Gj1gbs6nOUQrXbMS4dCaAGCTegm9LcuYwdJbyAtqi3LC14R87R9yOtnZWnr9gJGxF7R9mevz5elrTs93ZSCrctrD2Km8nJPfVSk259slc/K6tdY5H0c8hJTbznESDvmpUMhtADBJnQT+luXsYOkN5AW1ZblBa+Iedo+5PWzsrR1ewEjYq9o+7PX58vS1p2ebkrB1uW1B9FVPu0qL/eUC09JMgzHSz4luSJ3bkgb5K6R0w71l0NMtWNeOhRCCxBsQjehv3UZO0h6A2lRbVle8IqYp+1DXj8rS1u3FzAi9oq2P3t9vixt3enpphRsXV57EAcpd03o10tW/+zwPxZyyO4DbamZvJOjE19owb7UjnnpUAgtQLAJ3YT+1mXsIOkNpEW1ZXnBK2Ketg95/awsbd1ewIjYK9r+7PX5srR1p6ebUrB1ee1BjH1+1jmLPvW6+boDd084y3Xb5y+dPPBojFwIS8JF7ixxlsNqa8e8dChsiXMX/7elLhg96lxbVlXUYNObVxWnLT5q+rTFF/tC2iWgRLS/pX9C2djO7g2kRbVlecErYp62D3n9rCxt3V7AiNgr2v7s9fmytHWnp5tSsHV57UFUkxd5pheaC3f4trvMsCqPxuijMt1+Bwj2hHbMS4fClpg2etRMW06VvO2doxK9edVy1INpl2iZqifIWlHPOd48XGTHEm62YG8gLaotywteEfO0fcjrZ2Vp6/YCRsRe0fZnr8+Xpa07Pd2Ugq3Law+iuPBnu9QvMpPHQJxlRoTy9ZZtN6u39fmJP/GXw0pqx7x0KGwJWwZW17RLtEzVE2StqGO5Nw+t7Sfc6thCvYG0qLYsL3hFzNP2Ia+flaWt2wsYEXtF25+9Pl+Wtu70dFMKti6vPVhxJVkgd2loskDu3vCWG2E+f/wB9TYnn6odIY/P4PBqx7x0KGwJWwZW17RLtIxXFvo+ssSoRG8eDjbtYu1jC/QG0qLasrzgFTFP24e8flaWtm4vYETsFW1/9vp8Wdq609NNKdi6vPZghX3xvoH3akiSYOn3DLxvw1tupCqPpeiLT+VxleH4oguOKO2Ylw6FLWHL8M4h2J/a3z7tEi1jy0HslGkXax9boDeQFtWW5QWviHnaPuT1s7K0dXsnBcRe0fZnr8+Xpa07Pd2Ugq3Law9WVPkCiryYUxIDkiCQL6R4y410ZTvWXWVRgmbaCf5yWAntmJcOhS1hy/DOIdif2t8+7RItY8vx6kIsou1LaRdrH1ugN5AW1ZblBa+Iedo+5PWzsrR1ewcgYq9o+7PX58vS1p2ebkrB1uW1ByuoJDJW/OiiOx56/csj8miNfCJWtqfmwglj/eWw77VjXjoUtoQtwzuHYH9qf/u0S7SMLcerC7GIti+lXax9bIHeQFpUW5YXvCLmafuQ18/K0tbtHYCIvaLtz16fL0tbd3q6KQVbl9cerJjyKId+UnWj1fvqXRXPn3Zo/TO2/bZtWEw75qVDYUvYMrxzCPan9rdPu0TL2HK8uhCLaPtS2sXaxxboDaRFtWV5wStinrYPef2sLG3d3gGI2Cva/uz1+bK0daenm1KwdXntweqYPLKRBv/JF0d+/6i7XE8b35Uij9vMneEvh32pHfPSobAlbBneOQT7U/vbp12iZWw5Xl2IRbR9Ke1i7WML9AbSotqyEIeq18/K0tbtHYCIvaLtz16fL0tbd3q6KQVbl9cerIbJJ1Ml4JfERr8/tiF3bMidG7K9/zF64I4ObznsO+2Ylw6FLWHL8M4h2J/a3z7tEi1jy/HqQiyi7UtpF2sfW6A3kBbVloU4VL1+Vpa2bu8AROwVbX/2+nxZ2rrT000p2Lq89mD/G7+PIvmEqrNMP7rwZ7ssSujIPujHO1WwQTvmpUNhS9gyvHMI9qf2t0+7RMvYcry6EIto+1LaxdrHFugNpEW9YtWVGspCHIozPv4ht5+VpdcGxH7R6/NlaetOTzelYOvy2oN9rLxo8ztjFt3BcOlkf7k+NtlmfceIfFWl11+eirnaMS8dClvCluEFHNif2t8+7RItY8vx6kIsou1LaRdrH1ugN5AW9ZHrp4VLV/hoQ3mI7XjxB98b5p3S3dtsvXYg9oteny9LW3d6uikFW5fXHuxT5dGM6BOplX73xIPXD3wVRveFvFTVWw57XjvmpUNhS9gyvIAD+1P726ddomVsOV5diEW0fSntYu1jC/QGUsQqyJ1H2K8O911Q6emmFGxdXnuwD5W7E/SlmvJfCe695arki/cNvERV9knNKj2eUyXtmJcOhS1hy/ACDuxP7W+fdomWseV4dSEW0faltIu1jy3QG0gRqyB3HmE/OhLugkpPN6Vg6/Lag32mfC1EH8NY/bN8DtWYJDXSBEfyyA77p6+0Y146FLaELcMLOLA/tb992iVaxpbj1YVYRNuX0i7WPrZAbyBFREQsqj2vpKebUrB1ee3B/jF5v4R+6nXzdXmBZpbyWIomgORxFe5s6RvtmJcOhS1hy/ACDuxP7W+fdomWseV4dSEW0faltIu1jy3QG0gRERGLas8r6emmFGxdXnuwP0w+d6p3JOzwbXcZjHz2joZ3klTxZav9qB3z0qGwJWwZXsCB/an97dMu0TK2HK8uxCLavpR2sfaxBXoDKSIiYlHteSU93ZSCrctrD/a+8SdPn5/4E3cZdJSvyUSfyV04Yay/HPaMdsxLh8KWsGV4AQf2p/a3T7tEy9hyvLoQi2j7UtrF2scW6A2kiIiIRbXnlfR0Uwq2Lq892MNKcC53aUhwLp96nXK0vxzmmtz1kj7O88JGq/Mejh7WjnnpUNgStgwv4MD+1P72aZdoGVuOVxdiEW1fSrtY+9gCvYEUERGxqPa8kp5uSsHW5bUHe1QJwCUQl4BcHquYdY6/HBZTPpUbf2Gmyp/O7WHtmJcOhS1hy/ACDuxP7W+fdomWseV4dSEW0faltIu1jy3QG0gRERGLas8r6emmFGxdXnuwB5VPvcqXUDQQly+keMtha8YJI7kTRu7o8JbDEasd89KhsCVsGV7Agf2p/e3TLtEythyvLsQi2r6UdrH2sQV6AykiImJR7XklPd2Ugq3Law/2mJLI0DsMJMEhiQ5vOWzb5N0bsn9rJu/k4KszPaMd89KhsCVsGV7Agf2p/e3TLtEythyvLsQi2r6UdrH2sQV6AykiImJR7XklPd2Ugq3Law/2jsmjJ/oJU94NUarJ11N0X8tXVeTrKs5yOLK0Y146FLaELcMLOLA/tb992iVaxpbj1YVYRNuX0i7WPrZAbyBFREQsqj2vpKebUrB1ee3B3jB5WWj60suF227G3QTd8MHrwwurLDeQ4JBEx5xp/nI4YrRjXjoUtoQtwws4sD+1v33aJVrGluPVhVhE25fSLtY+tkBvIEVERCyqPa+kp5tSsHV57cGRb/J5VwmwJbEhn311lsGSfPG+sPA7Y+r7//njD/CXwxGhHfPSobAlbBlewIH9qf3t0y7RMrYcry7EItq+lHax9rEFegMpIiJiUe15JT3dlIKty2sPjmyTdz5oYM0LLofNJKmR/g7JnTM8EjQitWNeOhS2hC3DCziwP7W/fdolWsaW49WFWETbl9Iu1j62QG8gRURELKo9r6Snm1KwdXntwRHq7x8NCzdfdyCgli93yDsgvOWwe8pjKfoeDnlcRR5b8ZbDYdOOeelQ2BK2DC/gwP7U/vZpl2gZW45XF2IRbV9Ku1j72AK9gRQREbGo9rySnm5KwdbltQdHoHJXgH7qVYJpPvU6cpSv08gLRtPfhqTTyNKOeelQ2BK2DC/gwP7U/vZpl2gZW45XF2IRbV9Ku1j72AK9gRQREbGo9rySnm5KwdbltQdHmHI3gH7qVf7Lp15HnnJXTfS4EO9BGTnaMS8dClvCluEFHNif2t8+7RItY8vx6kIsou1LaRdrH1sgIiJiJ01PN6Vg6/KCARxBzp2x6LEHuXOD9zqMaJN3oKRfsOHTvCNDO+alQ2FL2DK8gAP7U/vbp12iZWw5Xl2IRbR9Ke1i7WMLRERE7KTp6aYUbF1eMIAjw+TxBv3Uq3ydg0+99oaSkFrugwMJDrnThkeIhlU75qVDYUvYMryAA/tT+9unXaJlbDleXYhFtH0p7WLtc8HoUQ/aQhERETvky+npphRsfV4wgMNvcgeABMeS2JDHHZxlcAQrd2zInRvyG8rLX/mqzbBpx7x0KGwJW4YXcGB/an/7tEu0jC3HqwuxiLYvpV2sfc4f/e/rTBs9aoEtGBERcUguvtifpr191M7p6aYUbJ1eMIDD68IJY+uJjecn/sRdBnvD+LdMklTcfdN17ZiXDoUtYcvwAg7sT+1vn3aJlrHleHUhFtH2pbSLAQAAVA97UvSCARwm5aWU22626F/7p53gL4c9ZfI76ntT5Ksqz97hLoflaMe8dChsCVuGF3Bgf2p/+7RLtIwtx6sLsYi2L6VdDAAAoHrYk6IXDOAwGD/GIIHwnGn+ctibyhdvVllu4PeV93Hw+3ZNO+alQ2FL2DK8gAP7U/vbp12iZWw5Xl2IRbR9Ke1iAAAA1cOeFL1gALusfNpVA19eQNm/vnjfwIth5Xeu+fzxB/jLYUe1Y146FLaELcMLOLA/tb992iVaxpbj1YVYRNuX0i4GAABQPexJ0QsGsItKIkO/rCGfepVEh7cc9o3Je1TSBEfyGBLv4ShVO+alQ2FL2DK8gAP7U/vbp12iZWw5Xl2IRbR9Ke1iAAAA1cOeFL1gALvj87POqb+LYeHm6w48muIsh32oPJai7+GQu3bksRVvORyydsxLh8KWsGV4AQf2p/a3T7tEy9hyvLo64d2/uyG88r8Lw/GP7N3WfOsZjx8c/vX//i9cuWCKO78THnLfDxv+/vHtXwv3vXpzeOaNRxumF1HWXfDnJ8Pjf7w37H3XN91lPA97YKdw/lOT3HmTHt6jbSc+OM4tcyjavpR2MQAAgOphT4peMIDl+/yUo5OXhiaJjR2+zb/eV1G5S0fu1pEEx9LvCc9fOtlfDoekHfPSobAlbBlewDHSlWDx9X/8IUx+7EB3/khXgs+HXrsjvPjXBS0FrUPV/vZpl2gZW45XVztKMH/vqzfV94lNCsjfd74yu76sBP6tJA0kufHmv/4RDrhn64ZpRdB689Q2SR1xwuXqF84bVG8RtTyv7jjpIHVd/MwpSZ/6x7/+nrY4hMueO6NhnaLbmsVrf3u54/3V9qW0iwEAAFQPe1L0ggEs2UN2HwhoJbHxs138ZbAayhdy5BOxaX9I+oa3HLatHfPSobAlbBlewFGG8q/snQiO2glqs4wDxCIW+ZdrCcDj7ZTA9tW/vZj42t9eScPEkCRn5v/xnnDJs6e6ZTz5pwcL35FQVPvbp12iZWw5Xl3taIP5OLmhCQLdJ3vcuVn4nzdfHxTA5ynBve2DXsIjVttUpJ4jH9w1SS7YZdtpq5iV3NB6FLkbRfrX068/Em59+epw8vyftXWXhU0mdUPbl9IuBgAAUD3sSdELBrA8k7s00kA2uXvDWQar5/OnHVq/kyf5ag6PKHVMO+alQ2FL2DK8gGMoakAmAVd8Z0WzIDJWyvCSC+JJj+6TBHYS8HnzrVnJlHb+FbtZckaD2DhAlGkP/P7WJOi88OkTwqN/mJd7F4CWMZL/ldyW49XVrtpPJImhwbZM+9v//bXt/qTKOmUmN2xiK1aSM63+plnJDekjr//jtY7fuURyAwAAYBixJ0UvGMASlC9lyHs1JHitBbHJ+za85bC6zp2x6OWyfDWnY9oxLx0KW8KW4QUcQ7ET/3otgWCnyEskdNqsbY+VADKvTUXKaFf726ddomVsOV5d7WgTUxpsx9P0joSs/SjvvIjvWpAEgSYU4uSGTu9UckN+N5uAidX+X6Q/6rZKgkfqlrue4u0fSnJD2vnbvzzrruslN3T75U6iVhIzRbV9Ke1iAAAA1cOeFL1gADvss3c0vFuBoBUzlb4id25oEoy7e4asHfPSobAlbBlewDEUJUDKChZl3lDuSNBAq9v/ulzUIu9WyArK1SJltKv97dMu0TK2HK+uVpUkQxFk35zx+CENj2VY4j4m+zsL6UeaTGpG3m+m/bJZ4kK20d7RZG22H2Tb9r/n+0O6cyPrGJXp9tjS9pT1Elbbl9IuBgAAUD3sSdELBrCDylcw5F/hJViVr2LwqVcs4MIJYwf6TM3knRy8cLZt7ZiXDoUtYcvwAo52bXbXwVDvSigSHA6XGuDGgbVM039xVyWAjP8lXoyXLzN5Y3/7tEu0jC3Hq2so6n4Q7NdNsvaRJIWa7TfpPza5Jn3yL/98oyHQ137mvQ/FKu2R37Ro0k7aWbQP6/FikyZDfSxF96Fts01u6N0mZfVH0faltIsBAABUD3tS9IIB7JDymIF+7nPdVXiPArbk89NOWPQeDuk/cleHsxzma8e8dChsCVuGF3C0Y1bAZM36V+NmaqC14M9PNCQGPL31y9Z77KDo4zW6jgSzeY82DFX726ddomVsOV5dQ1H7yFOvP5y8eFUCfP0c6g2/vTTzroMid04UTW4U6aPa52VZeYlnkeSGPmpSJHmi/eePf3+1oS2a3JD1vf4fG5cX6yUu4uRG0eN5qNq+lHYxAACA6mFPil4wgEM3DkwXfmcM//Je0KdrAfwNY7/d0Eer7OU1n0zv4Him5tXv8JfDxcKc728WHr9r8CNfdrl0KGwJW4YXcLRj1r9IS4AVB0caVLUSNGmgVYS8fxWXcmzw16627UXuKpFlhKwgXPZhmcGk/e3TLtEythyvrnaU30fuatH9qMG2fDr3pb8+nwT5khyQv+WTsfrlFO0f/397Zx8zyVXdaSTGUphJ+GcVKSCxG6T8gYSi5K9EkSILRUKIlRKhLBJZJQglKyUoEZusYskoy0aweENYmeXLJOuw2ASPzfIRbD4SzMaKjZMxXwaDwdjYOAZjY+P4C2I+7EB667xzz3DmN6fq3uqu7ne66nmkR563u/pW1a3jW31O36qqzQjKihteyLDihB/by25/3RmvmfFeHr5NvlxrfBo2E8WX96KNt+v6/ydOLHDoe0MM9YnHoy/j/W39af+uxfMUaiyVEAMAAFgeelLURCBKorme1/5Y168lIf3Yjx1Jl5mzfUlmi1e/8Hlpm0v2XZ03lZi6s/Od8j7+0Kt+/qfPiCldpgyFo9A2soRjrJYMxiTJ9STMEkBPRE1PquKvxn3Gwoa1M/Rrem3mQ+tMiha0QGHJ4ND2xf3IkkZ/vzb7YBP12JeQGI22k61rrF4ssL7RZNv+bbF080MfOygEeFz5cvZ3y2UaXtywWLTHptryHost+PHVYouup69IFbfbjrcVcoxsWWvD2rf12HIWG75cX5zbZ1r+n4rGgk3sb9vHS297zan3tqXGUgkxAACA5aEnRU0EoiSa47Vihhc2rMiRLbMEsySzxawtPOnfd7H14QUWy8Zai6kyFI5C28gSjjF6wSBLyvWX4ah/zpKp7Jdr8+1feu3BJQmWVH7ka+/auLhR07fXE+BsmUwvTAwllta2bb9famFJfLyXhL/v+2cFo2vvverU+1Oox76ExGi0nWxdY7Vj98B37z0VK34s+oo9MRHXvuvT2zR8xoS9psWF7LUx2rZln8+KMDYjJC5jWl9Y3PsMD+sDf83/Pba4YU+RibNQMr1Ps/ei6/ZLpsZSCTEAAIDloSdFTQSiuiwO+5EfPVnUuKvT/p0tsySzmKqZtYM4xlpMlaFwFNpGlnC0aAn9Zx88cSpRzN6Pvzbr+6YXOPQXcPvV2Nv292JiOsS6U+l9e9f5vCeeWRHH9F/sLTG1BNL+a/vjyaotE5N10/qmJWEfox77EhKj0XaydY3V+l9nEcTYsfctsfb3rf+8f4aSejOLJ3/PPjtlccPjKNuevqJENH7e/+0x8tZbX33w37jv8bN9/eDtTMVQX49VY6mEGAAAwPLQk6ImAlFdFuve8GPcF8HNYqqmtrG64rcRB9WYqcVUGQpHoW1kCUerljT+7T3vSd/zYkRfwu96gSMmk14siPcj6Evooi3JY5+t25tp+zBUFImJuhc37HVbp60v2+5YEPHXNlWPfQmJ0Wg72brGav1SIx5/7x/7XLxEJWpJ/ecf+vjBZ62oYbN/tGhhn9dkPSt4tBovPdH3avFpn/X7eNh+anHDte0bU9xoNeuLbauxVEIMAABgeehJUROBqC6bnWQRXY2XLKZqahtZMosY1ZipxVQZCkehbWTxv6nx1+f4+iW3vSa93MNeryWS2yxu9BUShoo3ru9rXzKshY9Y3HD7kspNkuxMPfYlJEaj7WTr2kTtj6Ek3xiKCzuG/lQSi6HYn96u39NiiNbjYOvoK3RZfOqTWVTbXv9/pG+/h+Jlk+IExQ0AAIBDRE+KmghEddnsJIvoarxkMVVT28iSWcSoxkwtpspQOAptI4v/TdWE3qwVAWpus7hhSV22XbZOQ5PL6NAMC79hZPwV39YVl7XP990Mc2gWwDrqsS8hMRptJ1vXumbHsO/Y27I2w6c1Idfihq/LLvew2OzrZ/3ckH2xZLYUN6JZcWMo3ihuAAAA7DF6UtREIKrLZidZRFfjJYupmtpGlswiRjVmajFVhsJRaBtZ/G/iUPLlyWj2Xk0vNNQYe88MSwiHiiY+O2Ao8e1bpyWnOvNDixu1hHQoWR6rHvsSEqPRdrJ1raP1lxeErE+vv+9DB7MYsnjyxN8uN/FLmOL7mVqk8L59+SdeNElxw2N0qJ1agS6aFTeG4o3iBgAAwB6jJ0VNBKK6bHaSRXQ1XrKYqqltZMksYlRjphZTZSgchbaRxf8m1pLxoeRsyJbEMPvVf8jWbbF96lvO3huTsNrynqz69tplE/4kCrtE54o73rC67uvvX33h4U92fXn/Wv2Vqce+hMRotJ1sXZtqRQ2/CajtvxU6PKYs6Y/HxItmtQKHHW+PTf+MFSK8iLBJccPbm7JQpcUN/7tvHRQ3AAAA9hg9KWoiENVls5MsoqvxksVUTW0jS2YRoxoztZgqQ+EotI0s/tfVkquYiGvC/q4vX3SQsFsSOCbJM6cubvhjZu1xq76dto3uh+++/GBbzVsf+fRBkq3rryWbmV7c8M8q9jjU+79z98F6bdaH9ZnNXJgi6dRjX0JiNNpOtq5NtL6xm3/a8bntkZtO/dv6ze5JYf2mBR+LD4+r7L4uvoy/b33qMejHYt3ihj22N4tpm8X0mX+6/uBY2o1CjTgLo6Zvl39G//9SKW4AAADsMXpS1EQgqstmJ1lEV+Mli6ma2kaWzCJGNWZqMVWGwlFoG1n8r6MleIolYjFZP3Hf3xwUDt5z55+fSlaztjKnLG4MFRZML2pYsmvbe9ntF67e9PnzD7Z50+TPixv2b0vUrW0rrOhyUUtax8wO6VOPfQmJ0Wg72brG6gWNex678+BY2OUmfiPQ+L4dg74E3wsc+r7FhRcYvLhhRQdfpi8eIllxwwpkXrToK37Y8Tbs/4G4Py3G4obFgDH0/wzFDQAAgD1GT4qaCER12ewki+hqvGQxVVPbyJJZxKjGTC2mylA4Cm0ji/91tETs7+593+rNX/ij1Z/e9HvpMlFLxGzWRPZe5lBxwwornry2FgGssNC6re4HvnLpqG3OjMWNVq1v+2YNjFGPfQmJ0Wg72brW0YoQQ0UAO873fvuuwb6ITxtx/T4wjz7+0OqKO9542ntmLCLoe6Ydd5tBouu1z935zVtOu2RmSuN22X7d/NDHBtdj/08NzTCpSXEDAADgENGToiYCUV02O8kiuhovWUzV1DayZBYxqjFTi6kyFI5C28ji/2zUihuW+GaXHNh7hs26eP9dl5zx/tmiJ6u7TiBdPfYlJEaj7WTrQmxRY6mEGAAAwPLQk6ImAlFdNjvJIroaL1lM1dQ2smQWMaoxU4upMhSOQtvI4h/nqR77EhKj0XaydSG2qLFUQgwAAGB56ElRE4GoLpudZBFdjZcspmpqG1kyixjVmKnFVBkKR6FtZPGP81SPfQmJ0Wg72boQW9RYKiEGAACwPPSkqIlAVJfNTrKIrsZLFlM1tY0smUWMaszUYqoMhaPQNrL4x3mqx76ExGi0nWxdiC1qLJUQAwAAWB56UtREIKrLZidZRFfjJYupmtpGlswiRjVmajFVhsJRaBtZ/OM81WNfQmI02k62LsQWNZZKiAEAACwPPSlqIhDVZbOTLKKr8ZLFVE1tI0tmEaMaM7WYKkPhKLSNLP5xnuqxLyExGm0nWxdiixpLJcQAAACWh54UNRGI6rLZSRbR1XjJYqqmtpEls4hRjZlaTJWhcBTaRhb/OE/12JeQGI22k60LsUWNpRJiAAAAy0NPipoIRHXZ7CSL6Gq8ZDFVU9vIklnEqMZMLabKUDgKbSOL/2144wPXrh59/KHVn9/yx+n7Z5Ovuel3V9/9/rcneazs27/02tW773xL+p75Bzf8yuqfn3h09YlvXJO+P6V67EtIjEbbydZ1mH7oq+9Y3fbITeljg6fQYvkH//r91RV3vPHg8b6X3X5hutyuvfBzf7A672O/mr4XtW3+05t+L31v12oslRADAABYHnpS1EQgqstmJ1lEV+Mli6ma2kaWzCJGNWZqMVWGwlFoG1n8T60lU3d967bVl7/5+fT9MVoCN8Z1kjhLjp/4weOrV3zyN9L3W4373Zd0enHjr/7x4lOv2edaktSx6rEvITEabSdb12FphanHf/C91YPfvW9rxQ2LD2vfjtFlt7/uYH1WTKkds02Oq8Vy9rrrcdSKb3/W1i7VWCohBgAAsDz0pKiJQFSXzU6yiK7GSxZTNbWNLJlFjGrM1GKqDIWj0Day+F9HS9y0sOC+6fPnHySAN9x/dfq+2pd0XfzFV5bUrJ2hJO5VN/6n9D37Zb61EGPbm71u+gyQt9766oOZGV98+FOn3rP+sv/G4oYnv5Y828yAqWe56LEvITEabSdb12HofanHfOgYrWMsbtjfdtysiGUFsaGCisXVutTiwfb90ccfbIoZ+/+I4gYAAMBZhp4UNRGI6rLZSRbR1XjJYqqmtpEls4hRjZlaTJWhcBTaRhb/62gJ31RYESRbx5SO/aV7iDjrImrJrCeRPqPA960v0bXXbbu20Qd67EtIjEbbyda1a73AoEm7F8SssFRL5q2Nlpk+Wtxw7bOtbahjCmqZFDcAAAD2HD0paiIQ1WWzkyyiq/GSxVRNbSNLZhGjGjO1mCpD4Si0jSz+p9STzikuSdmFfYnrWOOMDH/Nkkr9BT4uZ30VCyK+zFTqsS8hMRptJ1vXLu0rbLh+6UitX/sKTmNZ5/hNUdwYU6zbVoyNVWOphBgAAMDy0JOiJgJRXTY7ySK6Gi9ZTNXUNrJkFjGqMVOLqTIUjkLbyOJ/SrOE/mzVE8QpZk30FUn0EolY3Nh2X+mxLyExGm0nW9eubC0IxXtxbJrU23Ga4p4sUWZunLSEGAAAwPLQk6ImAlFdNjvJtuhfkFq+gNqXlSm+qNrd9q+/70Ppe7gdNV6ymKqpbWTJLGJUY6YWU2UoHIW2kcX/VHrifte3bj11P40+s8/vWitIxKS1tl19lyD4fnsCOZRE+rIf+upfnlFYsXuCxGU3VY99CYnRaDvZunZhnBXUkqhf8JnfWX39219ZPfy9BzYqTNj3gMf+5ZsUNyZQY6mEGAAAwPLQk6ImAlFdNjvJtujFjZZpnVMUN+xLiLEvU7rnosZLFlM1tY0smUWMaszUYqoMhaPQNrL4n0JPPFsYGietHS2ErGtLkcGLCz721sgeF2tjv2HnCLskwrHCyStv/M1J+mUd9diXkBiNtpOta9v6PV6sUGGzXq644w2n/MjX3rX6wsOfPM1bH/n06oHv3nvq/D0086KvqOSFrKyQYN8N7Oax19571anXxjhFccPitxWKGwAAAGcZelLURCCqy2Yn2RZjccMYmr5McWN/1XjJYqqmtpEls4hRjZlaTJWhcBTaRhb/mxoLG7Xp+54U9o2TnsROQd947dvbmvDZuGzngaywYdtr4/51X3//ae0N/Vpu54qpL3PI1GNfQmI02k62rm3r58ZHH3/ooGhh3v+du08raNz80MfOKHyYNhvSjl/fedWLU4ofIy8kxPup6KyfsU5R3GDmBgAAwB6jJ0VNBKK6bHaSbdGLG/aFyv47VLyguLG/arxkMVVT28iSWcSoxkwtpspQOAptI4v/TfTE0RI9+wV90+JGTR8jLVkbegxnn1bY8GQ2Jqt9erElK2xYW7bPfv+MWnHDZpPYI2L1MglrZxuJpx77EhKj0XaydZ3t9j0G2LR40EKYxalfiuLFsLjMpsUJihsnLSEGAACwPPSkqIlAVJfNTrItenHDvoT4l9y+Lwl9xQ3/Avzgd+8/+Lxhy932yE2nteNfuCPxy49Nd9Y2Wh53h3U1XrKYqqltZMksYlRjphZTZSgchbaRxf862v0MPvvgiYOxyJJ1KzR44aHGukVgTzI3/bxTK25cc897D9bVUgSpFTdqlxEMzQpcVz32JSRGo+1k69qlevlRzdo5slbcsL/t/O/n42wmx1inKG5wWQoAAMAeoydFTQSiumx2km0xFjfiF+Psi2hW3NAv00r8lXOouOGFlYyz5UvLPqvxksVUTW0jS2YRoxoztZgqQ+EotI0s/tfRx8ZYYLWEfpszN7x4sk5SaTNM7OaSNka/9dZXH4zL3k6WEJuegOrr2U1Fh4obVgjy84Buu58jNkmU+9RjX0JiNNpOtq5d6TEwhloRoaW4EY+n/XuTS1LMKYobzNwAAADYY/SkqIlAVJfNTrItxuJG/Dv75TArbsTZHnEKtX3Z9V9d4pda/+IWv/T4LzTW9rvvfMup14e+MOM4NV6ymKqpbWTJLGJUY6YWU2UoHIW2kcX/VLYkfesWN3wc1CTUxsG/vec9p72WaTPffL2xoOBj+hiyfdQE0v+2WXvWvl/aSHFjM7XoUDMrXKi2TEY8zl5M8MLYJoUJc53iRry0ZpPihsXcYRU6NJZKiAEAACwPPSlqIhDVZbOTbIta3DD7Lk/R4oZ/ac0KIaa3E794DRU3Nv2lCPvVeMliqqa2kSWziFGNmVpMlaFwFNpGFv9Tuc3iho2vOuaaPmbWEthoa0FhTAKqCaT//fJPvGh12e0XnhrHKW5s5jaKG61aW3Yj075z+hjHxJbpcTIVYwsrU6mxVEIMAABgeehJUROBqC6bnWRbzIob8UtG/NJkX1aGvvTYry6X3Paag1/y7nnszoPPG7XiRlyftW/36ogzOHBzNV6ymKqpbWTJLGJUY6YWU2UoHIW2kcX/VPr4VWNscmiF4KGiiReKWwsEuyhu2Db53zb2/9dP/vqp2XoZFDfa3GVxw2YFfeqBvzu1ruz8vK5jixtD2nZmN9e1S6i0GHjYaiyVEAMAAFgeelLURCCqy2Yn2Raz4kZ8PX5J7ytufOArlx4s20etuGH6+hR7FN6bv/BHpy2L49V4yWKqpraRJbOIUY2ZWkyVoXAU2kYW/1Np49fUMzeszZZiSK24HN1VccM+a5fDWJ/82S3/jZkbE7jN4oYVod715YtWtz7y6XKGPX2GprVlrFssiY6JrSH9u4Hf1Fdft/8nsif9HJYaSyXEAAAAloeeFDURiOqy2Um2Rf+CkH0J8V8L/ctP9uXalzHsmus7Hr15df19HzooSPh7LcUN074E61NXnCm+bC1ZjZcspmpqG1kyixjVmKnFVBkKR6FtZPE/lVMXN/wxs9fee9Wpm3lecccbTvnhuy9ffeHhTx7oCWlt/eauihuGnxO4LGUapyxu2A8PNotSn0Jm52k7HvHGsX48Ldbied6O3w33f2T0Y4mnKG74Dyd9T02zGR36RCNdZtdqLJUQAwAAWB56UtREIKrLZifZFoeKG/6l1LAvT1rc8C+zWvBwxxY3orZu++Lvl7e0fKHHfjVespiqqW1kySxiVGOmFlNlKByFtpHF/1ROWdyI42vE7nlgelHDklArdNh9Ld70+fN7x+toa0Fh3eKGj/2x2OGv9UFxo00/J4+hr7jh51ubAWmXemYFAouVT3zjmoPzuM+AsLiwOLdigR/XsT8wbFLcsKKFP/mnZVZGfFKQ/biS7eeu1FgqIQYAALA89KSoiUBUl81Osi0OFTfi+/alwX79iYUMfy9+wXW1MOKvtxY3XP9iRXFjMzVespiqqW1kyWyTH75gtfr+46vVv/5gtfroRfky7lc+2bZczRsuWa3u+Gj+3rq++2Wr1fe+1e3LE6vVVS/Pl9mWn7vqZB86n70yX+6Q1ZipxVQZCkehbWTxP5VDxQ27PMOKEZZktY5XlsTZLLfs0at92q/ZNtMje8/18TdLSG2dn/mn6w+2taVQ4uq+2/2V4rjvY7UWMYa2ZVP12JeQGI22k61rV9p5dRf33LDjYjHr5/dYjLP3/McMPe+bfh6fgrjtcSaGfa8YMxPDttmKNP7ZwypwaCyVEAMAAFgeelLURCCqy2Yn2RZrxQ0zXnoSv+TEX+riryv+q4sT284KIv6afXGO99ewLyvX3PPegzYO88vKHNR4yWKqpraRJbNNenHD+Od/Wq3e+wf5cuYUxY3r/+zkuh64I39/XQ+ruOH7E/nMu/NlD1mNmVpMlaFwFNpGFv9TaUmd/QqeJV2e8Nmsi8O+B4CNzXd+85a0COLFBruM0G7e3DquDhV2TFunzbTLiht2WcM2bhKtx76ExGi0nWxdu9L6WYsJfVrf2qWctWJXnzbjoS+eY7FgG4WpTFtnX9y2agWbTT6/qRpLJcQAAACWh54UNRGI6rLZSbbFluKGfxk29EuX/bpTIytuOP7eUDutX/SwX42XLKZqahtZMttkLG4Yd/5DvpxJceNMb/7AD/dnqDB0FqgxU4upMhSOQtvI4h/nqR77EhKj0XaydSG2qLFUQgwAAGB56ElRE4GoLpudZFtsKW6YvpwWGvyXo1iwsF8E7bpXvz5cf+2LT1eJMzLsFxe9maj9sng23CRs39V4yWKqpraRJbNNenHjO4+e/O9Q8YLixpl6cWOoKHSWqDFTi6kyFI5C28jiH+epHvsSEqPRdrJ1IbaosVRCDAAAYHnoSVETgagum51kEV2NlyymamobWTLbpBc3rNjgiXrf5Sl9xY3/+7ur1S1Xr1aPPXjy84Ytd/+tp7djn1dikePjf3lmG1//QtuMiKHiht3j49F7S6MdVsjpuy9G677ojBdn6qLNhGrM1GKqDIWj0Day+Md5qse+hMRotJ1sXYgtaiyVEAMAAFgeelLURCCqy2YnWURX4yWLqZraRpbMNhmLG5bYP3jXySQ9m4mQFTfiZzJisWGouOGFlYzavUDMvuLGULtaiBizLxQ3UrSNLP5xnuqxLyExGm0nWxdiixpLJcQAAACWh54UNRGI6rLZSRbR1XjJYqqmtpEls03G4kb8O5uhkRU34myPay784et/86qTxQYj3mAzuyzFCxPW9o3v/OHr1oYXG2o36cyKG74v3354tbr2jT9ctq/dsfsSP8NlKQdoG1n84zzVY19CYjTaTrYuxBY1lkqIAQAALA89KWoiENVls5MsoqvxksVUTW0jS2ab1OKGGZN8vawkFjd8pkNWCDGzxH+ouJFdUtJq1kZWjNHlfR/X2Zeh189CNWZqMVWGwlFoG1n84zzVY19CYjTaTrYuxBY1lkqIAQAALA89KWoiENVls5MsoqvxksVUTW0jS2abzIobfZenDBULzA/98Wp14q0n71nxyNdOft6oFTfi+qx9u79FnMHRohY3apeYOH0FlZZ9MSlunIa2kcU/zlM99iUkRqPtZOtCbFFjqYQYAADA8tCToiYCUV02O8kiuhovWUzV1DayZLbJrLgRX4/FjL7ixueuOrlsH7XihunrU7553+mXlPSpxQ3/u4YWN8bsi0lx4zS0jSz+cZ7qsS8hMRptJ1sXYosaSyXEAAAAloeeFDURiOqy2UkW0dV4yWKqpraRJbNN9hU3TE/c/dKNoXtuGPYUkm/cvlrd8dGTBYks8R96FKzNttAnlTi14kFfcaNvZkbm2H2Jn6G4cYC2kcU/zlM99iUkRqPtZOtCbFFjqYQYAADA8tCToiYCUV02O8kiuhovWUzV1DayZLbJoeKGXp6ixQ0vIGSzOcyxxY2ordse4eqXhNSKFH3Fjb5tU9fZl6HXz0I1ZmoxVYbCUWgbWfzjPNVjX0JiNNpOti7EFjWWSogBAAAsDz0paiIQ1WWzkyyiq/GSxVRNbSNLZpscKm7E9y3ptxkVMfn39/TGo6YWRvz11uKG2zoDI1vOijF969JtX2dfTIobp6FtZPGP81SPfQmJ0Wg72boQW9RYKiEGAACwPPSkqIlAVJfNTrKIrsZLFlM1tY0smW2yVtwwPYE3YnHDCwrGZ6/84fL26NRH7z35uhHbzooI/poVJuL9NayocOv/O9lGVnSIZsUNL6QYd33sh5+P2+dFiXX2xaS4cRraRhb/OE/12JeQGI22k60LsUWNpRJiAAAAy0NPipoIRHXZ7CSL6Gq8ZDFVU9vIktkmW4obceaCXrbhsyOGyIobjr831E7fpSLRvhkesTCjaMFk7L7E9iluHKBtZPGP81SPfQmJ0Wg72boQW9RYKiEGAACwPPSkqIlAVJfNTrKIrsZLFlM1tY0smW2ypbhh+nJaaLDCh90ENBYs7GacdiPOv3v9yde14BCfSBILDB//yzNvJmqPhb3mwh9+ts++4oZp9+6Isy9sH2z7dCbIOvtCceM0tI0s/nGe6rEvITEabSdbF2KLGkslxAAAAJaHnhQ1EYjqstlJFtHVeMliqqa2kSWziFGNmVpMlaFwFNpGFv84T/XYl5AYjbaTrQuxRY2lEmIAAADLQ0+KmghEddnsJIvoarxkMVVT28iSWcSoxkwtpspQOAptI4t/nKd67EtIjEbbydaF2KLGUgkxAACA5aEnRU0EorpsdpJFdDVespiqqW1kySxiVGOmFlNlKByFtpHFP85TPfYlJEaj7WTrQmxRY6mEGAAAwPLQk6ImAlFdNjvJtnrZ7a9bPfjd+09ex9/xg3/9/uqLD39qdd7HfjVd/u1feu3q69/+Sll6tXr08YdW77/rkjOWu/GBa1dP/ODx1Stv/M3VXd+67WBZ+/uzD544+PcN9199xmfMi7/4yoP3v/zNz5/2+qbrff3N552x7FLUeMliqqa2kSWziFGNmVpMlaFwFNpGFv84T/XYl5AYjbaTrQuxRY2lEmIAAADLQ0+KmghEddnsJNvih776joPkP+PB7953RoFjaHktRniR4fZHP1eWONnmmz5//urxH3wvbd8/Z/zVP1586rUp1ttXrFmCGi9ZTNXUNrJkFjGqMVOLqTIUjkLbyOIf56ke+xISo9F2snUhtqixVEIMAABgeehJUROBqC6bnWRr/sENv7L65ycePZip8e4733Lq9Qs+8zunZjzEAsNrbvrdg6LEw997YPXmL/xRdXkvUlj7f37LH596/T//w78/WF5fN32brDjxik/+xsFrU613yWq8ZDFVU9vIklnEqMZMLabKUDgKbSOLf5yneuxLSIxG28nWhdiixlIJMQAAgOWhJ0VNBKK6bHaSrZkVEoa0okFfwcDbijMkvMigMytMn4mhl6b4JSnx9SnXu1Q1XrKYqqltZMksYlRjphZTZSgchbaRxT/OUz32JSRGo+1k60JsUWOphBgAAMDy0JOiJgJRXTY7ydb0GRSGFQ9ue+Sm02Zw9C07RCyUeJEhu7eGz8aIRYlsRsfU612qGi9ZTNXUNrJkFjGqMVOLqTIUjkLbyOIf56ke+xISo9F2snUhtqixVEIMAABgeehJUROBqC6bnWRb9CKDcv937j7tEhCfIVEjKzLES0bcrJCRFTymXu9S1XjJYqqmtpEls4hRjZlaTJWhcBTaRhb/OE/12JeQGI22k60LsUWNpRJiAAAAy0NPipoIRHXZ7CTbqhUaPvK1d63iE1Mcn/0w9hIWs1Zk0EtQsktVtrHeJarxksVUTW0jS2YRoxoztZgqQ+EotI0s/nGe6rEvITEabSdbF2KLGkslxAAAAJaHnhQ1EYjqstlJdh2t0GGPXL3nsTsPCgReVPAiQ9+9LzJrRQZv02ZqvPwTLzpjJkdcZsr1LlGNlyymamobWTKLGNWYqcVUGQpHoW1k8Y/zVI99CYnRaDvZuhBb1FgqIQYAALA89KSoiUBUl81OspuYzZjwokF2o87skpKWIoMtY4WLq+76P2d8Pi5jTLnepanxksVUTW0jS2YRoxoztZgqQ+EotI0s/nGe6rEvITEabSdbF2KLGkslxAAAAJaHnhQ1EYjqstlJtqYXBqyAEe+vYbM3rrnnvQcFglg08MtIjE9845pTr9sjWb/+7a8cvB4vKWkpMsQ2jewmoNtY79LUeMliqqa2kSWziFGNmVpMlaFwFNpGFv84T/XYl5AYjbaTrQuxRY2lEmIAAADLQ0+KmghEddnsJNuiFwIysktB/L4YGTrroqXI4DNEjKFLT6Ze79LUeMliqqa2kSWziFGNmVpMlaFwFNpGFv84T/XYl5AYjbaTrQuxRY2lEmIAAADLQ0+KmghEddnsJNvqZbe/bqU3E7XHwr7+5vPS5e2eHD5jwrCixPX3fei0AoPZWmTw5bJLUqJTr3dJarxkMVVT28iSWcSoxkwtpspQOAptI4t/nKd67EtIjEbbydaF2KLGUgkxAACA5aEnRU0EorpsdpJFdDVespiqqW1kySxiVGOmFlNlKByFtpHFP85TPfYlJEaj7WTrQmxRY6mEGAAAwPLQk6ImAlFdNjvJIroaL1lM1dQ2smQWMaoxU4upMhSOQtvI4h/nqR77EhKj0XaydSG2qLFUQgwAAGB56ElRE4GoLpudZBFdjZcspmpqG1kyixjVmKnFVBkKR6FtZPGP81SPfQmJ0Wg7iFNZQgwAAGB56ElRE4GoLpt98UN0NV6ymKqpbWTJLGJUY6YWU2UoHIW2kcU/zlM99iUkRqPtIE5lCTEAAIDloSdFTQSiumz2xQ/R1XjJYqqmtpEls4hRjZlaTJWhcBTaBi7XEhKjufzYkZuy9hA39L4SYgAAAMtDT4yaCER12SyhRXQ1XrKYqqltZMksYlRjphZTZSgchbaBy7WExGguO/bk5xw/duSurE3EtTx6ziPHn3LkpSXEAAAAloeeHDURiOqyWUKL6Gq8ZDFVU9vIklnEqMZMLabKUDgKfnXHIr+SAwAAAJwt6Jc1TQSiumyW0CK6Gi9ZTNXUNrJkFjGqMVOLqTIUjoJf3ZFfyQEAAADOMvQLmyYCUV02S2gRXY2XLKZqahtZMosY1ZipxVQZCgEAAAAAYJ/RL/qaCER12SyhRXQ1XrKYqqltZMksYlRjphZTZSgEAAAAAIB9Rr/oayIQ1WWzhBbR1XjJYqqmtpEls4hRjZlaTJWhEAAAAAAA9hn9oq+JQFSXzRJaRFfjJYupmtpGlswiRjVmajFVhkIAAAAAANhn9Iu+JgJRXTZLaBFdjZcspmpqG1kyixjVmKnFVBkKAQAAAABgn9Ev+poIRHXZLKFFdDVespiqqW1kySxiVGOmFlNlKAQAAAAAgH1Gv+hrIhDVZbOEFtHVeMliqqa2kSWziFGNmVpMlaEQAAAAAAD2Gf2ir4lAVJfNElpEV+Mli6ma2kaWzCJGNWZqMVWGQgAA2DWXHn3ST1x+7MilOjAvzeNHj7zz+NFzfrZ0CwAArImOr5oIRHXZLKFFdDVespiqqW1kySxiVGOmFlNlKAQAgF1z/NiRK3VQXq5HbirdAgAAa6JjqyYCUV02S2gRXY2XLKZqahtZMosY1ZipxVQZCgEAYNfogLx0S7cAAMCa6LiqiUBUl80SWkRX4yWLqZraBuJYazFVhkIAANg1OiAv3dItAACwJjquaiIQ1WURx5jFVM2sHcQx1mKqDIUAALBrdEDOfimZs7r/pVsAAGBNdFzVRCCqyyKOMYupmlf9/E+nbSG2+J5nPv2MmNJlylAIAAC7RgfkrAAwZ3X/S7cAAMCa6LiqiUCURBPXNUsyW7z5I8dX733Wv0vbRBzyXU/7N6uPX/TqM2JKlytDIQAA7BodkLMCwJzV/S/dAgAAa6LjqiYCURJNXMe+JBPxMNT4LEMhAADsGh2QswLAnNX9L90CAABrouNqlgwgIs5FHfPKUAgAALtGB+SsADBndf9LtwAAwJrouJolA4iIc1HHvDIUAgDArtEBOSsAzFnd/9ItAACwJjquZskAIuJc1DGvDIUAALBrdEDOCgBzVve/dAsAAKyJjqtZMoCIOBd1zCtDIQAA7BodkLMCwJzV/S/dAgAAa6LjapYMICLORR3zylAIAAC7RgfkrAAwZ3X/S7cAHOl8VefFnT9nL+whL+189sl/DmL7+lOdP3nwF8CG6LiaJQOIiHNRx7wyFAIAwK7RATkrAMxZ3f/SLTAvntF5beenO4/aC4Il98/vfO7BXyex1z7QaTHxa/ZCwV4/t9OWHyoG/EjnFZ0vOPhr99j6v9pp23+BvTDAL3bacn39AzAKHVezZAARcS7qmFeGQgAA2DU6IGcFgDmr+1+6BbbLL3W+sNMKBJv4ks6WZPyZnQ93aqHC8fdjcj9U3LDXH+8cmtER1/lKe2HHeMHisc4ftxcGoLgBk6LjapYMICLORR3zylAIAAC7RgfkrAAwZ3X/S7fAdvmtTuvrTW1J3B1fZ/YZL0RcefDXSTYtbvj6hmaLePstjtnX2HYsrPhsjus644wSihswKTquZskAIuJc1DGvDIUAALBrdEDOCgBzVve/dAtslxd32iUbdj+LTXxfZ2vC74m9FSV09oa/N1VxI65rqADyuk5r35Y70eONnbbMmOJG36yNvhksFDdgUnRczZIBRMS5qGNeGQoBAGDX6ICcFQDmrO5/6RaYJ3bTzIypZ254sSC2l+HFjaHLVnzbWosbfbM2jL7ZJBQ3YFJ0XM2SAUTEuahjXhkKAQBg1+iAnBUA5qzuf+kW2H8syf+FTito9GnvWzLvBYRbO+PMEJ/lYJdx6Ot9xY2+4ofNVjEj2yhueKHC1BkqcX2xH57Xaa9bceNnymtRnqICo9BxNUsGEBHnoo55ZSgEAIBdowNyVgCYs7r/pVtg/4lPC+nTCwbxco1W+4ob2ayNOJsizo6Yurih+xyLG+vso9taWAE4QMfVLBlARJyLOuaVoRAAAHaNDshZAWDO6v6XboH9xwoKF3baTIuLOuNTVs7r9Ne90KCzFVpU+mZtxMJCLDhMXdzQG7XGdfl7tm0nxFj00PfMuzspbkAzOq5myQAi4lzUMa8MhQAAsGt0QM4KAHNW9790C8A6eAFB77XhRYy+1y/ozIonpj02t6W4ES9Hcb24EWd06KUqBvfcgEnRcTVLBhAR56KOeWUoBACAXaMDclYAmLO6/6VbYFosub66M84GmFq7L4Ym/zaT4tzOmLDHJ5nYPTDiDI919Bka8dITnx3hTzoxs+KEFzdaHCpuxJkhVijx7fBCRu2xtBQ3YFJ0XM2SAUTEuahjXhkKAQBg1+iAnBUA5qzuf+kWmJaW+19sqib/fbMVvBDgl45sum3ZpR+mFTfscbdedMguPfHixs2dWeHEvKTTlukrbsSiihUnnhr+tm3r64cIxQ2YFB1Xs2QAEXEu6phXhkIAANg1OiBnBYA5q/tfugWmxRLw7JIL9WWdb5PXxqiJeXZPC03k+7YtXg6SPUHEjU8SeVqnLet4IaWvaJBtn9Jyzw0rYHyw096PxQ4vZti+vK+zr3BBcQMmRcfVLBlARJyLOuaVoRAAAHaNDshZAWDO6v6XboHdE5Nym8nw7M5NyS7H6LsvhuIJf225Pnx/9OaikamKG5GsuFGD4gZMio6rWTKAiDgXdcwrQyEAAOwaHZCzAsCc1f0v3QK7xxNsc92CgpIVBrygUEv8vQgyVHgYoqWIsqvihs0wGSpatBQ3am0AnELH1SwZQEScizrmlaEQAAB2jQ7IWQFgzur+l26B3RIT8ilnD/j9Jnz2RDabYpN7bvQVHFoLErsobsSi0aZOVXSCmaPjapYMICLORR3zylAIAAC7RgfkrAAwZ3X/S7fAbvFZDkOXcNiTTVovs3Biom8FBC9kxAJKXObWzhPl36b9O/7t7/tTULQQY229tNOKEfb+OzrP67Qbg9rn+maR2H77ulRf1xTFDW3b9e0dWsbeo7gBTei4miUDiIhzUce8MhQCAMCu0QE5KwDMWd3/0i2wO+LMib4ZDLH4MbbAES8P8VkQMUn3YoAXD/xvL1z437Hw4u1kxQ0vLPSZFTdaXLe40QL33IBJ0XE1SwYQEeeijnllKAQAgF2jA3JWAJizuv+lW2B3eII/lFjHhH1odkfGMzr9CSbZfTS87SmKG4avw2Z5XNT5wk5bf3yqiuP7fkFnfAJLND61heIG7AU6rmbJACLiXNQxrwyFAACwa3RAzgoAc1b3v3QL7AZPqlsKFnGGR2uir1gxwdf1rM7f73xq55TFjTF4cWPbNxStQXEDJkXH1SwZQEScizrmlaEQAAB2jQ7IWQFgzur+l26B7eNJ+5gkPH5mbCJuxYxrO+2zrhUMnt5JcePk8hQ3YBJ0XEVEXJJlKAQAgF2jA3JWAJizuv+lW2C7tNxnow9PxGuftcs5Lun0G3JG7ZKRV3Ta5SJeDNhmccPasOKK3Wz0/E7/DMUNmCU6riIiLskyFAIAwK7RATkrAMxZ3f/SLbA97B4YPoPCb+xpCbnfY+Lczud3/nLnhZ32pBErUpwoarGiL4H3e1+413W+oFOTdy8GePHACy9a7Ggpbjyt04oYtv227Vd3xm0w42cobsAsufzYkZt0bEVEXIj3laEQAAB2jQ7KWQFgzur+l26B7eEJ/SZakcMSfvt3LDpELGG35ewRskMJ+5TFjb59izcXjTcL9eVbbyhqM03stezmpA7FDTh0Ljv25OccP3bkLh1fERFn7dFzHjn+lCM2SxMAAA6DdHBesKVbYHvEy0qiVoiw2RU2U8MuGbHZD6Yn+YoXGOyzb7MX1kSLGYbNwIgFBPvbtsEKB/bfl3XaerUY4PtmxQy7/CQrQsTtXtehIgTFDQAAAAAAWB5Zgr9kS7fA9rDk+yWdfY9HHYMl5X948p9rkxU3+tDCRHY5SW2frA0r5Gxia3Gj9X4mFDcAAAAAAGC/4dro0+Q6yeVhxQ27N4bNGqkVN7xwYDMz7HKXsxHbRpsSazNg7B4jLdh9UGyWzHM7KW4AAAAAAMD+wbXRRa6TBAAAAAAAAAAAAAAAAAAAAAAAAAAAAAAAAAAAAAAAAAAAAAAAAAAAAAAAAAAAAAAAAAAAAAAAAAAAAAAAAAAAAAAAAAAAAAAAAAAAAAAAAAAAAAAAAAAAAAAAAAAAAAAAAAAAAAAAAAAAAAAAAAAAAAAAAADYgEuPPuknLj925NLLj52zWrLHjx555/Gj5/xs6RYAAAAAAAAA2BeOHztyZZbsL9MjN5VuAQAAAAAAAIB9IU/yl2vpFgAAAAAAAADYF7IEf8mWbgEAAAAAAACAfUGT+9UVv70odf9LtwAAAAAAAADAvqDJfVYAmLO6/6VbAAAAAAAAAGBf0OQ+KwDMWd3/0i0AAAAAAAAAsC9ocp8VAOas7n/pFgAAAAAAAADYFzS5zwoAc1b3v3QLAAAAAAAAAOwLmtxnBYA5q/tfugUAAAAAAAAA9gVN7rMCwJzV/S/dAmcPL+68uPP8zp+0F3bIkc5Xddr6f85e2ENe2vnsk/8cxPb1pzp33ccAAAAAAACbo8l9VgCYs7r/pVtgezyr8+rOVx78Vee3Ou24PN65SYHhGZ3Xdn6686i9IFhy//zO5x78dRJ77QOdtv5fsxcK9vq5nbb8UDHgRzqv6HzBwV+7x9b/1U7b/gvshQF+sdOW6+sfAAAAAACAsxdN7rMCwJzV/S/dAtvjdZ3Wz491/ri9UMGT7k2LG8/sfLjT2oqFCsffj8n9UHHDXq9tU1xnazFnSrzvWvqa4gYAAAAAAOwvmtxnBYA5q/tfugW2x9iEf0yCXsNngWRt+XZdefDXSTYtbvj6hmaLePstjumD2HbsZ5/NcV1nnFFCcQMAAAAAAPYXTe6zAsCc1f0v3QLbZczsjSmLG57YW1FCZ2/4e1MVN+K6hgog3he23Ikeb+wc2wd9/dY3g4XiBgAAAAAA7C+a3GcFgDmr+1+6BbaLJ9KaYGdMWdww7KaZGVPP3PDtju1leHFjaBaLb1trH/TN2jD6ZpNQ3AAAAAAAgP1Fk/usADBndf9Lt8B28eT75s54aYQn+uuYJeW2nl/otIJGn/a+fc4LCLd22tNRXJ/lYJdx6Ot9xY2+4oc9+cWMbKO4MVQ8iuuL/fC8Tnvd+vFnymtRnqICAAAAAABnL5rcZwWAOav7X7oFDodNihvZDIn4tJA+vWAQL9dota+4kc3aiLMpYiFm6uKG7nMsbqyzj+5UM2cAAAAAAACmR5P7rAAwZ3X/S7fA4WCPidUZAy/rtOPywfBa9n5W3LCCwoWdNtPiok57dKt7Xqe/7oWGrP2aSt+sjVhYiAWHqYsbftmJG9cVH6t7QoxFD33PvLuT4gYAAAAAAJydaHKfFQDmrO5/6RY4e/Dkv+/eFS3FgV3iBQTd3r798Ncv6MyKJ+YvdbYUN+LlKK4XN+KMDr1UxeCeGwAAAAAAsL9ocp8VAOas7n/pFpiep3VmifsQ8VKOvuJFrbhhbZzbGRP2+CQTuwdGnOGxjj5DI26vz47wJ52YWXHCt7/FoeJGnBlihRLfDi9k1B5LS3EDAAAAAAD2F03uswLAnNX9L90C0zJ074tsFoFTm20QiwnZ+32f90KAXzoytH0txrbjZSFW3Lii04sOWQHGixt2c9WscGJe0mnL9BU3Yj9YceKp4W/btlo/GhQ3AAAAAABgf9HkPisAzFnd/9ItMC1aPIizGfqSbcMT7pakvq+dbGaHJvLWTjarJF4Okj1BxI1PErEZKras44WUvqJBbeaJ0XLPDetjuy+JvZ/1i+3L+zr7ChcUNwAAAAAAYH/R5D4rAMxZ3f/SLbBdWmYSGJ749yXcLcWN7HKMvvtiKJ7w15brw7dPby4amaq4EWnpF4XiBgAAAAAA7C+a3GcFgDmr+1+6BbZLS3Ej3kOiL/H3doaKB1lhwAsKtcTfiyBDhYchWooouypu2AyToaJFS3Gj1gYAAAAAAMDhoMl9VgCYs7r/pVtgu7QUNzzpr12KUStu6DLZbIq4PWPt277WgsQuihteuJjCdWexAAAAAAAAbA9N7rMCwJzV/S/dAtulVtxombVheDtDSX9M9K0t/0ycoRCXubXzRPm3af+Of/v7ft8Qnelgbb2007f/HZ3nddqNQe1zWqTw4oYVW3xdqq9riuKGtu369g4tY+9R3AAAAAAAgLMPTe6zAsCc1f0v3QLbZai4Ed+rJfOtMxri5SH+mZikezHA2/G/vXDhf8fZHt5OVtzwwkKfWXGjxXWLGy1wzw0AAAAAANhfNLnPCgBzVve/dAtsl77ihhYGhhJzW/ZlnbZcLel/Rqc/wSS7j4avd4rihuHrsFkeF3W+sNPWH5+q4nhx44LO+ASWaHxqC8UNANIpqwMAABCkSURBVAAAAAAARZP7rAAwZ3X/S7fAdsmKG1aAuLbTXjOzyx+e12mXR1ii78uZYxJyKyZ4keJZnb/f+dTOKYsbY9jFPTdaoLgBAAAAAAD7iyb3WQFgzur+l26B7ZIVNywh/5NOe60viY+fc2PBoYYVM2IBxbR1Pb2T4sbJ5SluAAAAAADA/qHJfVYAmLO6/6VbYLvEG1xaMv3sTscuwRgqVvjMC7tR5wvshQGsrUs6/YacUbtk5BWddrmIFwO2WdywNqy4YjcbPb/TP0NxAwAAAAAAYFM0uc8KAHNW9790C2wPu7TEEnXra7vExP5rRYOY8E+F3/vCva7TCiK6Hi1u+AwRLXa0FDee1mlFjOd3Xth5dWfcBjN+huIGAAAAAADApmhynxUA5qzuf+kW2A5ebIhFArvXhifips+oeG6n3UxzbKIdb9ppCbsVUF7cOdTOlMUNL1ao8eai8WahvnzrDUVtpom9lt2c1KG4AQAAAAAAy0KT+6wAMGd1/0u3wLRYsu330+hLuOOMjk0cmgHRhxYzDJuBEQsI9rcVFWxf7L/+pBYtBniRwIoZNhslK0J4YSRu91iHihAUNwAAAAAAYFlocp8VAOas7n/pFpgeT7hrybPNUrDLOWzGhSfyrbZetqFkxY0+tDCRFVOGZlUY1obt3ya2Fjdaiz0UNwAAAAAAYH/R5H7plm6B7WBJdy3xz/DLM87ttHtZ9GmXsqyDFTfs3hh2T45accMLBzYzwy53ORuxbbQbl17cWbvpqmOXB3kfUtwAAAAAAID9Ikvwl2zpFgAAAAAAAADYFy4/duSmLMlfqPeVbgEAAAAAAACAfeGyY09+zvFjR+5KEv1lefScR44/5YhN5QcAAAAAAAAAAAAAAAAAAAAAAAAAAAAAAAAAAAAAAAAAAAAAAAAAAAAAAAAAAAAAAAAAAAAAAAAAAAAAAAAAAAAAAAAAAAAAAAAAAAAAAAAAAAAAAAAAAAAAAAAAAAAAAAAAAAAAAAAAAAAAAAAAAAAAAAAAAAAAAAAAAAAAAAAAAAAAAAAAAAAAAAAAAAAAAAAAAAAAAAAAAAAAAAAAmDOXHn3ST1x+7Millx87Z7Vkjx898s7jR8/52dItAAAAAAAAALAvHD925Mos2V+mR24q3QIAAAAAAAAA+0Ke5C/X0i0AAAAAAAAAsC9kCf6SLd0CAAAAAAAAAPuCJvf//T2/vih1/0u3AAAAAAAAAMC+oMn9C/7qRYtS9790CwAAAAAAAADsC5rc/9sr/8Oi1P0v3QIAAAAAAAAA+4Im9z/6wf+4KHX/S7fAcjnS+arOizt/zl7YIi/utPWc3/mT9sKO2eW+Os/ofPbJf0IjL+1s6TM7nj/VeRixBAAAAABwuGhy/+yP/JdFqftfugXmgSXS13Z+uvOovSBYMvj8zuce/HUSe+0DnRYLv2YvFOz1cztt+b7k8VmdV3e+8uCvOr/Vaet5vHPT4sKu97UP+2xchxPXdaW9MBHWriX/XiTK+MXOE8W4n638SOcVnS84+Gu32Lq/2mn9doG9MIDtpy3XFwMAAAAAAPNFk/vnX/eaRan7X7oFtsMvdb6w05LmTXxJZ0vy9szOhzs1eXf8/ZgMDiX89vpQIeJ1nfa5xzp/3F6o4MnoFMWNXe9rH0P75MWc1v5pIe5DX9HEt0n3s5XYt62Fq6nwbW/pM4obAAAAALBcNLn/nRsuWZS6/6VbYDt4crupY5LjoYTak9aYFG+S8I9Ngsckri3scl/78AJPlmDHWQhTFQlaihu+7+sWkbxf+4oGcRtabD3esd3YX96P13XG2SQUNwAAAABguWhy/z8+8zeLUve/dAtsB7vHhE3vt0sINvF9na3FAE8ELbHVX+39vSkT/jGzN6Yubux6X5VY3NH1O2Nnt9SI+7CN4kbs05bjbsud6PHGzjH73hcfff1McQMAAAAAlosm98dvuXFR6v6XboF5YTdZzNjGbAZPMPXzGVMXN4xd7qsyNGvDiYn5FLM34j70tbdJccOPUV/hxPF9H9on346W4z20X30zSShuAAAAAMBy0eT++ju+tih1/0u3wP5iSeEvdFqS36e9b8mfJ5u3dsaZIZ5827R/fb2WIHtSenNnvGTAk9917EtWD3tfI55Yt3xm6PKZsWyzuOFt6+dsBpIZmbq4MVQki+uKx/p5nfa6xcvPlNeiPEUFAAAAAOaLJve33PnwotT9L90C+4tfRuCJYaYnl55sZsv0OTZBdjYpbvTNGjhb9jUWGGozHIy43S3LG7aON3WeSIzbm73vl4OYVtzR962wkxUbslkbcV9j0WnK4oYe11jcWOc4ulMUkwAAAAAAzk40ub/t1vsWpe5/6RbYXyz5vLDTZh9c1BmfsnJep7/uSan+ut3iOthjYrWdl3VazH0wvJa931cAOFv21RP7Mcnz0MyEjFhUmNpsu319WuCJxYW43VMWN3xmixvX4+9lhZxY9ND3zLs7KW4AAAAAwDzR5P72m7+yKHX/S7cA7AJPiPuKFy0J82ETixRjt9P3r3WGyNPKfyOx6NG3fi8qtK7H8CKCHpu+Y+avX9CZFYlMexRyrbgR+9P14kac0ZEVhPyz3HMDAAAAAJaHJvd33vilRan7X7oFpsGSsas7/ZfjbZhdUmAJ77mdMcHzxNASXLtfQpz1sI4xSbakO0tmh2hJyluKG7ve10hMtrOEOitGROLn171koqUfxxY3Ypv2GYuzeGlLtq1+rFrs29c4K8SKJL4NXsjou5GoQ3EDAAAAAJaLJvd3fezmRan7X7oFpiEmr9tSE8W4zvjrtia4m25b9mt63zIZfdvpxAS7r51d72tECwBZ0cASfr2xqhITejuWz+4cwzaKG0a8NMSKG/YIY9/ObD1e3LD9zQpE5iWdtkxW3Ij7YcWJp4a/rf9r8WJQ3AAAAACA5aLJ/d0f/dSi1P0v3QLTYAlbNqNBtXtLvE1eG6MmctmMB038+rYtXjqQPXHC9SdPaOEg/sLfl4Qavj19v+LHZHeonV3uqxO3rW/7Yr/Ukm3fXtMKEEPFECVuy5TFDZt1Yn3ieBt9+5IdB8Xb6Dvm1md2/xV7Lzv+drze19nXlxQ3AAAAAGC5aHJ/79/+/aLU/S/dArsjJnH2q/fYX+4zsun7ffdQUDxBrC3XR8sv7IYnw32JaJbcZux6X7Ww0ZfM+za0FhR8eVcftdrHtoobEV/H0OenKG5EWo9/hOIGAAAAACwXTe7v++trFqXuf+kW2B3xV/t1CwpKlkR68llLFD3JHkpSh2gpbvj2Da3H26kl5Lve17jtfccr9sGYY/q8Ttvf1mTe2EVxo6VYtIvihs2iGSpatBQ3am0AAAAAAOwnmtw/cNVfL0rd/9ItsBtiAjflr81aGMh+eY8J+FiHktOW4oYnwi3t1BLyw9jXZ3S+obPveHkxoCWJV7KbkNr64mNuo7/ceW2nre8d5TX1pZ1e3Di/vJaZzRpqLUhsu7gRi4CbOlUREQAAAADg7EGT+4fe875FqftfugV2gyfBQwm8XZ4w5pd8IyaGlmx6ch8LKHGZWztPlH+b9u/4t7/v99MYKsTUihtx5sNQIuzt1BLhw9zXjLj/Q/tnMwha8TjZtnF7rc+8KGLvWeHkvE67Maj1jxYpvLhhsex9qnqfblrc0HZd39ahZew9ihsAAAAAMD80uX/k8ncuSt3/0i2wfVqS4Fj8GFvgiJcSeEEhJnWePHqi6X97Mu9/x8KLt7NucSO+V0twx/zKf1j7muHb0rfdtq4/6cz6pw+7keYLO7PZFlNpM0DijUy9T2w7+4z76MWNFluOaVx/az9xzw0AAAAAWC6a3H/r7W9flLr/pVtg+3gyOJSIxQRvaHZHhl3K4E+78IRbf5m3tqdO+PuKG3Ff9D3FlrUnyNhyLYnwYe2rMlTYcWI/jGn7MPC+tNksF3VagcX6WZ8eY3g8X9DpT5lR49NpKG4AAAAAAEyJJveP/cXFi1L3v3QLbBdPwloKFmNmO/Rhiaev61mdv9/51M5tJPxZgm/FB78vhJldFmA307TLBqx9X84cm6jucl+VloKV4W3bskOXrrRi/Xt1Z98TVmx993W2PoFlHXzfh/bH95viBgAAAADA1Ghy/923vHFR6v6XboHtERPb1qQtfmZs4mYJfiwsmJZcPr1zGwl/VtywtvxSjL7ENn7OjetuYdf7GhlTsDJ8VsTYfVRibJhv64zbq/061eOGFYobAAAAAACHiSb3j7/+fy5K3f/SLbAdYqI59hd7T9xqn7Wp/5d0+s0bo3Z5wSs67dICTx6nTvjjdtpyMZG2bRtK5H3Whd28Mt7/oY/D3lcnHtdsVopj67HLM87ttHtc+Gda1qFYW37pjquFDScr+vQtW8PWa+3ZzUbtySveBsUNAAAAAIDDRJP7J/7Xaxel7n/pFpieeGmGJ8Ce7HrC6zd2vLDTnkphifuJoibwfQmfzwhwr+u0QoEme548eqLpCboWAMYk/HZpib1v67Vttv/a52MSPCWHua9OPK6+r5b42/GzS0WsH7xPhmxN4A0r6sRihc3GGCoaOfH4mLa9fUUkeyStFTEsJi0ebV/8c27sG4obAAAAAACHiSb3WQFgzur+l26B6fHkbxNjohwT8YgleLac3V9hKMGbOuHPLrOwxN8TVNNnUzy30wo6YxNQvZHlYe2r48v4/rVo23tFp/WDFQ68SNGS8Ft/vqkztjd2BoYek742+uI13lzUC3OmL996Q1GbUWOvZTcnNShuAAAAAACMQZP7rAAwZ3X/S7fA9HjipVqyazMO7Jd+T3hNTwiVmFBbUroumuAb9mt9TDbtb9sGSzTtv34ZREwe7T2/n4aZJaI6Y2Bdx17K40y1rxlZEcCOqR1Pm8XhhZw+4vEc2j9djxViNrlBqB4TjSWPVytm2H5kRYh1ijtqX/9S3AAAAAAAGIMm90+86XWLUve/dAtMjyVrL+nse5TmGCyJ+8OT/1ybLOHvQ5NYTcI9Ea0llfbLvV3iYMm/t9Vqy3b2MeW+Kra8zWSwIsa6CbUXLoZmYXgfW1Fj7GyNPvySGrtMKmuvFqe273YsN7GluNFa1KK4AQAAAADLRZP7J/73mxel7n/pFpg/lvDbfRRs1kgt4fdE037F75stYMusU7SxWQ2m33OkTyserMvU+zo1VmRoeYKJbdtSknbbV793ScvNZQ3rR48VihsAAAAAsCw0uX/ikr9YlLr/pVsAAAAAAAAAYF/Q5P5fjr99Uer+l24BAAAAAAAAgH1Bk/ulW7oFAAAAAAAAAPaFLMFfsqVbAAAAAAAAAGBfuPzYkZuyJH+h3le6BQAAAAAAAAD2hcuOPfk5x48duStJ9Jfl0XMeOf6UI/Z0AgAAAAAAAAAAAAAAAAAAAAAAAAAAAAAAAAAAAAAAAAAAAAAAAAAAAAAAAAAAAAAAAAAAAAAAAAAAAAAAAAAAAAAAAAAAAAAAAAAAAAAAAAAAAAAAAAAAAAAAAAAAAAAAAAAAAAAAAAAAAAAAAAAAAAAAAAAAAAAAAAAAAAAAAAAAAAAAAAAAAAAAAAAAAAAAAAAAAAAAAAAAAAAAAAAAAAAAAAAAAAAAAAAAAAAAAAAAAAAAAAAAAAAAAAAAAAAAAAAAAAAAAAAAAAAAAAAAAAAAAAAAAAAAAAAAAAAAAAAAAAAAAAAAAAAAMJ70pP8PXl/zb9gozM4AAAAASUVORK5CYII=;" vertex="1" parent="1">
          <mxGeometry x="80" y="40" width="1079" height="812" as="geometry" />
        </mxCell>
      </root>
    </mxGraphModel>
  </diagram>
  <diagram id="nFOGB7lef68MX49zj_vU" name="第 2 页">
    <mxGraphModel dx="1434" dy="796" grid="1" gridSize="10" guides="1" tooltips="1" connect="1" arrows="1" fold="1" page="1" pageScale="1" pageWidth="827" pageHeight="1169" math="0" shadow="0">
      <root>
        <mxCell id="0" />
        <mxCell id="1" parent="0" />
      </root>
    </mxGraphModel>
  </diagram>
</mxfile>
